<svg xmlns="http://www.w3.org/2000/svg" width="560" height="560" fill="#383938"><path d="M97.053 324.83c0 5.203-1.113 8.92-3.158 11.146s-5.754 3.526-10.775 4.27l-12.072 1.673V229.724l12.072-1.676c2.232-.366 4.276-.366 5.947-.366s3.158.556 4.458 1.297c1.115.746 2.045 2.043 2.787 3.534.556 1.667.926 3.713.926 6.5V291.2c0 1.856-.37 3.526-.926 5.388s-2.23 3.157-4.647 4.088c2.228.373 3.903 1.484 4.46 3.34.744 1.857 1.113 3.714 1.113 5.57v15.23h-.185v.003zm-9.47-87.12c0-1.113-.373-2.04-1.116-2.785s-1.672-.928-3.16-.746l-2.785.375v67.24l2.973-.37c1.303-.187 2.415-.933 2.972-2.046s.928-2.227.928-3.153V237.7h.188v-.001zm0 75.045c0-1.117-.373-2.047-.93-2.972-.556-.932-1.67-1.3-2.97-1.116l-3.158.37v25.078l2.785-.372c1.302-.188 2.232-.746 2.974-1.673a5.05 5.05 0 0 0 1.113-3.159v-16.157h.185zm60.925 18.39V299l-6.872.928v32.135l-9.658 1.3v-99.93c0-2.603.372-4.648.93-6.315s1.485-3.158 2.78-4.275c1.118-1.1 2.604-2.042 4.088-2.6s3.16-.925 5.016-1.298c1.672-.2 3.34-.2 4.83 0 1.67.187 2.97.745 4.27 1.484 1.116.928 2.23 2.045 2.973 3.53s1.113 3.53 1.113 5.76v99.934l-9.472 1.483zm0-102.72c0-.56-.184-1.487-.56-2.232-.37-.925-1.3-1.3-2.785-.925-1.483.187-2.413.74-2.782 1.856-.376.93-.56 1.857-.56 2.413v63.898l6.875-.932v-64.08l-.188.001zM193.1 324.83V212.638l9.47-1.5v105.88l4.275-.745v6.685zm56.282-113.3v105.5l-9.474 1.297V212.82l-4.27.556v-6.87l18.02-2.42v6.873zm52.928 98.077v-32.32l-6.874.928v32.138l-9.658 1.298v-99.747c0-2.602.372-4.642.926-6.315.56-1.67 1.486-3.158 2.8-4.27 1.113-1.118 2.602-2.046 4.088-2.602 1.486-.562 3.157-.93 5.017-1.302 1.67-.186 3.342-.186 4.83 0 1.67.187 2.97.746 4.27 1.484 1.117.932 2.23 2.045 2.973 3.53s1.115 3.53 1.115 5.76v99.935l-9.476 1.484zm0-102.907c0-.556-.187-1.485-.558-2.224-.374-.934-1.3-1.118-2.783-.934-1.488.2-2.418.745-2.8 1.86-.372.926-.557 1.86-.557 2.413v63.9l6.876-.932v-64.085h-.2l.001.004zm43.478 96.78v-31.2c0-2.04.373-3.713 1.116-5.387s2.043-2.97 3.902-3.896l4.085-2.046c1.486-.925 2.602-1.67 3.155-2.413.56-.745.746-1.862.746-3.34v-59.07l-13 1.857v-6.87l22.66-3.157v67.616c0 2.043-.373 3.717-.93 5.574-.556 1.67-1.856 3.158-3.713 4.085l-5.576 2.972c-1.296.745-2.227 1.484-2.97 2.23-.563.932-.93 2.418-.93 4.645v20.622l13.93-2.04v6.683l-22.476 3.148zm73.556-10.404V260.93l-6.87.928v32.14l-9.473 1.3V195.36c0-2.6.373-4.647.93-6.315s1.483-3.157 2.784-4.27c1.116-1.118 2.602-2.046 4.092-2.6 1.48-.556 3.158-.93 5.015-1.3 1.673-.186 3.34-.186 4.83 0 1.666.187 2.97.745 4.27 1.484 1.113.928 2.232 2.046 2.974 3.53s1.1 3.53 1.1 5.76v99.933l-9.663 1.485zm0-102.72c0-.745-.184-1.487-.557-2.23-.372-.928-1.3-1.3-2.784-.928-1.487.186-2.42.745-2.785 1.856-.38.932-.56 1.857-.56 2.418v63.713l6.873-.93v-63.9h-.187zm60.928 94.174v-27.492c0-.746-.184-1.67-.746-2.785-.37-1.118-1.482-1.5-2.967-1.3l-3.16.373v31.95l-9.472 1.3v-112l13.56-1.857c4.458-.556 7.615 0 9.476 2.043 1.855 2.043 2.972 5.573 2.972 10.962v50.523c0 1.854-.374 3.528-.933 5.384s-2.226 3.157-4.64 4.088c2.227.373 3.897 1.485 4.455 3.34.742 1.857 1.116 3.713 1.116 5.574V283.4l-9.662 1.12zm0-101.05c0-.74-.184-1.667-.746-2.785-.37-1.115-1.482-1.484-2.967-1.298l-3.16.37v66.874l3.53-.56c1.298-.183 2.225-.746 2.595-1.67.562-.93.745-1.854.745-2.6V183.47zM70.12 398.946c-.557 0-.93-.187-1.3-.56s-.558-.926-.558-1.298a1.67 1.67 0 0 1 .558-1.302c.745-.745 2.043-.745 2.785 0 .37.37.558.93.558 1.302 0 .555-.188.926-.558 1.298-.372.187-.93.56-1.486.56m4.46-2.602c-.188-1.115.557-2.044 1.674-2.23s2.04.562 2.228 1.673-.557 2.047-1.67 2.23h-.188c-1.113-.001-1.855-.746-2.043-1.673m6.503-.93c-.185-1.116.554-2.042 1.67-2.23s2.043.562 2.228 1.673c.185 1.118-.56 2.043-1.674 2.23h-.18c-1.114.001-2.044-.745-2.044-1.674m6.315-.928c-.188-1.114.557-2.042 1.67-2.23s2.043.562 2.228 1.672-.557 2.044-1.667 2.228h-.188a2.02 2.02 0 0 1-2.044-1.671m6.315-.927c-.185-1.116.56-2.046 1.675-2.23 1.115-.2 2.043.557 2.23 1.67s-.56 2.043-1.674 2.23h-.188c-1.114-.001-1.86-.553-2.044-1.67m6.316-.742c-.188-1.12.556-2.044 1.67-2.233s2.043.555 2.23 1.674c.188 1.1-.556 2.04-1.67 2.226h-.375c-.743-.186-1.67-.74-1.856-1.667m6.503-.93c-.2-1.112.553-2.043 1.67-2.23s2.044.557 2.227 1.674-.556 2.043-1.67 2.23h-.184c-1.116 0-1.86-.742-2.044-1.673m6.315-.93c-.187-1.116.558-2.04 1.67-2.225 1.118-.188 2.045.557 2.232 1.67s-.558 2.045-1.675 2.23h-.184a2.02 2.02 0 0 1-2.043-1.673m6.312-.93c-.184-1.115.56-2.04 1.674-2.23s2.043.556 2.23 1.674-.56 2.04-1.672 2.225h-.185c-.928 0-1.858-.74-2.046-1.67m6.506-.93c-.188-1.1.557-2.04 1.67-2.228s2.045.557 2.23 1.674c.185 1.1-.557 2.043-1.675 2.23h-.185c-1.113 0-2.04-.745-2.04-1.675m6.316-.926c-.188-1.115.558-2.047 1.672-2.23s2.04.556 2.23 1.667c.184 1.118-.56 2.047-1.672 2.232h-.188c-1.117.002-1.86-.554-2.043-1.67m6.314-.75c-.188-1.114.558-2.04 1.673-2.226s2.043.563 2.23 1.673c.187 1.118-.558 2.044-1.674 2.228h-.185c-1.115 0-1.862-.744-2.045-1.675m6.5-.926c-.188-1.114.557-2.045 1.672-2.23s2.043.558 2.23 1.673-.558 2.047-1.67 2.23h-.188c-1.1.001-2.042-.748-2.042-1.674m6.315-.928c-.184-1.112.56-2.042 1.676-2.23s2.042.56 2.23 1.67-.56 2.04-1.674 2.23h-.2c-1.112.003-1.858-.744-2.043-1.672m6.317-.927c-.188-1.117.556-2.043 1.67-2.232s2.042.56 2.23 1.676-.556 2.04-1.67 2.224h-.188c-1.117.002-1.855-.74-2.043-1.668m6.318-.93c-.188-1.116.558-2.04 1.667-2.23 1.115-.2 2.044.562 2.232 1.67.183 1.115-.56 2.043-1.675 2.232h-.185c-.926.001-1.857-.56-2.04-1.672m6.5-.746c-.187-1.1.558-2.038 1.67-2.226 1.118-.186 2.045.553 2.23 1.667s-.557 2.043-1.674 2.23h-.184c-1.117-.18-1.86-.743-2.042-1.672m6.312-.927c-.185-1.1.56-2.044 1.673-2.23s2.045.56 2.227 1.674c.188 1.117-.557 2.043-1.67 2.23h-.188c-1.113-.001-1.855-.747-2.043-1.674m6.32-.93c-.188-1.115.558-2.04 1.672-2.23s2.043.555 2.23 1.673-.557 2.04-1.675 2.226h-.184c-.93 0-1.864-.74-2.044-1.67m6.5-.927c-.185-1.113.557-2.04 1.675-2.23s2.043.556 2.225 1.67c.188 1.116-.557 2.05-1.672 2.23h-.184c-1.115-.001-2.044-.746-2.044-1.673m6.317-.93c-.188-1.112.558-2.044 1.672-2.23s2.044.56 2.23 1.672-.558 2.045-1.674 2.232h-.184c-1.118 0-1.863-.745-2.045-1.674m6.312-.928c-.184-1.117.558-2.047 1.675-2.23s2.043.563 2.228 1.673c.188 1.117-.558 2.045-1.67 2.23h-.188c-1.115-.004-1.857-.563-2.045-1.673m6.503-.743c-.188-1.114.56-2.042 1.675-2.226s2.042.557 2.228 1.666c.184 1.118-.56 2.046-1.67 2.23h-.188c-1.114.001-2.045-.744-2.045-1.67m6.317-.932c-.184-1.114.556-2.045 1.67-2.23s2.042.556 2.227 1.67-.556 2.05-1.667 2.23h-.188c-1.114.005-1.86-.738-2.042-1.67m6.315-.93c-.188-1.115.557-2.038 1.67-2.23s2.045.56 2.232 1.677c.183 1.1-.558 2.04-1.675 2.22h-.185c-1.115.001-1.858-.74-2.043-1.668m6.503-.928c-.188-1.1.557-2.045 1.67-2.227 1.117-.2 2.044.556 2.23 1.67s-.557 2.04-1.674 2.228h-.37c-.93 0-1.856-.744-1.856-1.672m6.312-.928c-.184-1.117.56-2.045 1.674-2.232s2.044.556 2.226 1.674c.188 1.115-.554 2.042-1.668 2.23h-.188a2.02 2.02 0 0 1-2.044-1.671m6.318-.743c-.188-1.112.557-2.04 1.67-2.23s2.043.562 2.23 1.674-.558 2.04-1.67 2.227h-.188c-1.117-.2-1.855-.742-2.043-1.672m6.315-.93c-.188-1.1.558-2.04 1.672-2.23s2.044.56 2.23 1.674-.56 2.046-1.673 2.23h-.185c-.93-.001-1.86-.744-2.045-1.674m6.503-.924c-.188-1.116.558-2.043 1.672-2.23s2.042.56 2.23 1.67-.558 2.04-1.674 2.226h-.184c-1.116.001-2.043-.742-2.043-1.666m6.312-.93c-.188-1.118.557-2.046 1.675-2.23s2.043.56 2.228 1.672-.557 2.046-1.67 2.232h-.188c-1.115-.002-1.857-.744-2.045-1.675m6.315-.93c-.184-1.116.56-2.042 1.67-2.23s2.043.556 2.23 1.67-.556 2.042-1.67 2.232h-.188c-.926.001-1.86-.743-2.044-1.673m6.504-.928c-.188-1.115.556-2.04 1.673-2.23 1.114-.184 2.04.557 2.225 1.674s-.556 2.04-1.668 2.226h-.188c-1.114 0-2.042-.558-2.042-1.67m6.316-.742c-.188-1.116.558-2.05 1.67-2.226 1.114-.188 2.044.556 2.232 1.667s-.56 2.046-1.676 2.232h-.185c-1.113-.192-1.856-.742-2.04-1.673m6.315-.93c-.187-1.117.558-2.04 1.673-2.227s2.042.56 2.23 1.67c.188 1.116-.557 2.04-1.67 2.23h-.188c-1.112 0-1.856-.742-2.043-1.673m6.5-.93c-.185-1.1.558-2.04 1.675-2.227s2.042.556 2.226 1.67-.556 2.045-1.672 2.23h-.188c-1.1.001-2.04-.745-2.04-1.675m6.32-.928c-.2-1.113.558-2.045 1.67-2.23s2.043.563 2.23 1.673c.188 1.117-.557 2.047-1.675 2.23h-.186c-1.114-.001-1.856-.745-2.04-1.673m6.3-.93c-.185-1.116.56-2.04 1.675-2.225s2.04.56 2.227 1.67-.558 2.046-1.67 2.225h-.187c-1.117 0-1.858-.74-2.046-1.67m6.318-.93c-.188-1.114.558-2.043 1.668-2.225 1.117-.188 2.047.56 2.23 1.672s-.558 2.043-1.672 2.23h-.184c-.926.001-1.854-.562-2.04-1.676m6.5-.738c-.188-1.116.558-2.047 1.675-2.232s2.043.563 2.226 1.677-.558 2.043-1.67 2.225h-.184c-1.116-.002-2.046-.746-2.046-1.67m6.316-.93c-.185-1.118.56-2.05 1.67-2.232s2.042.563 2.23 1.673c.185 1.117-.56 2.04-1.67 2.226h-.185c-1.116 0-1.862-.738-2.045-1.667m6.32-.932c-.188-1.116.558-2.04 1.67-2.227s2.045.56 2.23 1.67-.562 2.046-1.673 2.23h-.188c-.925.001-1.853-.74-2.038-1.673m6.497-.928c-.185-1.1.56-2.043 1.67-2.23s2.045.555 2.233 1.673c.185 1.1-.562 2.043-1.676 2.228h-.182c-1.115 0-2.045-.744-2.045-1.672m6.318-.927c-.187-1.115.558-2.046 1.673-2.23 1.114-.2 2.042.556 2.23 1.674.188 1.1-.56 2.04-1.67 2.225h-.188c-1.113-.001-1.858-.553-2.044-1.67m6.317-.746c-.2-1.114.557-2.04 1.668-2.227s2.045.553 2.23 1.672-.56 2.038-1.676 2.23h-.184c-1.116-.2-1.854-.744-2.04-1.674m6.5-.93c-.187-1.1.558-2.038 1.673-2.226s2.04.554 2.23 1.67-.56 2.047-1.676 2.23h-.188c-1.1.002-2.038-.744-2.038-1.674m6.315-.93c-.187-1.108.56-2.04 1.674-2.227s2.04.56 2.223 1.676-.553 2.04-1.667 2.228h-.187a2.02 2.02 0 0 1-2.043-1.677m6.315-.927c-.186-1.114.56-2.045 1.675-2.23s2.045.557 2.228 1.674c.2 1.114-.556 2.045-1.667 2.23h-.187a2.03 2.03 0 0 1-2.049-1.674m6.316-.928c-.184-1.1.56-2.04 1.673-2.225s2.043.557 2.23 1.667c.185 1.116-.56 2.045-1.673 2.232h-.187c-.925.001-1.857-.746-2.042-1.674m6.504-.927c-.187-1.118.557-2.046 1.667-2.23 1.117-.187 2.046.56 2.23 1.674.2 1.1-.556 2.042-1.666 2.23h-.2c-1.113 0-2.04-.56-2.04-1.674m6.314-.745c-.186-1.112.56-2.044 1.668-2.23 1.118-.187 2.048.56 2.234 1.673s-.56 2.043-1.673 2.23h-.188a2.02 2.02 0 0 1-2.041-1.673m6.317-.925c-.188-1.116.56-2.043 1.673-2.23s2.04.56 2.23 1.67-.56 2.04-1.672 2.23h-.2c-.93.001-1.86-.744-2.04-1.67m6.5-.932c-.188-1.118.56-2.04 1.673-2.227s2.043.556 2.226 1.67c.2 1.115-.556 2.043-1.667 2.23h-.188c-1.113 0-2.044-.74-2.044-1.673m6.315-.93c-.186-1.114.56-2.04 1.67-2.228 1.116-.187 2.047.56 2.233 1.672s-.56 2.04-1.677 2.23H408c-1.108.003-1.853-.744-2.04-1.673m6.315-.926c-.187-1.113.56-2.04 1.677-2.23s2.04.555 2.224 1.67-.557 2.04-1.67 2.23h-.186c-1.112.001-1.857-.745-2.044-1.67m6.5-.743c-.186-1.115.557-2.043 1.674-2.232s2.042.556 2.223 1.674c.2 1.114-.553 2.04-1.666 2.228h-.373c-.93-.2-1.858-.744-1.858-1.67m6.317-.932c-.187-1.112.556-2.04 1.673-2.23 1.117-.183 2.046.56 2.23 1.675.2 1.116-.556 2.042-1.666 2.23h-.374c-.935.001-1.677-.742-1.862-1.674m6.314-.93c-.184-1.1.56-2.042 1.673-2.23s2.044.56 2.23 1.668c.183 1.116-.564 2.05-1.675 2.235h-.186c-1.113.001-1.854-.745-2.042-1.674m6.32-.925c-.187-1.114.555-2.042 1.666-2.23 1.118-.184 2.05.557 2.232 1.673s-.562 2.046-1.673 2.23h-.187c-.924 0-1.853-.746-2.038-1.67m6.502-.932c-.187-1.1.56-2.04 1.666-2.225 1.12-.188 2.046.557 2.235 1.673s-.56 2.04-1.672 2.227h-.2c-1.1 0-2.04-.743-2.04-1.675m6.314-.93c-.2-1.114.556-2.04 1.668-2.226s2.045.556 2.23 1.667c.2 1.117-.56 2.042-1.673 2.23h-.184c-1.115.007-1.857-.553-2.04-1.67m6.315-.738c-.187-1.115.556-2.047 1.672-2.232s2.04.56 2.224 1.677c.192 1.114-.553 2.042-1.67 2.225h-.188c-.927-.001-1.852-.744-2.038-1.67m6.5-.928c-.186-1.118.56-2.043 1.67-2.233 1.116-.184 2.047.563 2.232 1.674s-.558 2.046-1.677 2.23h-.186c-1.108-.004-2.04-.742-2.04-1.67m6.316-.932c-.186-1.112.56-2.04 1.676-2.226 1.1-.2 2.04.556 2.227 1.67s-.56 2.04-1.67 2.23h-.182a2.02 2.02 0 0 1-2.05-1.673m6.32-.93c-.2-1.114.556-2.042 1.666-2.23 1.117-.2 2.04.56 2.23 1.673s-.56 2.043-1.672 2.224h-.37c-.926.006-1.672-.74-1.855-1.668m6.498-.928c-.188-1.114.56-2.046 1.672-2.23 1.12-.184 2.045.562 2.23 1.673s-.56 2.046-1.674 2.23h-.184c-1.116-.003-2.044-.745-2.044-1.673"/><path d="M490.662 339.7c-.553 0-.93-.188-1.3-.56a2.02 2.02 0 0 1-.56-1.3c0-.56.187-.932.56-1.3.746-.744 2.044-.744 2.782 0 .376.367.563.927.563 1.3 0 .56-.188.928-.563 1.3-.55.37-.924.56-1.483.56M68.266 215.423c-.188-1.118.558-2.046 1.67-2.227 1.115-.187 2.045.557 2.23 1.667.184 1.118-.558 2.043-1.675 2.232h-.188c-1.1-.004-1.854-.743-2.036-1.672m6.312-.93c-.188-1.117.557-2.043 1.674-2.232 1.113-.183 2.04.56 2.228 1.673s-.557 2.047-1.67 2.23h-.188c-1.113.005-1.855-.74-2.043-1.67m6.317-.93c-.188-1.1.558-2.04 1.67-2.23 1.116-.183 2.043.562 2.23 1.673s-.558 2.047-1.676 2.232h-.182a2.02 2.02 0 0 1-2.042-1.676m6.5-.923c-.188-1.117.557-2.048 1.67-2.234s2.043.558 2.228 1.673-.557 2.04-1.667 2.23h-.188c-1.114-.001-2.044-.745-2.044-1.668m6.315-.93c-.185-1.118.56-2.043 1.675-2.232s2.043.562 2.23 1.674-.56 2.046-1.674 2.23h-.188c-1.114-.001-2.044-.557-2.044-1.67m6.316-.746c-.188-1.115.556-2.042 1.67-2.23s2.043.56 2.23 1.673-.556 2.046-1.67 2.234h-.188c-1.117-.185-1.856-.744-2.043-1.676m6.312-.924c-.184-1.115.56-2.046 1.674-2.23s2.044.556 2.228 1.673c.187 1.1-.553 2.04-1.67 2.23h-.373c-.926-.003-1.667-.75-1.858-1.673m6.32-.93c-.185-1.118.557-2.046 1.673-2.235s2.042.558 2.227 1.677c.187 1.113-.557 2.04-1.672 2.226h-.373c-.927-.001-1.668-.74-1.855-1.668m6.318-.93c-.188-1.114.558-2.042 1.67-2.227s2.044.557 2.232 1.668c.185 1.118-.56 2.045-1.675 2.235h-.184c-.932.001-1.862-.745-2.043-1.676m6.5-.926c-.188-1.117.557-2.047 1.667-2.232 1.118-.186 2.045.56 2.232 1.67.188 1.118-.558 2.045-1.675 2.23h-.183c-1.115.001-2.04-.744-2.04-1.67m6.315-.744c-.188-1.115.56-2.046 1.674-2.23s2.043.558 2.225 1.675c.188 1.112-.554 2.04-1.67 2.227h-.184c-1.114-.187-1.856-.747-2.044-1.67m6.314-.93c-.187-1.117.558-2.046 1.673-2.23s2.043.56 2.227 1.67c.188 1.116-.556 2.044-1.667 2.232h-.187a2.02 2.02 0 0 1-2.046-1.672m6.315-.932c-.184-1.115.56-2.04 1.672-2.226s2.042.556 2.23 1.667c.185 1.117-.56 2.047-1.674 2.23h-.184c-1.115.001-1.86-.738-2.045-1.67m6.318-.924c-.188-1.115.556-2.046 1.667-2.232 1.118-.186 2.043.56 2.23 1.676s-.557 2.04-1.67 2.227h-.187c-.927-.001-1.854-.747-2.04-1.67m6.5-.935c-.187-1.1.56-2.043 1.674-2.223 1.115-.188 2.044.556 2.225 1.67.188 1.115-.552 2.043-1.667 2.232h-.188c-1.112-.006-2.044-.745-2.044-1.68m6.318-.74c-.188-1.118.557-2.046 1.67-2.227s2.044.556 2.23 1.67-.557 2.042-1.672 2.232h-.188c-1.113-.2-1.853-.746-2.04-1.675m6.316-.928c-.187-1.118.554-2.043 1.67-2.23s2.045.556 2.232 1.673-.56 2.043-1.675 2.223h-.188c-1.1 0-1.855-.74-2.04-1.667m6.315-.928c-.188-1.116.558-2.046 1.67-2.23 1.118-.184 2.045.556 2.23 1.673.187 1.1-.557 2.04-1.672 2.227h-.188a2.02 2.02 0 0 1-2.04-1.671m6.314-.928c-.184-1.118.558-2.046 1.675-2.23 1.113-.2 2.043.556 2.23 1.67s-.56 2.04-1.675 2.227h-.186a2.18 2.18 0 0 1-2.045-1.668m6.5-.932c-.185-1.114.56-2.043 1.672-2.227s2.043.56 2.23 1.674-.558 2.043-1.67 2.224h-.185c-1.117-.001-2.047-.74-2.047-1.67m6.32-.932c-.184-1.1.558-2.04 1.676-2.223 1.114-.2 2.042.556 2.225 1.67s-.558 2.043-1.67 2.23h-.188c-1.113-.001-2.043-.56-2.043-1.677m6.314-.735c-.186-1.118.558-2.05 1.673-2.232s2.043.556 2.228 1.673-.558 2.04-1.67 2.227h-.185c-1.118-.001-1.86-.747-2.046-1.668m6.314-.932c-.185-1.117.556-2.046 1.673-2.23s2.045.56 2.225 1.674c.188 1.115-.556 2.043-1.667 2.223H210c-1.112 0-1.855-.735-2.043-1.667m6.32-.93c-.188-1.115.558-2.043 1.673-2.227s2.045.556 2.23 1.667c.188 1.117-.56 2.046-1.674 2.23h-.185c-1.115.004-1.862-.738-2.043-1.67m6.5-.926c-.188-1.118.558-2.045 1.673-2.23s2.044.556 2.227 1.673c.188 1.114-.558 2.04-1.672 2.226h-.188c-1.1.001-2.04-.744-2.04-1.67m6.32-.928c-.188-1.117.558-2.046 1.67-2.23s2.044.556 2.232 1.673-.557 2.043-1.674 2.224h-.185c-1.117 0-2.043-.556-2.043-1.668m6.312-.745c-.188-1.118.557-2.046 1.67-2.23s2.04.558 2.23 1.67c.184 1.115-.56 2.043-1.67 2.226h-.188c-1.113.005-1.855-.74-2.043-1.668m6.317-.93c-.187-1.115.558-2.04 1.67-2.227s2.043.56 2.23 1.674-.558 2.043-1.673 2.23h-.184c-1.115 0-1.858-.745-2.043-1.676m6.316-.926c-.185-1.115.56-2.046 1.675-2.23s2.043.556 2.225 1.674c.188 1.115-.557 2.045-1.67 2.23h-.188a2.02 2.02 0 0 1-2.04-1.674m6.315-.928c-.187-1.118.557-2.047 1.67-2.23 1.118-.2 2.043.556 2.23 1.667.187 1.117-.556 2.042-1.674 2.23h-.185c-.928 0-1.858-.74-2.043-1.667m6.5-.928c-.187-1.118.556-2.043 1.67-2.23s2.043.556 2.23 1.673-.556 2.043-1.67 2.227h-.188c-1.112-.004-2.043-.56-2.043-1.67m6.318-.746c-.188-1.115.553-2.043 1.67-2.23s2.045.56 2.23 1.673-.56 2.043-1.676 2.23h-.37c-.93.001-1.672-.744-1.855-1.673m6.313-.928c-.185-1.115.557-2.04 1.673-2.226s2.044.56 2.227 1.67-.557 2.046-1.67 2.23h-.188a2.02 2.02 0 0 1-2.043-1.673m6.318-.928c-.188-1.118.557-2.043 1.67-2.23s2.045.556 2.232 1.67-.562 2.04-1.675 2.227h-.188a2.01 2.01 0 0 1-2.039-1.669m6.3-.93c-.186-1.115.56-2.043 1.675-2.23s2.043.556 2.23 1.674c.187 1.1-.558 2.042-1.673 2.226h-.188c-.927 0-1.857-.742-2.043-1.67m6.504-.934c-.187-1.1.562-2.04 1.67-2.223 1.114-.2 2.043.556 2.23 1.667.185 1.117-.56 2.046-1.675 2.232h-.188c-1.114 0-2.038-.558-2.038-1.676m6.315-.74c-.188-1.114.557-2.04 1.672-2.23s2.04.556 2.227 1.673-.557 2.04-1.67 2.227h-.185c-1.115-.18-2.045-.743-2.045-1.67m6.313-.928c-.185-1.112.562-2.043 1.675-2.23s2.04.558 2.23 1.673-.558 2.043-1.672 2.223h-.186a2.02 2.02 0 0 1-2.046-1.667m6.32-.928c-.188-1.115.556-2.04 1.674-2.23 1.114-.183 2.042.563 2.225 1.673s-.557 2.043-1.67 2.23h-.186c-1.112-.003-1.855-.745-2.042-1.673m6.314-.93c-.185-1.115.56-2.047 1.67-2.232s2.045.56 2.228 1.67c.186 1.118-.556 2.045-1.672 2.23h-.185a2.01 2.01 0 0 1-2.04-1.67m6.318-.932c-.188-1.115.56-2.042 1.67-2.226s2.042.553 2.228 1.67-.558 2.043-1.67 2.232h-.188c-.93.001-1.856-.56-2.04-1.676m6.5-.74c-.185-1.112.56-2.043 1.67-2.23 1.116-.186 2.047.56 2.23 1.673s-.56 2.043-1.675 2.23h-.188c-1.108-.186-2.038-.742-2.038-1.673m6.315-.93c-.188-1.114.557-2.04 1.672-2.23 1.113-.184 2.038.558 2.228 1.673s-.558 2.045-1.67 2.23h-.188c-1.116-.003-1.86-.744-2.043-1.673m6.313-.93c-.184-1.115.563-2.046 1.673-2.23s2.044.56 2.23 1.673-.56 2.043-1.674 2.23h-.187c-1.1.003-1.855-.742-2.04-1.67m6.315-.93c-.186-1.114.56-2.042 1.675-2.226s2.04.556 2.23 1.67-.556 2.043-1.668 2.227h-.186c-1.116.005-1.86-.74-2.05-1.672m6.315-.924c-.184-1.118.562-2.047 1.675-2.232s2.044.558 2.227 1.676-.558 2.04-1.666 2.227h-.187c-.93-.001-1.86-.558-2.05-1.67m6.506-.745c-.185-1.115.556-2.043 1.672-2.23s2.046.556 2.226 1.673c.188 1.112-.555 2.043-1.67 2.23h-.183c-1.118-.004-2.045-.745-2.045-1.673m6.313-.93c-.186-1.112.558-2.04 1.675-2.227 1.1-.187 2.043.56 2.23 1.67s-.56 2.046-1.674 2.23h-.2c-1.112 0-2.04-.745-2.04-1.674m6.316-.93c-.187-1.1.56-2.042 1.666-2.23 1.118-.2 2.048.556 2.234 1.67s-.56 2.04-1.67 2.226h-.2c-1.1.008-1.853-.738-2.04-1.667m6.315-.928c-.183-1.115.56-2.043 1.674-2.23s2.046.555 2.23 1.673c.2 1.112-.556 2.04-1.673 2.227h-.2a2.02 2.02 0 0 1-2.041-1.671m6.316-.934c-.188-1.112.56-2.04 1.672-2.224 1.112-.2 2.04.555 2.23 1.67s-.56 2.043-1.674 2.232h-.188c-1.1.001-1.853-.56-2.04-1.678m6.314-.923c-.183-1.118.563-2.043 1.677-2.23s2.038.558 2.226 1.673-.56 2.043-1.667 2.23h-.186c-.93.001-1.863-.562-2.05-1.674m6.504-.745c-.188-1.118.557-2.042 1.675-2.23s2.038.56 2.226 1.674-.56 2.043-1.673 2.224h-.187c-1.113-.001-2.04-.74-2.04-1.67m6.317-.925c-.184-1.117.556-2.042 1.672-2.227s2.047.557 2.227 1.667c.187 1.117-.56 2.046-1.67 2.23h-.183c-1.118-.001-1.863-.746-2.045-1.67m6.314-.932c-.184-1.115.562-2.04 1.673-2.23 1.117-.188 2.04.556 2.23 1.67.183 1.118-.56 2.043-1.67 2.23h-.187c-1.117.002-1.86-.74-2.045-1.672m6.315-.93c-.186-1.115.556-2.04 1.674-2.226 1.112-.186 2.043.556 2.23 1.673.184 1.1-.56 2.043-1.674 2.223h-.188a2.01 2.01 0 0 1-2.04-1.67m6.315-.922c-.187-1.117.56-2.048 1.674-2.232s2.04.555 2.23 1.673-.56 2.04-1.676 2.227h-.187c-.925-.001-1.853-.56-2.04-1.668m6.504-.748c-.2-1.115.556-2.04 1.67-2.223s2.043.556 2.23 1.667c.187 1.117-.56 2.047-1.67 2.23h-.2c-1.112-.003-2.04-.745-2.04-1.673m6.316-.928c-.2-1.1.556-2.04 1.67-2.23 1.115-.183 2.044.562 2.232 1.674s-.555 2.045-1.673 2.232h-.373c-.927-.001-1.67-.75-1.855-1.677m6.314-.93c-.188-1.115.557-2.043 1.675-2.227s2.04.558 2.226 1.674-.56 2.042-1.67 2.23h-.37c-.934 0-1.678-.745-1.862-1.676m6.315-.926c-.188-1.118.557-2.046 1.673-2.23s2.04.562 2.228 1.673c.185 1.118-.56 2.04-1.675 2.227h-.186c-1.1 0-1.856-.745-2.04-1.67m6.316-.742c-.182-1.118.563-2.043 1.674-2.23s2.04.56 2.23 1.673c.183 1.1-.563 2.043-1.674 2.226h-.2c-.925-.182-1.857-.736-2.04-1.668m6.5-.93c-.184-1.115.56-2.04 1.676-2.23 1.116-.183 2.043.562 2.23 1.67.186 1.115-.562 2.043-1.673 2.23h-.187c-1.116.003-2.047-.74-2.047-1.67m6.317-.923c-.186-1.118.557-2.045 1.67-2.234s2.043.56 2.23 1.676-.557 2.04-1.674 2.227h-.187c-1.1-.002-2.038-.746-2.038-1.67m6.318-.935c-.2-1.115.556-2.045 1.67-2.23s2.043.557 2.232 1.673-.556 2.04-1.673 2.226h-.2c-1.115.001-1.856-.735-2.04-1.67m6.312-.927c-.186-1.117.56-2.047 1.673-2.226 1.115-.186 2.043.56 2.23 1.67s-.56 2.046-1.67 2.23h-.188c-1.1 0-1.858-.746-2.044-1.673m6.316-.928c-.187-1.118.56-2.043 1.67-2.23 1.117-.184 2.046.562 2.23 1.676.2 1.115-.556 2.04-1.673 2.226h-.184c-1.1-.001-1.856-.562-2.042-1.673M185.66 349.35l-.56 1.853-.925 2.416 2.97-.37-.93-2.23c-.372-.746-.554-1.67-.554-1.67m156.402-22.85l-2.045.2v2.778l2.045-.373c1.117-.186 1.482-.93 1.482-1.666.001-.365-.365-1.112-1.482-.928m-239.248 35.666v1.483c.186 0 .557 0 .746-.187l-.746-1.296zm156.4-18.387c0 .743.746 1.3 1.86 1.1 1.302-.186 2.043-.742 2.043-2.225v-.93l-2.043.372c-1.3.178-1.86.923-1.86 1.67m42.54-11.705l-2.415.374v6.685l2.415-.374c1.67-.2 3.154-1.673 3.154-3.718.188-2.035-1.3-3.153-3.154-2.967m117.578-28.602h.375l-1.114.185h.183c.186-.185.372-.185.556-.185M135.32 374.24c-.185-.186-.373 0-.557.185l1.114-.185h-.188c-.185.185-.37 0-.37 0"/><path d="M501.998 319.256c0-.187 0-.187 0 0h.186l-5.4-6.315h-.743c-.37-.186-.183-.744 0-.93l-2.784-3.34.186.184s-.186 0-.186-.184l5.017-7.246v-.368h.184l.934-1.305v-.187c0-.188.185-.188.367-.188l.745-1.114v-.188h.19l.556-.74c0-.19 0-.19.19-.19l2.04-3.158h-.183c.183-.367.183-.367.365-.367l1.49-2.23-85.08 11.89c0 .187 0 .187-.186.37-.188.375-.56.56-.93.56-.2-.372-.373-.372-.373-.744l-8.917 1.3-255.962 36.033-.187.19h-.188l-12.445 1.674c-.37.37-.556.928-1.116.928l.745-.744-31.95 4.46v.374c-.188.373-.745.373-1.302.373-.188 0-.373-.187-.188-.373.188-.192.56-.192.745-.192h.188l-9.472 1.302c.188 0 .188.188.188.372l.188-.186c.556-.187.184.186 0 .186-.188.19-.558.19-.746 0v-.372l-5.2.745v.19h-.372l-15.79 2.23-.188.186h-1.113l-18.392 2.604c-.188.37-.743.37-1.3.183l6.5 7.618h.372c0 .184 0 .37-.187.37l-.373-.37 5.2 6.13-5.758 8.354-3.718 5.387v.188h-.184v-.188l-2.416 3.348 4.273-.563h.184l3.53-.556v-.19c.188-.187.376 0 .376.19l1.298-.19v-.187h.185l27.492-3.9h-.188c0-.187.373-.187.373 0l9.842-1.3s.187-.188.373-.188v.188l28.79-4.09c0-.187.188-.187.372-.187 0-.186.188-.37.188-.186l-.188.188v.2l1.486-.2c.184-.188.184-.188.184-.37.184 0 .184-.185 0-.185 0-.372.372-.744.56-.93s-.187-.376-.375-.56c.375.184.746 0 1.117-.372-.188.746-.188 1.3-.74 1.672.184 0 .554.186.554.558.188-.187.373-.372.93-.558 0 0 0 .37-.188.558 0 0-.185 0-.185.186l54.797-7.61c0-.2.37-.2.558-.2v.2l137.456-19.318-.93.186c0-.745.558-1.3 1.86-.932.188.187.373.372.373.563l4.457-.563c0-.184.185-.184.185 0l34.924-4.83c-.187-.184-.187-.557.185-.744.375 0 .375.374.375.744h-.193l25.82-3.713c-.373 0-.925-.2-1.115-.557.2-.188.742.184 1.3.184.184 0 .556 0 .373.183h-.19l21.177-2.968c0-.188.187-.188.187-.372.19 0 .373.188.373.372l20.25-2.8h-.188s.373 0 .373-.184l29.902-4.83c0-.56.745-.745.932-.186l20.798-2.97h.2l11.33-1.67c0-.188.187-.188.187-.188v.188l1.3-.188h-.19v-.187c.375-.372.56 0 .747 0l1.487-.188c.186-.184.186-.184.186 0h.187l-2.785-3.342c.002.375.002.747-.182.375m2.04-26.562c0 .185-.184.185-.184.37h-.375v-.56c.188.001.376.19.56.19m-1.673-.562v.374h-.366v-.374h.366m-.926 2.602v-.555c.56-.183.56.746 0 .555m-.93.563c-.93.184-.744-1.117-.186-1.117 0 .554 0 .554.186 1.117m-.555-2.418c.555.56-.374.932 0 0M59.347 380.557c.188-.745 0 .928 0 0m-1.3 3.902c.19-.745.19.556 0 0m-.37-1.49c.372 0 .745-.186.745-.368.373.183.373.924 1.298.555-.184.742-1.86.56-2.043-.187m3.53-5.196h.188v.37h-.372c.184-.188.184-.188.184-.37zm-.188 2.413c.372 0 .188.746-.185.372.185-.2.185-.2.185-.372m-.74 1.3c.37 0 .37.19.185.562H60.1c0-.372.188-.372.188-.562m.185 2.04v-.557h.558v.557h-.558m.555.373c0-.19.188-.373.188-.556.188 0 .188.366.372.366 0 .2-.372.2-.56.2m.56-6.504c.37-.74.37.38 0 0m.37 6.693v-.378c.373-.187.373.19.373.56-.19.003-.19-.18-.373-.18m.372-2.045v-.373h.372v.373h-.372m0-5.2c-.56-.745.928-.745 0 0m.556.37c.184-.557.557.562 0 0m.93.375c.188.188 0 .56-.372.56-.373-.19.188-.372.372-.56m.185 1.112c-.187 0-.187-.373-.37-.373.001-.552.743.004.37.373m28.42-18.4v.377c-.743.183-.37-.93 0-.377m-4.457-5.756c.188-.187.558 0 .375.373-.375 0-.562-.188-.375-.373m-1.486-2.42c.186-.367.56 0 .744.19.187.373-.373.373-.373 0-.185.184-.555 0-.37-.19m-4.832 7.243h.745c.188.563-.555.2-.745.2v-.2zm.56 3.344s-.372.188-.372 0 .184-.186.184-.368c.188-.184.188.188.188.368m0 1.863c.557-.56-.37.56 0 0m.185 2.04c-.37.186-.745.186-.745-.37.376-.184.745 0 .745.37m.184 2.787v.37h-.37v-.37h.37m-1.483-14.674c-.185-.187-.373-.187-.746-.187 0-.185.93-.185.746.187m-1.67 7.803c-.188-.745.743-.928.925-.372l.188.19c.376.183 0 .366-.188.183 0 0-.184 0-.184-.183v.183c-.374.18-.557.18-.74 0m.367 2.97h-.37v-.373h.37v.373m-.183-7.242c.372-.186.74-.186.74.373-.37.182-.74-.002-.74-.373m.56-3.162c.37-.554-.376.56 0 0m0-1.3c.185.2-.37.373-.37.745-.188 0-.373 0-.56-.187-.185-.368-.185-.743-.37-.93.557.188.924.188 1.3.373m-1.488 8.177H78.3v-.372h.375v.372m-1.672-7.06c-.37.74.185-.93 0 0m-.184 8.168c.557.187.37 1.304 0 1.857-.93-.367-.372-1.11 0-1.857m-.372 5.947v-.557c.372-.188.556.74 0 .557m-.558-7.428c-.372-.56 0-.56 0-1.118.558.19 1.114 1.118 0 1.118m.374-6.875c-.93-.372.74.37 0 0m0 2.973v.372h-.56v-.372h.56m-1.86-5.204c.188 0 .56-.19.373.19a.4.4 0 0 1-.373.366v-.555zm-.37 10.773c0 .187-.188.374-.375.374-.183-.187-.001-.374.375-.374m-1.302-9.472c.188-.185.556.2.556.373s-.188.563-.37.372-.373-.557-.185-.745m.744 6.315c-.375.186-.928.186-1.3.186-.188-1.115 1.482-1.485 1.3-.186m-.376 3.9c.558-.557-.182.56 0 0m-1.667-10.96v-.556c.37-.184.37.745 0 .556m.555 1.675c.188.188.37.37.188.554-.188-.185-.558-.74-.93-.554.187-.372.556-.185.742 0m-.37 16.72c0-.188.37-.188.558-.188-.188.188-.374.188-.558.188m.37 5.384v.37h-.37v-.37h.37m-.186-14.3v.557h-.558v-.557h.558m-.745-1.114c-.185-.56.376-.376.56-.376.185.188-.184.376-.56.376m.56 4.084c.558-.186.184.37.184.562-.557.366-.184-.38-.184-.562m-.185-8.547c0 .188-.188 0-.376 0 0-.185.376-.185.376 0m-.745-3.156c.37-.372.37 0 .37.2-.183.368-.557-.002-.37-.2m-1.855 7.43c.185-.188.37-.188.745-.188.368.934-.934 1.118-.745.188m-.19 9.475c0-.19.188-.19.558-.19.188 0 .56 0 .375.373l-.933-.184zm-.186.56c.186-.75.186.552 0 0m.556-13.75c.373-.372 0 .37 0 .37-.185.19-.185.563-.185.563-.187 0-.375 0-.557-.188.186.001.372-.374.742-.744m-.926 0c.188 0 .188-.186.37-.186 0 .186.187.186.187.372-.187 0-.187.183-.37.183 0-.182 0-.182-.188-.37m.745 1.67c.18-.554.37.746 0 0m.18 10.218c.373 0 .373.184.373.556h-.746c.003-.372.373-.372.373-.556m.373-9.29h-.373v-.372h.373v.372m-.93-3.53c-.185-.56.375-.56.557-.372.187.372-.182.372-.557.372m.186-2.97c.188 0 .188-.188.188-.188.184.188 0 .563-.188.745a.57.57 0 0 1-.746 0c-.182-.557.56-.372.746-.557M64 356.777c-.37-.188-.745-.372-.745-.926.56-.186.56.556.745.926m-.93-.56c.188 0 .372.2.372.2.188.19.188.556-.187.373-.185-.19-.553-.374-.185-.563m-.555-1.482c0 .188-.185 0-.372 0 .187-.185.372-.185.372 0m-.185.93c.184 0 .372.187.56.187.182.374-.56.185-.56.56-.742-.193.185-.38 0-.746m-1.114-1.86c.557 0 .188.745-.188.932-.185-.374 0-.56.188-.932m-.743 2.784c.555-.558-.185.56 0 0m-2.042-1.11c-.374.737-.56-.376 0 0m.554.737c-.185 0-.185-.186-.372-.186 0-.18.187-.18.187-.37.185 0 .185.19.37.19-.001.18-.185.18-.185.367m.56 1.49c-.188-.56 0-.932.184-1.117.56-.187.56.372.93.56 0 .187-.184.372-.184.56-.186.37-.374-.19-.93-.002m.928 1.856s.373-.373.558-.2c-.003 0-.743.38-.558.2m.743-3.533h.372v.376h-.372v-.376m.742 3.723s0 .183 0 0c-.188.183-.188.183-.188.366h-.557v-.556c0-.2-.188-.2-.188-.373h.372c.933-.37.56.373.56.563m.184.552c.56-.186 1.113-.186 1.113.56-.74.185-1.297.185-1.113-.56m1.3-2.785h-.372v-.56c.188 0 .372.188.56.188 0 .188-.188.373-.188.373m1.302 5.756c-.187 0-.187-.187-.372-.187s-.188.187-.188.373c-.188 0-.188-.373 0-.373-.188-.186-.372-.186-.372-.56.372.373.372-.37 1.117-.183.185.557 0 .557-.185.93m0-4.268c-.187-.373 0-.373.188-.743.185 0 .373.373.373.56-.19.183-.376.183-.56.183m.557-5.39c.37-.744.186.556 0 0m0 1.86c0-.19.188-.19.188-.376.37-.182.37.185.184.185-.001.19-.372.375-.372.19m.37 1.67c.927 0 0 .93 0 0m.743 3.343v.374c-.743.186-.37-.93 0-.374m0 3.157v-.745c.56-.188.188.562.746.38-.186.365-.562.365-.746.365m1.3-7.06c-.558.56-.558-.558 0 0m.56 2.975c0 .372-.188.372-.188.74h-.745c-.185-.74.557-.55.933-.74m0 3.527c.185.187.37.746 0 .932h-.745c-.185-.374 0-.932.745-.932m-.188 8.548c.188.745 0 .93-.745.93 0-.374-.187-.374-.187-.557.2-.373.56-.373.932-.373m-.557 5.753c0 .38-.188 0-.373.192 0-.192.373-.375.373-.192m-.185-.925c.37-.744.37.557 0 0m-.557 2.788v.183c-.556.188-.556-.367-.373-.555 0-.187.188-.187.188-.373.185.186.185.56.185.745m-.556-7.616c.368 0 .368.19.183.556h-.37c0-.373.187-.373.187-.556m0 7.986c0 .56.183.93-.375.93 0-.372-.185-.372-.185-.56.184-.37.373-.37.56-.37m-2.045-2.973a.57.57 0 0 1 .745 0c.182.557-.56.74-.745 0m.742 2.603c.558-.56-.372.556 0 0m.558 3.898c-.188 0-.376.188-.557.188-.187-.374 0-.56.372-.374.37-.368.554 0 .185.186m0-.554v-.56c.37-.188.37 0 .745.186-.187.373-.376.373-.745.373m.928 1.486h-.37v-.378c.187 0 .37.19.556.19l-.186.19m.373 0zm0-4.274v-.373h.372v.373h-.372m.37 2.045c0-.183.373-.183.558 0s-.558.37-.558 0m.93-3.713h-.372v-.563c.184 0 .372.19.56.19-.188.185-.376.185-.188.374m.188 0c.182-.56.368.74 0 0m.557.367c-.188.187-.375-.187-.375-.367.186 0 .556.184.375.367m.18-3.903h.188c0-.184 0-.554.188-.74.556-.186.744.74.188.74-.003.372-.19.75-.564 0m.932 6.134c-.368 0-.744-.186-.556-.56.373-.185.556.185.556.56m-.183-22.475c.738.37-.376.555 0 0m.552 11.327c.56-.555-.37.558 0 0m.186 12.263c.188 0 .375.19.375.37-.56.184-.56-.185-.375-.37m0-5.204c0-.186.188-.372.188-.56h.37v.56h-.558m-.186-2.413c.745 0 1.306.185 1.306 1.12-.188 0-.188.364-.376.364-.93.001-.93-.743-.93-1.483m1.118 5.945c-.376-.373.557 0 .742.187-.187.74-.373-.187-.742-.187m.923-7.804c-.74-.19.188-1.113.376-.19-.376.003-.376.003-.376.19m.188-5.944c-.188-.558.373-.746.188-1.3.556.373 1.113.556.926 1.482-.558.19-.74.005-1.114-.18m.932.93c.37 0 .37.187.184.56h-.368c-.004-.187.184-.187.184-.56m0 7.99c0-.188.37-.188.558 0 .184.365-.558.365-.558 0m.742-21.182h.746c.37.563-.375.374-.746.374v-.374zm.746 8.542c-.188-.186-.56-.368-.56-.74.56-.184.56.19.56.74m-.376 20.063c-.37-.185 0-.372.187-.372l.188.19c.182.183-.187.37-.375.183m0-1.487c.93.2-.554.746 0 0m.188-8.17v-.374h.372v.374h-.372m0-1.67c.188 0 .372.184.372.367-.56.372-.745 0-.372-.367m.188-16.166v-.366c.184 0 .37 0 .37-.188.188 0 .188.37.188.554-.188.19-.188 0-.557 0m.554 17.648c.185 0 .373 0 .373-.187.373.187.556.187.556.746-.184-.372-.93-.002-.93-.56m.37-3.344v-.373c.373 0 .373-.37.744 0v.373c-.37.186-.37 0-.744 0m.745 4.09c.185-.558.37.557 0 0m.185-3.53c0-.187.37-.187.37 0-.185.188-.185 0-.37 0m.37-5.57c.93.187-.554.927 0 0m0 7.43v-.377h.373v.377h-.373m.373-14.12c.372 0 .742 0 .742.375-.37.187-.742.187-.742-.375m.372 5.014h.37v.38h-.37v-.38m.37 10.777c.373-.558-.37.557 0 0m.562-5.943c-.188 0-.188-.372-.188-.56.188.001.188.187.188.56 0-.185 0 0 0 0m.184-3.344c.372-.558.184.555 0 0m.184 16.716s-.185-.37 0-.37.188.188.188.188c.367 0-.188.365-.188.182m.555-.745c0-.37 0-.745-.186-.93h.74c0 .373.372.373.188.74-.185-.18-.185.2-.743.2m1.118-1.856l-.188-.187c.001-.18.374.004.188.187m0-18.204c.93-.37.558 1.118 0 0m.558 9.103v-.19h.558c.37.373-.376.19-.558.19m.742 11.702c0-.183-.188-.183-.188-.37.188 0 .188-.186.37-.186 0 .186.188.186.188.373-.001.001-.185.001-.37.183m.37-10.4v-.372h.375v.372h-.375m.376-7.247v.373c-.745.184-.376-.932 0-.373m.368 10.6c.373-.745.373.553 0 0m.558.74c.372 0 .557 0 .557.378-.37.185-.557 0-.557-.378m1.86-16.158v.556h-.56v-.556c.375.184.375 0 .56 0m0 12.446c-.372-.2-.56-.374-.372-.746h.558c-.001.374-.001.556-.186.746m.928-4.46c0 .186-.368.372-.368.186l.184-.186c-.002-.555.184-.186.184 0m0-12.446c-.368.188-.186-.37-.186-.37l.186-.187c.185.002 0 .375 0 .558m.185 10.965c-.188-.373.373-.2.373-.56.187 0 .187.37.187.56-.187-.19-.372 0-.56 0m.373-.936v-.556h.558v.556h-.558m.185-7.43c0-.188.188-.188.37-.188.188 0 .56 0 .376.188-.375.373-.745.373-.745 0m.745 14.307c-.188-.2 0-.2 0-.374.37-1.116.554 1.113 0 .374m.185-14.677c.184-.555.184.555 0 0m.37 13.56h.746c.188.374 0 .374-.188.746-.558-.2-.558-.372-.558-.746m.557 2.972c-.184 0-.184-.187-.184-.37.184 0 .373 0 .56.183-.001-.001-.001.373-.377.186m.376-2.416c0-.183.368-.183.368 0 0 .2-.186-.182-.368 0m.925-8.54c0 .184-.37.37-.37.184l.184-.184c0-.372.373-.19.185 0m1.676 8.54s-.56.19-.376 0c0-.183.188-.183.188-.37.37-.186.37.37.188.37m.18-4.83v-.368h.373v.368H92.4m5.203-12.814c.557-.556-.372.557 0 0m-3.53 4.832l.188-.187c.37 0 0 .37-.188.37-.188.2-.372.001 0-.182m-.372 3.158c.372-.746.372.37 0 0m-.74 15.6v-.56c.555-.185.555.744 0 .56m.372-1.672v-.188h.744c-.004.372-.56.188-.744.188m.74 1.3c.37-.37-.372.745 0 0m-.372-11.326c0-.19-.368-.373-.185-.373.37 0 .746.187.746.556-.001-.001-.56-.001-.56-.183m1.302-2.05c-.375 0-.93.188-.93-.186s.37 0 .37 0c.188.006.745-.18.56.186m.185 12.64c.555 1.11-.372-.75 0 0m0-9.85v-.56c.372-.18.555.742 0 .56m1.114 10.215c.185-.55.374.557 0 0m-.185-6.13v-.56c.56-.364.56.745 0 .56m0-18.946h-.557c-.188-.373.185-.56.372-.745 0 0 .188 0 .372-.188h.373c-.2.374-.2.75-.56.933m1.114 28.05c0-.187.187-.373.375-.187-.003.187-.19.001-.375.187m.558-4.09c.187 0 .372.188.56.188.182.378-.746.378-.56-.188m.37-14.67c-.188.184-.372 0-.188-.183-.188 0-.558-.19-.558-.563.188.183.558 0 .188-.183-.188-.188.184-.373.557-.373s.372.93.001 1.302m33.81-3.348c-.188.188-.375 0-.375-.185l-.184-.188c.183.2.93.001.56.373m-1.115-7.797c.184-.188.184-.188.557-.37.56-.187 0 .37-.188.556-.37.185-.37-.002-.37-.185m0 1.672c.37-.19.742.563.184.563 0-.19-.184-.19-.184-.372.18-.008.18-.008 0-.19m-13.188 12.074c.37 0-.375.367-.188.557h-.556c.001-.377.37-.377.744-.557m-1.118-12.82c.558-.556.743.37 0 0m.558 2.975c.187.366-.556.366-.556 0-.002-.19.373-.19.556 0m-1.113.927s.188.375-.185.558c-.188 0-.372 0-.372-.183.184-.2.372-.375.557-.375m-6.13-.744s.373-.183.556-.183c.373 0-.187.366-.37.366-.37.2-.56-.183-.185-.183m-2.415 1.487c0-.188.188-.188.188-.188.557-.183.185.374 0 .563-.002-.003-.188-.188-.188-.375m-.743-3.16c0 .2-.184.376-.376.563-.184 0-.74.187-.37-.187l.37-.186c0 .001.376.001.376-.2m-.185 7.988c-.19.183-.56-.183-.19-.183.19 0 .19-.188.376-.188.368-.183-.185.37-.185.37m-.56-9.29c-.187.186-.37 0-.187-.188l-.184-.186c.186-.366.56.001.37.374m-.37 4.648c0 .19.184.19.184.373-.745.74-.927-.747-.184-.373m-.743-1.5c-.188.19-.56.19-.746-.187 0 0 0-.372.373-.186 0 .19.745.006.373.373m-1.5-2.413c.188 0 .372.372.745.186.185-.186.558-.56.927-.56.376 0 0 .373-.184.373-.56.186-.56.746-.93.746-.56.001-.742-.373-.56-.746m-1.1-1.485c.184 0 .557 0 .37.188-.37.368-1.116 0-.93-.375 0-.183.372 0 .56.187m-.188 5.573c-.376-.187-.188-.56-.188-.745.188 0 .375 0 .557.186.19 0 0 .56-.37.56m-1.672-2.604v.373h-.372v-.373h.372M99.283 369.4c.557.184.557.37.188.742-.373 0-.56-.558-.188-.742m.744 2.603c-.37 0-.93.183-.93-.19 0-.188.376 0 .745-.188.372-.552.185.377.185.377m.556.368c.188-.925-.185.744 0 0m2.785-1.1v-.377c.372-.184.372.2.372.563-.18-.186-.18-.373-.372-.186m0-1.305c0-.927.56.556 0 0m1.5 3.902c-.372.372-.746.372-1.297.557-.188-.37.556-.557.737-.742l.2-.193c.37.005.552.378.37.378m4.457-4.647h.375v.373h-.375v-.373m.373 4.462c-.188 0 .184-.373.37-.373.37.185-.184.558-.37.373m1.298 3.7c.56-.74.56.38 0 0m.93-9.282h-.557c0 .188.188.37-.188.188v-.188l-2.04.37v-7.243l-1.115 2.046-1.485 2.598-1.49.2-.553-.93c-.2 0-.2 0-.2-.188h.2l-.746-1.113c-.184.19-.372.368-.744.368-.184-.368-.373-.368-.373-.742v5.754l-2.785.373v-7.99c-.185 0-.37 0-.37-.184s.188-.375.37-.375v-3.53l2.785-.373 1.486 2.412.745.932 1.115 1.667s.188-.368 1.113-1.855l2.232-3.9 2.785-.376V368.1h-.185l.001.01zm1.3-12.82c0-.185 0-.366.188-.366s.556-.373.744-.373c.184.185-.373.74-.932.74m1.116 2.602c.185-.183.558 0 .37.375-.186 0-.37-.375-.37-.375m.74 1.3c-.185 0-.558-.183-.558-.37.188-.376.558-.376.746-.186.186.374-.002.74-.188.556m.56-.925c-.372 0-.372-.375-.188-.558s.558-.187.746-.372l.184-.187c.185-.373.372 0 .185.187-.37.555-.74.93-.927.93m.558 17.457c.37-.928 0 .744 0 0m.556-13.005c-.187 0-.372-.368-.187-.556l.187.188v.368m-.37-2.412c-.184-.186-.372-.37-.184-.552 0-.19.184-.19.37-.19.375 0 .744 0 .556.372-.18.37-.556.555-.74.37m.743 14.118c0-.185-.184-.185-.184-.37.184 0 .184-.187.368-.187 0 .187.187.187.187.372-.186 0-.186 0-.37.185m.744-2.044c-.184 0-.372.744-.56.188-.188-.188.375-.188.56-.374 0-.182.37.186 0 .186m-.184-3.53c-.188-.188.184-.372.37-.56.185.2-.186.38-.37.56m2.227-18.763c0 .187-.558.372-.37-.186l.184-.188c.186.004.186.188.186.374m.372-.738c0 .187-.745.368-.375-.188l.188-.188c.187-.182.187.188.187.376m.37 9.66c-.188-.188.188-.373.375-.188s-.2 0-.375.188m2.6 5.386h-.558c0-.19.373-.373.558-.745.56-.001-.185.37 0 .745m.56-3.53c.185-.56.373.558 0 0m.554 8.727c0-.56-.37-.373 0-.742.56-.18.56.742 0 .742m.187-13.93c.376 0 .188.37.376.553-.376 0-.188-.366-.376-.553m2.23 1.297c0-.185-.188-.93.368-.557.375.185-.18.372-.368.557m.743-.744c-.375-.186.185-.553.37-.736 0 0 .375-.19.557-.19 0 .374-.557.74-.927.927m1.115-11.14c-.188.186-.93.37-1.115.557.185-.37.558-.557.927-.747.188-.183.373 0 .188.2m.373 22.104c.37 0 .185.373.37.556-.558.19-.37-.183-.37-.556m-.188-9.66c0-.186.373-.372.558-.186.56.186-.37.186-.558.186m.745 0c0-.745.926.37 0 0m1.114 7.987h.742v.744c-.555-.001-.742-.185-.742-.744m.926 4.83c-.184 0-.184-.188-.373-.188 0-.187.188-.187.188-.372.184 0 .184.186.372.186.001.186-.187.186-.187.374m.56.744c0 .372-.56.372-.372-.2 0 0 0-.37.188-.37.372-.37.184.37.184.56m1.3-20.436c-.373-.188-.188-.56.184-.373.188-.187.56-.187.56-.187-.37.377-.56.746-.744.56m47.553.932c0-.932.56.552 0 0m-4.084-3.716c0 .186.188.186.188.37-.188 0-.188.187-.376.187 0-.187-.188-.187-.188-.372.188 0 .376 0 .376-.186m-9.664 1.487c.188.368-.37.368-.37.742-.373-.563.184-.563.37-.742m-.554.738c.185-.56.37.745 0 0m-11.89-2.41l.187.19c.37.183 0 .366-.187.183 0-.002-.185-.188 0-.372m-2.973-2.792c.373.2.373.2.188.56h-.37c-.001-.37.18-.37.18-.56m-4.456 4.088h.744c.188.555-.558.19-.744.19v-.19zm-2.8-2.787c.376 0 .558 0 .746.184.188.19.188.563 0 .563-.188-.185-.557-.372-.746 0 0 .183 0 .368-.368.183-.001-.184.556-.555.368-.93m-.185 2.233h.56c0 .188 0 .37-.187.556-.373.185-.557-.373-.373-.556m-6.684-2.05c.37 0 .558.19.74.19.188 0 .56 0 .375.188 0 .185-.375.367-.746.185-.187-.185-.37-.372-.745-.563-.182-.001.377-.185.377-.001m-2.23-2.224c.37 0 .746-.182 1.115-.37l.188.188c.188.364.188.738-.188.924-.557-.004-.745-.56-1.115-.743m.184 12.813c0-.185-.184-.185-.184-.372.184-.185.372-.185.558-.372 0 .188.188.188.188.372-.188.187-.376.372-.562.372m1.488-2.226c.184 0 .37-.375.37-.375h.557c-.37.375-.37 1.117-.928.93-.37 0-.37-.554 0-.554m1.3 2.973s.188.558-.185.372c-.188 0-.745-.372-.372-.56.186 0 .374.187.557.187m-1.483 15.042c-.188-.183.184-.37.368-.183.002.37-.184.183-.368.183m.184-1.11c0-.184 0-.37-.184-.556.368-.374.744-.2.926.372-.183.367-.37.184-.742.184m1.3-1.674s-.557.2-.74.2c-.188-.373.185-.373.37-.373s.744-.19.37.183m.188-21.173c-.558.185-.373.744-.745 1.116-.372.184-.926.184-1.3 0-.185 0-.37-.2-.37-.372.93-.187 1.67-.93 2.785-1.302l-.37.558m.372 14.672c.372 1.117-.372-.746 0 0m.372 9.473c.188 0 .188.375.37.375-.185.555-.555-.003-.37-.375m.185-4.827c0-.185-.188-.185-.188-.37.188 0 .188-.186.37-.186 0 .186.188.186.188.372-.184.001-.37.185-.37.185m.37 4.64c.557-.37.928 0 .744.562-.187.182-.37-.003-.744-.562m1.488-23.22c0 .188-.188.373-.557.373-.188 0-.188-.556.188-.373l.37-.372c.553-.182.184.372-.001.372m.742-1.666c.188 0 .188-.187.37-.187.375 0 .745 0 .56.372-.373 0-.56.743-1.118.743-.37-.37-.184-.742.188-.928m-.188 4.088l8.733-1.304v2.785l-3.16.372c-.188.2-.556.2-.556.2l-2.23.368v2.044l4.645-.557v2.596l-4.645.556v2.23l4.457-.548c.188-.2.373-.2.373-.2.184 0 .744-.187.744 0h.556v2.792l-8.73 1.298v-12.63l-.187-.001zm.558 15.23c-.185 0-.37-.19-.185-.373h.556c.004.186.004.56-.37.373m.56-2.23h-.373v-.37h.373v.37zm.93 2.23c-.187-.745.74.373 0 0m5.756 4.458v-.556c.56-.2.56.74 0 .556m1.3-7.434c-.184 0-.925-.184-.367-.556.367-.185.552.188.367.556m.373 5.388c0-.184-.188-.184-.188-.373.188 0 .188-.186.376-.186 0 .186.184.186.184.375-.184 0-.372 0-.372.184m.188-17.83v-.372c.184 0 .557-.19.37.188.001-.001-.187.184-.37.184m.74 19.13c-.184.2-.37.563-.558.2.188-.2.188-.56.373-.56.372-.372.372.188.185.37m.56-22.29c-.373 0-.373-.556-.188-.928.188 0 .37.187.558.187-.002.37-.37.37-.37.74m0 16.346v-.183h.558c.368.374-.377.001-.558.183m1.67-3.898c.74 0-.188.93 0 0m.185-2.6c-.185-.745.744.368 0 0m0-2.422c-.188-.18.372-.742.557-.553.188.183-.188.372-.188.553.188 0 .558-.18.558.186-.183.19-.74 0-.927-.186m.556-11.144c-.188-.183.188-.37.372-.183.001.183-.184 0-.372.183m.558-2.04c-.185.184-.558-.186-.37-.562-.188-.184-.188-.556.184-.37.185 0 .185-.186.373-.186-.188.372 0 .556.37.372.001.373-.368.56-.556.746m1.675 11.702c-.188.373-.742.19-.742-.187.182 0 .925-.187.742.187m1.483-1.117c-.185.188-.555.563-.927.188-.188-.37.184-.37.184-.37.192 0 .376-.19.56-.19.554-.001.182.372.182.372m.56-9.285c-.188-.182 0-.37.184-.37s.746.188.746.188c0 .182-.2.364-.372.182h-.558m.555 25.072c0-.37.373-.37.746-.186-.188.375-.56.375-.746.186m.928-14.116a.41.41 0 0 1 .558-.555c.185.374-.184.74-.558.555m1.672 10.404c0-.186.188-.373.373-.186 0 .368-.185.186-.373.186m1.673.743c0-.184-.183-.184-.183-.373.183 0 .183-.188.368-.188 0 .188.188.188.188.372-.188.005-.373.19-.373.19m2.415 0c0 .2 0 .37.184.557-.372.187-.557-.187-.557-.557h.373zm-.373 2.787c.373-.368.558.188.93 0 .37 0-.742.37-.93 0m1.118-10.585c.924-.373.555 1.11 0 0m.367-10.6c-.184 0-.368-.373-.184-.373s.184-.187.372-.187c.188-.187.188.375 0 .375.19.001.19.37-.188.185m1.488 8.354c0-.186-.187-.186-.187-.366.187 0 .187-.19.372-.19 0 .19.188.19.188.37-.185-.001-.373.185-.373.185m0-11.33c0-.183.373-.37.558-.183 0 0 .187.56.187.743-.372 0-.93 0-.745-.56m1.858 20.99c-.368 0-.368-.37-.368-.743h.556c-.003.373-.188.555-.188.743m.743 1.116c-.188 0-.558.373-.746 0 .188-.187.557-.373.93-.56s.003.373-.184.56m0-26.748c-.188-.373.188-.373.37-.373 0 0 .188 0 .188.188 0 0 .188.554-.188.368 0 .001-.182.001-.37-.183m.744 22.107c-.188 0-.375-.37-.188-.37l.188.184c.555-.001.185.186 0 .186m.742-1.3c-.188 0-.376-.37-.188-.37.376-.19.188.183.188.37m-.372-2.415c-.184 0-.37 0-.557-.2 0-.18-.188-.365 0-.56.372-.187.557-.187.93-.552-.188.365 0 .552.37.552.187.378-.37.565-.742.75m1.3 7.053c-.183 1.118 0-.74 0 0m-.183-4.266c-.188.187-.558.187-.376-.188l.188-.188h.556c.188.376 0 .562-.368.376m.924-3.903c.742-.56 1.3-1.115 1.86-2.232 0 0 0-.554.37-.366v.558c-.37 1.116-1.116 1.67-1.676 2.228-.366.182-.554-.001-.554-.188m.93 5.756c.557-.372-.373.56 0 0m1.114-1.11c0-.184.375-.184.375 0-.003.372-.2 0-.375 0m.372-13.374c.183 0 .183.185.368.185.004-.002.004-.002-.368-.185.183-.558.74 0 .556.372-.372.186-.556-.002-.556-.372m.556 18.202c0-.187.188-.187.188-.373.185 0 .373.187.373.56-.372 0-.372-.187-.56-.187m6.5-8.357c-.188-.556.188-.556.56-.37-.187.187-.372.37-.56.37m2.045 1.3v-.563c.184 0 .184.2.372.2 0-.2 0-.2-.188-.2 0-.365.746-.183.93 0-.557.2-.557.746-1.114.563m3.715 6.685c-.185-.187.185-.37.372-.187-.001.187-.187.001-.372.187m-1.858-9.286l-.74-1.855-4.83.736-.74 2.05-3.16.373 4.832-12.82 2.786-.368 4.828 11.328-2.973.557zm2.603-4.643c0-.19.37-.19.37 0 .001.183-.186 0-.37 0m0-1.3c0-.374.183-.374.183-.746.37 0 .37.186.558.186-.187.37-.187.745-.74.56m2.598 9.658c0-.186-.185-.186-.185-.37.185 0 .185-.2.37-.2 0 .2.188.2.188.374-.185.185-.372.185-.372.185m.187-1.678c.188-.183.188-.365.188-.555.187 0 .372.19.372.555h-.56zm1.673-2.225h-.373v-.373h.373v.373zm1.67 6.688c.188-.188.188-.374 0-.374.188-.745.743.558 0 .374m1.488-17.65c.187 0 .187.375.37.375 0 .554-.557 0-.37-.375m4.27-2.6v-.557c.56-.183.56.936 0 .557m.745 13.933c1.117 0 0 .932 0 0m.557-2.97c.185-.187.373-.374.74-.374.188.374.373.563.56.933-.56.37-.927-.005-1.3-.56m2.6 5.942h-.56v-.738c.56 0 .56.366.56.738m5.57-5.57c-.37 0-.557-.188-.557-.747.557 0 .745.56.557.747m3.533 5.383h-.372v-.552c.372 0 .372.183.56.183-.188.183-.188.183-.188.37m3.342-.932c-.745.2.184-.92 0 0m5.758 1.678c-.56.187-.56-.186-.928-.37.187-.93 1.3-.746.928.37m2.97-18.577l-3.715.557v9.29l-2.786.373v-9.3l-3.53.563v-2.792l10.03-1.483.001 2.783zm13.745 14.86c0-.93.562.372 0 0m9.288-5.942h-.373v-.374h.373v.374zm16.72-10.22l-2.048.372v.93c0 2.23-1.297 4.46-4.825 5.015-2.785.377-4.645-.927-4.645-3.152 0-1.304 1.115-2.602 2.414-2.973-.93 0-2.23-.557-2.23-2.226 0-2.046 1.675-3.716 4.275-4.274 2.413-.372 3.898.745 4.457 2.784l-2.414.932c-.373-1.116-.93-1.487-1.855-1.297-1.118.184-1.487.93-1.487 1.484 0 .74.558 1.3 1.67 1.113l6.688-.93v2.22h-.002zm.742-13.56c0-.372.188-.372.188-.745.375 0 .375.373.375.745h-.563zm1.485 26.934c-.185 0-.185-.187-.372-.187 0-.188.188-.188.188-.37.184 0 .184.183.373.183-.19.187-.19.187-.19.374m1.3-1.3c-.746.556-1.302 0-1.114-.745.93 0 .37-.93.93-1.3.185 0 .56.2.742.563-.742.365-.557.927-.557 1.483m4.83-11.702h-.376c0-.372.188-.372.188-.56.375.187.375.373.188.56m.93 3.157c-.376 0-.376-.56-.188-.93.373 0 .373.184.558.184 0 .558-.37.372-.37.745m7.244.93v-.37h.37v.37c.001-.187-.186 0-.37 0m2.787-12.63c0-.19-.186-.19-.186-.373.186 0 .186-.187.37-.187 0 .187.184.187.184.37-.184 0-.37.2-.37.2m2.226 11.145c.19-.56.558.556 0 0m1.488 2.04c.188-.554.37.746 0 0m3.157-9.84c.188-.186.56 0 .746.187-.19.365-.56.18-.746-.187m3.532 7.984c.184-.552.558.556 0 0m1.3 4.644c0 1.113 0-.554 0 0m2.972-3.898c.184 0 .184.186.372.186-.003-.186-.003-.186-.372-.186.184-.56.745 0 .56.37-.376 0-.56-.184-.56-.37m.557 4.085c-.557-.928 1.113-.74 0 0m.93-3.528c.184-.557.554.554 0 0m-1.67-4.087l-5.205.743v-12.07l5.205-.746c3.342-.56 6.127 1.673 6.127 5.203.186 3.527-2.6 6.312-6.127 6.87m9.658-20.064c0-.185 0-.185 0 0-.185-.372-.185-.372 0 0 0 0 0 .188 0 0M314.2 331.7v-.37h.375v.37h-.375m1.3 17.094c0-.188.372-.188.372 0 0 .37-.184 0-.372 0m0-1.113c0-.375.188-.375.188-.745.37 0 .37.184.558.184-.188.186-.188.745-.746.56m4.275-26.934c-.187 0-.187.183 0 0 0 .553-.558.183-.373-.19.373.004.557.004.373.19 0 .183 0 .183 0 0m.184 19.685c.37-.368-.37.558 0 0m3.158 2.045c.183 0 .183.373.37.373 0 .373-.555 0-.37-.373m8.546-1.487c-.188-.187-.188-.373-.375-.373.188-.186.375 0 .562-.186 0 .186.184.186.184.372-.186.001-.37.187-.37.187m2.6.187h-.375c0-.187 0-.187-.186-.187-.18-.186.746-.186.56.187m9.473-5.573l-2.23-3.717-1.484.187v3.903l-2.784.372v-12.07l4.455-.563c2.972-.37 4.83.93 4.83 3.532 0 1.67-.742 2.968-2.228 3.712l2.602 4.088-3.16.557zm5.017-8.727c.372.187.186.372.186.56-.37 0-.56-.187-.933 0 .187-.372.562-.372.747-.56m.186 4.64c-.186-.187-.56.183-.56-.187 0-.186.56-.186.746-.186.925.186 0 .555-.186.373m.742 10.402c-.19 0-.19-.188-.376-.188h.745c.376.376-.187.188-.37.188m.745-18.95c-.188 0-.376-.184-.376-.37.188 0 .376 0 .56.187.555.183-.001.183-.183.183m.182 3.906c.373-.75.373.557 0 0m1.488 16.346s-.56 0-.56-.373c0-.562 1.304 0 .56.373m.373-1.115c0-.2.372-.2.372 0-.193.18-.193 0-.372 0m.558-20.995c-.187.556-.56 0-.38-.366.193 0 .562 0 .38.366m.922 16.72v-.372h.38v.372h-.38m1.118-1.484c-.745.187-.56-.932 0-.745.186.373-.186.373 0 .745m2.602-23.593c0-.187-.19-.187-.19-.375.19 0 .19-.184.372-.184 0 .184.188.184.188.372-.001 0-.188 0-.37.187m1.11 10.03c-.183 0-.37-.187-.183-.372h.56c0 .186-.186.556-.376.372m5.947-1.487c-.187 0 .37-.187.37-.37.183.183 0 .37-.37.37m.185-2.787s-.186-.37 0-.37.184.187.184.187c.56-.001 0 .184-.184.184m1.856 7.248h-1.114c0-.188 0-.376.186-.376h1.3c.001.187-.185.187-.372.376m1.488 8.355v-.372h.376v.372h-.376m2.044.187c-.19-.37-.933 0-.747-.744.374.19 1.12.374.747.744m48.48-28.977h.557c.375.37 0 .93 0 1.3h-.742c-.37-.372-.187-1.118.185-1.3m-2.412-.746c.187 0 .367-.366.556-.187.372.187 0 .56-.372.742-.2 0-.372-.365-.93-.182 0-.74.557-.373.745-.373m-.745 4.83c0 .187-.2.373-.373.373-.182-.373.188-.373.373-.373m0 2.047c.373-.373.187.372.187.372-.377 0-.932.186-.932-.19 0-.183.56.19.745-.183m-1.483.926c.738 0 0 1.114 0 0m0-4.272c-.184 0-.184-.186-.372-.186v-.37c.372.001.372.372.372.557M398.53 322.6c.37 0 .37.37.19.56-.19-.001-.38-.19-.19-.56m-11.146 13.2l.187-.19c.187.373-.37.563-.37.373-.187-.182.182-.182.182-.182m-2.974-25.446c.2 0 .563 0 .374.368l-.74-.183c0-.185.184-.185.366-.185m-2.23 20.248c.2-.19.2 0 0 0 .19.183-.183.555-.183.183-.184-.183.003-.183.183-.183m-1.297-7.806c.187-.187.372.184.187.184s-.373.188-.557.188c-.187-.188 0-.372.37-.372m-2.227-6.13c0 .187-.19 0-.38 0 .193-.185.38-.185.38 0m-.56-1.486v.372h-.37v-.372h.37m-6.126 17.833c.365-.558.182.555 0 0m-.38-13.935h.38v.373h-.38v-.373m.38 20.805v-.375h.365v.375h-.365m.182-5.387v-.372c.183 0 .558-.184.378.187.18 0-.195.185-.378.185m2.23-8.17c.188 0 .373-.19.373-.19.187 0 .187.746 0 .563-.373-.19-.56-.19-.745-.19-.184-.185.185-.185.372-.185m.56 11.516h-.374v-.56h.56c0 .373-.186.373-.186.56m.186-12.634c0 .562-.745 0 0 0m.556 10.218v-.556c.37-.183.37.743 0 .556m3.34-4.824l-2.785.366v-12.074l2.785-.367v12.075zm-.366-12.63c-.19 0 .184-.38.366-.565.373.187.19.746-.366.565m2.04 21.73v-.56c.373-.185.56.743 0 .56m.56-1.67c-.372.186-.56.372-.742.186-.37-.372.37-.372.557-.372.555-.187.185.186.185.186m.186-7.427c.372 0 .372.366.186.555-.372-.001-.372-.373-.186-.555m.74 5.942a.4.4 0 0 1-.366-.372c.366-.372.74.186.74.738-.001 0-.554 0-.374-.366m.93-14.306h.372v.375h-.372v-.375m.372 14.487c-.186.373-.372 0-.372-.188l.187-.183c.185-.182.373.2.185.37m0-1.855h.37v.372h-.37v-.372m.188 1.855c.556-.553.738.562 0 0m0 1.117v-.56l.372.372c.366.187-.2.187-.372.187m.556-19.32c-.184.185-.373-.188-.373-.37.373.001.555.186.373.37m.555 7.432c.372.186-.184.372-.374.186.001-.003.374-.37.374-.186m-.183 10.77c-.2-.37.184-.37 0-.925.555-.187.373.925 0 .925m.555-12.072c-.19.188-.372 0-.372-.186h.93c0 .373-.373.186-.557.186m.744 4.83c-.188 0-.188-.373-.188-.56.188 0 .188.187.188.56 0-.19 0-.19 0 0m.185-11.332c.372-.37.56.742 0 .557v-.557zm.372 19.135c-.372-.188 0-.378.19-.378 0 0 .184 0 .184.2.186.188-.186.188-.373.188m1.3 1.3c-.187.186-.556.186-.556.186 0-.186.187-.372.37-.372 0-.187.37-.003.187.186m2.044-3.532c.558.37-.187.37 0 0-.187.185-.187 0 0 0 .37-.185.37.185 0 0m.186-12.26c-.373-.187 0-.372.186-.372l.187.186c.184.186-.2.37-.373.186m1.112 12.444c.375-.553.188.56 0 0m1.3-6.685c-.373-.183-.373-.372-.187-.56.372 0 .56.188.56.377.186.552-.186 0-.372.183m2.233-3.53c-.37-.186-.556.374-.743.188s-.19-.556-.19-1.115c.19.188.373.37.557.37.188.184.56.37.375.557m0-3.904s-.187-.366 0-.366.186.183.186.183c.556 0-.001.37-.186.183m1.1 14.864v-.373c.188 0 .188 0 .188-.187.185 0 .185.746-.188.56m.373-7.247c-.186.185-.56.185-.373-.185.188-.183.373-.372.56-.372.184-.187 0 .373-.187.557m.37-10.217l-.186-.188c.002-.182.37.003.186.188m.56-9.284v-.183h.556c.373.552-.373.183-.556.183M398.343 320c0 .184-.187 0-.367 0 0-.186.182-.186.367 0m-.185 14.86v-.373h.377v.373h-.377m0-6.13v-.185h.564c.365.37-.38.185-.564.185m.93-2.23c-.185.19-.365-.2-.185-.2s.372-.365.557-.186c0 .003-.372.192-.372.376m1.12 9.3v-.56c.37-.185.553.746 0 .56m0-17.278c.927 0 0 .93 0 0m1.672 18.388c-.188-.186-.56-.366-.188-.553h.188c.187 0 .366 0 .366.187-.18.18-.18.558-.366.366m.366-30.462c0 .188-.366.374-.366.188l.187-.188c-.002-.556.18-.184.18 0m2.604 6.502c-.184 0-.184-.186-.184-.558.184 0 .372 0 .556.19.183.182 0 .554-.372.367m1.113-6.872v-.374h.374v.374h-.374m1.67 21.917v-.368h.37v.368h-.37m.37-17.456s-.557.183-.37 0c0-.2.19-.2.19-.374.182-.185.182.374.182.374m.186 22.285c.558-.368-.368.557 0 0m4.46-3.53c-.187 0-.376 0-.376-.185s.19-.188.557-.37c.006 0 .188.372-.18.556m1.488.748c0-.188 0-.56.37-.374 0 0 .187.187.37.187-.37 0-.738 0-.738.187m3.156-1.488l-.188-.56c.188-.185.744-.368.744-.185.19.373-.187.562-.556.745m1.857 0c0 .93 0-.744 0 0m.184 3.154c0-.183.375-.183.375 0s-.187 0-.375 0m1.3-17.828c-.187.37-.56.37-.746.37v10.588l-2.785.374-2.412-2.974-2.787-3.34v7.058l-2.786.374v-11.7h-.187v-.2h.187v-.186l2.786-.37 2.6 3.157 2.6 3.348v-7.066l2.785-.367v1.112c.187 0 .373-.188.373-.188l.19-.186c.183-.372.37.001.183.186m.373-9.1c-.19.37-.56.37-.746.183l.56-.558c.37-.184.558.375.186.375m1.114 1.854c-.56.187-.56-.56-.372-.746.372.002.744.374.372.746m1.857 21.736c.56-.56-.187.552 0 0m1.67-14.676c-.183 0 .2-.372.373-.372.183.183-.182.372-.373.372m1.302 13.93c.372-.554.372.556 0 0m.558-23.592c-.558.554-.744-.556 0 0m2.598 4.457v-.37h.373v.37h-.373m.746 15.977c.187-.56.373.557 0 0m1.86-21.92c-.186 0-.375-.37-.186-.56l.186.19v.37m.926-.183c.373 0-.372.367-.186.554h-.56c-.18-.37.38-.37.745-.554m-.366 27.118c.366-.745.366.372 0 0m0-16.906c-.19-.188.373-.188.554-.372.186-.186.56.184.186.184s-.56.747-.74.188m.925 4.648v.367c-.745.192-.372-.926 0-.367m31.39-17.278c.2-.186.373-.186.373-.186.373 0 .93-.187.56.186l-.377.373c-.184 0-.743-.187-.557-.373m-6.867 7.247c-.188 0-.376-.186-.188-.372h.557c0 .186 0 .372-.37.372m-.187-4.09c.74-.186-.745 1.117 0 0 0 .19 0 0 0 0m-4.275 6.5c.19 0 .742 0 .373.187l-.746.2c-.183-.377.184-.19.373-.377m-2.412-9.104v.376h-.377v-.376h.377m-13.932 18.39h.187c.183 0 .37.186.183.56-.001-.187-.555-.56-.37-.56m1.3-14.67h-.56c0-.188.373-.372.56-.744.556 0-.2.556 0 .744m.74 25.443v-.37c.373-.185.373.188.373.37-.183.2-.183 0-.373 0m.56-1.11c-.56.185-.187-.372-.187-.744h.187c.185.372.185.56 0 .744m.557-23.6v-.376h.373v.376h-.373m.557 15.79c-.184 0-.184-.563 0-.563s.372-.182.558.2c.187 0-.186.373-.558.373m1.673-11.518c-.188-.373.745-.373.556.183-.186-.001-.186-.001-.556-.183.183.182.183 0 0 0m.183 16.716c0-.185.372-.185.372 0s-.185 0-.372 0m1.485-4.272c-.184.186-.366.37-.558.37-.188-.184 0-.557.19-.557.557-.555.557 0 .367.188m.745 2.604c-.19-.378.183-.745.37-.563l.187-.182c.2.367-.187.745-.556.745m1.114 2.6l-.56.187s.2-.373.373-.373c.187-.2.375.186.187.186m.56 2.225c.373-.556.184.555 0 0m.373-3.715c-.373-.188 0-.372 0-.56.182.19 0 .373 0 .56m.555-14.302c0 .373-.556.373-.373-.2 0 0 0-.364.19-.364.37-.375.184.366.184.554m.556 3.53c0 .184-.184.557-.37.366-.182-.185 0-.555.37-.366 0-.19.184-.375.377-.19l-.377.19zm1.674 13.56c.183-.556.556.556 0 0m2.972-12.63l-.56.745v2.04h.188v.374h-.188v1.487l-2.786.375V308.5l2.786-.374v4.646s.37-.376 1.49-1.86l2.97-3.34 3.533-.557-2.05 2.414h.2c0 .186-.2.186-.37.186l-2.972 3.343 5.204 6.316-3.35.56-3.53-4.27c-.187-.192-.37-.008-.556-.008m6.686-1.3c-.373 0-.56-.184-.56-.557h.745c.001.374-.186.374-.186.557m-6.134 9.847v-.376c.19 0 .19 0 .19-.182.19-.188.19.745-.19.558m1.308-2.232c.556-.558-.377.556 0 0m1.855 6.505c.367-.56.184.552 0 0m.556-6.134c-.19.187-.563.187-.563.187 0-.187.188-.373.188-.373.186-.185.558-.001.375.186m1.3 4.46c.373-.562-.37.556 0 0m-.744-7.06c.93-.372 1.673.557.93 1.118-.554-.185-.554-.745-.93-1.118m1.485 1.118h-.558c0-.19.19-.373.372-.563.56-.182.186.563.186.563m.927.738c.373-.738.19.557 0 0m-.367-18.76c0-.185 0-.368 0 0h.56c-.003.186-.378.186-.56 0m2.97-.368h.37v.367h-.37v-.367m.37 3.338v-.37h.373v.37h-.373m1.488 2.417c.928 0 0 1.117 0 0m.368 6.13c0-.184.373-.184.373 0-.183.183-.183 0-.373 0m.56 8.17v-.372c.186 0 .56-.184.375.187-.002 0-.2.185-.375.185m.56-6.87v.374c-.746.182-.186-.937 0-.374m.744-11.518c-.19 0-.93-.185-.38-.557.38-.183.38.373.38.557M502.92 320l.19.184s-.19.188-.19.376h-.366V320c.186.184.366.184.366 0m-6.498-5.942c.19 0 .556 0 .556-.19.2.19.2.37.2.926-.557.184-.93-.182-.746-.737m-.926-.562v.374h-.375v-.374h.375m-.744 1.3v.373h-.373v-.373h.373m-1.487-4.643h.557v.557h-.746c.19-.183.372-.368.19-.557m-1.857-1.3c0 .373-.2.556-.56.556-.187-.365 0-.365.187-.74.186 0 .186.183.373.183m-.187-1.67c.56-.186.56.373.376.56s-.376-.19-.376-.56m.187 6.874c0 .184-.2 0-.373 0 0-.188.373-.188.373 0m0-2.42c0-.556.186-.556.372-.93.366 0 .366.563.366.93-.366.19-.552.19-.738 0m1.113.928h-.742c.001-.372.742-.556.742 0m-.185-5.013c-.2-.373.186-.373.373-.373.183.188 0 .188-.373.373m.373-1.487v-.374h.37v.374h-.37m0-3.712c.74-.188 1.3.367.927.93-.37-.19-.744-.375-.927-.93m.37-1.117h.368v.556h-.557c.001-.183.19-.37.19-.556m.556 5.574c.743 0 0 1.113 0 0m2.23-10.96c-.19 0-.19-.19-.37-.19 0-.187.187-.187.187-.366.187 0 .187.184.37.184-.186.18-.186.18-.186.37m2.044 4.085c.37 0 .552.187.552.746-.925.373-.925-.373-.552-.746m1.113-2.786c0 .373-.742.373-.562-.183.38.001.38.183.562.183m-.56-1.855c.38-.19.38.74-.184.556.003-.2.003-.2.184-.556 0 .183 0 .183 0 0m.192 3.345c.187 0 .187.368.187.558-.187 0-.38-.19-.56-.19 0-.19.18-.19.373-.37m-1.117-2.233c.186 0 .375.187.56.187.186.558 0 .745-.56.745-.186-.56-.186-.744 0-.932m-.186 1.116h.372v.556h-.558c.002-.188.186-.372.186-.556m-.184 2.6v-.56c.37-.373.556.746 0 .56m-.745-4.46v-.556h.746c-.001.373-.377.373-.746.556m-1.117-1.667c.562 0 .928.184 1.3.56 0 .556-.93.183-1.3.183-.184-.56 0-.56 0-.743m.19 2.226c0 .188-.375.374-.56.374-.184-.374.37-.374.56-.374m-.744 8.733h-.373v-.376h.373c-.188.193 0 .193 0 .376m-1.672-10.96c.556-.19.745.184 1.3 0-.372.56-.744.93-1.485.93-.003-.192-.186-.746.185-.93m.368 1.11c0-.2 0-.556.377-.373v.563c-.377 1.112-1.115 1.67-1.672 2.23-.187 0-.373-.186-.373-.373.74-.372 1.3-1.117 1.668-2.046m-1.302 11.147c-.366-.188-.93 0-.93-.374.563.374.747.002.93.374m-1.294-5.015c-.19.186-.563.186-.372-.183l.183-.19h.56c.186.372-.001.558-.37.372m.183-7.243v.56c-.373.183-.373 0-.746-.188.2-.188.373-.372.746-.372m-.556 2.785c-.2 0-.2.19 0 0-.37.188-.37-.185-.37-.374a.41.41 0 0 1 .37.374m-.928-3.342l.746-.188c0 .188.188.373.188.56-.37 0-1.116.372-1.116 0-.005 0 .182-.187.182-.372m-.372 4.27c.372-.184.56-.184.932-.557-.186.373 0 .557.37.557 0 .372-.37.56-.747.745-.188 0-.37 0-.555-.187s-.187-.558 0-.558m.554 10.034v.743c-.555.187-.555-.19-.555-.556.373-.187.373-.187.555-.187m-.37-5.575c-.186 0-.375-.373-.186-.373 0 0 .186.184.366.184.38 0 .007.19-.18.19m.56-.373c-.373.56-.745-.556 0 0m0-1.302c.186 0 .186.19.186.376-.186 0-.56-.376-.186-.376m-.56 2.417c0 .186-.186.375-.375.56-.373 0-.373-.186-.373-.56.376-.186.563 0 .748 0m-.74 3.903c-.187 0-.56.372-.745 0 .187-.187.56-.374.928-.56s0 .56-.183.56m0 6.127c-.372 0-.372-.186-.372-.558.372.001.74.186.372.558m-.93 5.202v-.56c.557-.183.557.744 0 .56m1.112-4.83c.186-.558.558.558 0 0m-.555-7.06v.372h-.373v-.372h.373m-.932-2.785c0 .372-.742.372-.553-.186.183.002.183.186.553.186m-.74-6.317c.37-.555.187.557 0 0m-.376-1.116v-.556c.376-.183.563.742 0 .556m-1.856-.183c.56-.19.372.557.372.93h-.93c.002-.746.56-.56.56-.93m.372 6.126c-.186.19 0 .745-.56.745 0-.368.187-.556.56-.745m.372 8.733l.188-.183a.81.81 0 0 1-.746.745c-.372 0-.56-.2-.93-.38.373-.183.93-.183 1.49-.183m-1.673-4.644c0 .186 0 .372.188.558-.372.188-.56-.186-.56-.558h.37zm-.556 3.16c-.746.183-.188-.373-.56-.373.002-.56.56-.184.56.373m-2.6-5.203c.19-.556.19.554 0 0m0 2.043c.373-.187.373.742-.184.558 0-.188 0-.188.184-.558 0 .186 0 .186 0 0m0 4.276c0 .368 0 .743-.37.743 0-.375 0-.743.37-.743m-.746-3.16v.373c-.74.185-.37-.932 0-.373m-.183 11.142c.186 0 .373 0 .186.19-.186.184-.368.746-.735.556.177-.188.177-.56.55-.745m-.742 4.46c.186-.745-.372.927 0 0m-.186-20.807c-.745.56.74-.367 0 0m0-2.97v.37h-.373V299h.373m-.186 19.502c0 .185-.187 0-.37 0 0-.185.37-.185.37 0m-.187-3.714c-.187.188-.187.373-.187.562-.56.184-.187-.38-.187-.562.192 0 .374-.184.374 0m-.372 6.874l-.556.186c.188-.186.188-.373.37-.745.377-.367.187.37.187.56m-.367-15.604c.558-.187.367.372.367.558h-.556c0-.188.19-.372.19-.558m-.562-.743h-.373v-.372h.373v.372m0-4.832c0 .19-.373.19-.556.19.001-.19.374-.19.556-.19m-.37 19.322c0 .186-.187 0-.37 0 0-.187.37-.187.37 0m-.186-22.845c0 .183-.186 0-.373 0 .2-.19.373-.19.373 0m-1.485 3.34c.184 0 .37.183.556.183.2.376-.186.563-.556.563-.19-.373 0-.564 0-.746m-.19 2.974c.19.184.19.368.373.368-.186.377-.373.56-.93.56-.372-.373-.183-.93.556-.93m-2.23.74c.372 0 .372.188.372.554-.372.193-.555-.366-.372-.554m-3.9 8.915c.184 0 .37.187.37.373-.555.373-.555 0-.37-.373m.376-2.228c-.19.19-.372.563-.556.19.184-.19.184-.558.366-.746.37 0 .2.557.2.557m.18 3.53c-.557-.184.186-.37.186-.557.558.186-.186.374-.186.557m.37-.745v-.37h.373v.37c-.186-.184-.373-.184-.373 0m.373-7.06c-.186 0-.186-.372-.186-.56.186.003.186.19.186.56 0-.184 0-.184 0 0m-.373-1.666v-.193h.56c.185.376-.373.193-.56.193m1.67 17.456c.19-.556.373.558 0 0m.373-13.933c.372-.74.372.376 0 0m.19-7.61c.183-.746.556.555 0 0m.556 7.427c.37 0 .556 0 .556.37-.373.19-.556 0-.556-.37m.742 7.248c0-.56-.186 1.113 0 0m0 4.27c.186-.56.372.745 0 0m.742 1.856l.188-.186c.187.376-.188.562-.373.562-.185-.188-.185-.56.185-.376m.372 5.016c-.372.563-.742-.373 0 0m0-.93a.4.4 0 0 1-.372-.369h.556c-.184-.004 0 .37-.184.37m1.49-1.858c-.56 0-.56-.555-.934-.743 0 0-.186-.37.19-.184h.747v.927h-.002zm.368-1.3c0-.556.56-.556.746-.372-.187.187-.373.372-.746.372m.746-2.598c0-.188.373-.188.556 0-.001.37-.743.37-.556 0m.182-5.2v-.375h.373v.375h-.373m.373-12.075c.37-.37-.373.557 0 0m.556 22.29v.374c-.738.182-.367-.928 0-.374m1.486-.554c-.37-.188-.928-.188-1.486-.188 0-.376.746-.376.935-.376h.738c0 .186-.187.377-.187.564m.746-2.977c-.376.558-.746-.553 0 0m-.193-9.842c0-.184.38-.184.563-.184.373-.19-.184.366 0 .556-.184 0-.563 0-.563-.372m.752.926c0-.37.366-.37.556-.187-.004.372-.373.372-.556.187m.552 1.676c.745 0-.186.92 0 0m-.186-3.715c-.184-.56.745-.747.745 0-.373.185-.373 0-.745 0m1.12 7.798v-.37h.368v.37h-.368m2.04 2.604h-.372c.372 0 .372.366.186.553-.372 0-.372-.37-.186-.553-.373 0-.93.183-1.302-.19s.373-.184.373-.184c.556-.38 1.115.184 1.3-.38.185.19 0 .567 0 .752m.185-2.42c-.558.19-.558-.366-.926-.366.184-.56 1.113-.186.926.366m.373 5.016c0-.185.373-.185.373 0-.187.188-.187 0-.373 0m0-2.23c-.373-.187-.187-.556 0-.74 0-.192.186-.38.558-.38v.38s.188 0 .188.184v.74c-.373-.184-.56-.184-.746-.184m.745-6.498c-.188-.375.185-.556.556-.745.186-.188 0 .37 0 .37-.184.186-.376.375-.556.375m.372 2.043v-.372h.557v.372h-.557m.184 3.344c-.187 0-.376-.186-.187-.373h.556c0 .187-.183.557-.37.373m0-8.36c.56-.367-.376.743 0 0m.932 11.33c-.19-.184-.563-.184-.563-.557.19 0 .563-.188.745.187.37.186.184.558-.182.37m.366-1.858h-.184c-.19.187-.562.187-.93.372 0 0 .184.2.184.376h-.37c-.184 0-.556-.186-.376-.376.376.2.745-.186.93-.186h.38c-.19-.187-.19-.37 0-.553.552-.56.738.184.366.367m-1.298-11.515c.37-.37 1.114.187 1.67-.187.2 0-.186.373-.186.745-.55.19-1.114-.185-1.483-.558m2.043 1.86c-.56.74-.745-.373 0 0m.186 11.886h-.37c0-.185 0-.185-.2-.185v-.372c.2 0 .2 0 .2-.187h.37c0 .187 0 .187.187.187 0 .184 0 .184-.187.557 0-.185 0-.185 0 0m.56-1.115c-.187-.187-.56-.37-.372-.93.555-.37.555-.187 1.113-.187 0 .745-.185 1.116-.74 1.116m1.1-4.453v.37c-.74.182-.37-.745 0-.37m0 3.524c-.188-.37.19-.37.377-.37-.001.183-.186.37-.377.37m.556-7.428c-.183-.186-.556-.186-.926-.186.187-.372.56-.372.926-.372.2.184 0 .184 0 .558m-.18-7.245c.926 0 0 1.117 0 0M491.22 320c-.186.184-.37.372-.74.184 0-.184.19-.37.372-.557s.37.187.37.373c.187-.186.187-.186 0 0 .373-.186.373.372 0 0m.373-2.6c.553-.37.187.562.553.375-.001.552-.553-.192-.553-.375m.37 5.758c0-.188.373-.188.373 0s-.19-.188-.373 0m.182-.745s.376-.372.563-.186-.745.743-.563.186m.746-8.542c-.37 0-.556-.186-.93-.186.001-.372 1.117-.372.93.186m.188-.374c-.188 0-.188-.37-.188-.557.373 0 .373.187.188.557 0-.184 0 0 0 0m.185 5.387c.183-.557.556.558 0 0m.744 2.6c-.56.2-.188-.372-.188-.556.37-.182.188.37.188.556m0-4.827h.372v.373h-.372c.183-.186 0-.373 0-.373m.183 6.5c-.187-.372 0-.372.187-.746.374 0 .374.2.374.56-.19.186-.374.186-.56.186m.372-5.942c0-.188.373-.188.373 0-.185.184-.185 0-.373 0m.188 1.668c.37-.188.37 0 .744.186 0 .186-.932.186-.744-.186m.553-1.484c.745.56-.368.742 0 0m.745 4.084c.188-.738.372.557 0 0m-.184-1.11c-.19-.558-.19-.372 0-.93.184.186.556.186.556.56s-.184.372-.556.372m.925-2.8c.377 0 .747 0 .747.38-.187.18-.747.18-.747-.38m.932 5.387c-.372-.557 0-.37 0-.93.373 0 .93.93 0 .93m0-2.224c-.19 0-.372-.19-.558-.19 0-.746.745-.563.558-1.3h.373c0 .184 0 .184.186.184-.186.375-.372.745-.56 1.306m.187-4.09s.37-.372.552-.186c.192.373-.74.93-.552.186m.37 3.344c0-.186.373-.186.373 0s0 0-.373 0m.18-4.642v-.562l.562.745c-.001.001-.37.001-.562-.183m.745 4.083c0-.187.372-.187.372 0-.183.186-.183 0-.372 0m.745 2.786c.183-.556.37.558 0 0m.555-2.786c-.372 0-.372-.746-.744-.746.187-.185.744-.185 1.117-.185.186.745-.183.745-.373.93m.374 2.042c-.374-.924.928-1.3 1.117-.556.184.556-.745.744-1.117.556m1.117.93c-.745-1.114.556.745 0 0m0-.93c.184-.555.556.557 0 0"/></svg>