<?xml version="1.0" standalone="no"?>
<!DOCTYPE svg PUBLIC "-//W3C//DTD SVG 20010904//EN"
 "http://www.w3.org/TR/2001/REC-SVG-20010904/DTD/svg10.dtd">
<svg version="1.0" xmlns="http://www.w3.org/2000/svg"
 width="1600.000000pt" height="387.000000pt" viewBox="0 0 1600.000000 387.000000"
 preserveAspectRatio="xMidYMid meet">

<g transform="translate(0.000000,387.000000) scale(0.100000,-0.100000)"
fill="#000000" stroke="none">
<path d="M190 1910 l0 -1730 7790 0 7790 0 0 1730 0 1730 -7790 0 -7790 0 0
-1730z m15370 0 l0 -1520 -7580 0 -7580 0 0 1520 0 1520 7580 0 7580 0 0
-1520z"/>
<path d="M500 1910 l0 -1420 7478 2 7477 3 0 1415 0 1415 -7477 3 -7478 2 0
-1420z m12518 1213 l-3 -118 -122 -3 -123 -4 0 121 0 121 125 0 126 0 -3 -117z
m-5528 -43 l0 -80 -85 0 -85 0 0 80 0 80 85 0 85 0 0 -80z m4570 -184 c78 -20
107 -32 159 -71 52 -38 105 -119 133 -203 17 -53 40 -228 31 -244 -2 -5 -60
-8 -129 -8 l-124 0 0 78 c-1 146 -34 217 -118 254 -36 16 -60 19 -112 16 -131
-10 -188 -68 -210 -215 -8 -47 -10 -212 -8 -465 4 -360 6 -397 24 -446 41
-110 99 -155 204 -156 152 -1 220 95 220 312 l0 92 131 0 131 0 -7 -102 c-20
-277 -106 -416 -296 -475 -74 -23 -274 -23 -348 0 -166 52 -259 172 -296 383
-21 120 -21 742 -1 859 41 229 136 344 324 389 74 18 222 19 292 2z m960 -821
l0 -815 -125 0 -125 0 0 815 0 815 125 0 125 0 0 -815z m-9556 726 c33 -13 78
-41 101 -62 111 -102 144 -333 70 -484 -26 -54 -86 -121 -116 -130 -27 -9 -24
-18 10 -33 42 -18 106 -85 130 -135 40 -83 54 -163 48 -287 -8 -206 -61 -311
-185 -372 l-67 -33 -262 -3 -263 -4 0 787 0 787 238 -4 c220 -4 241 -5 296
-27z m1256 -26 l0 -55 -220 0 -220 0 0 -300 0 -300 155 0 155 0 0 -50 0 -50
-155 0 -155 0 0 -325 0 -325 220 0 220 0 0 -55 0 -55 -295 0 -295 0 0 785 0
785 295 0 295 0 0 -55z m965 39 c161 -41 232 -144 242 -349 10 -204 -52 -340
-185 -401 -23 -10 -42 -24 -42 -29 0 -6 56 -179 125 -385 69 -206 125 -378
125 -382 0 -5 -35 -8 -78 -8 l-78 0 -28 88 c-21 67 -191 598 -211 660 -3 9
-42 12 -150 12 l-145 0 0 -380 0 -380 -75 0 -75 0 0 785 0 785 258 0 c201 0
271 -3 317 -16z m835 -714 l0 -730 235 0 235 0 0 -55 0 -55 -310 0 -310 0 0
785 0 785 75 0 75 0 0 -730z m960 -55 l0 -785 -75 0 -75 0 0 785 0 785 75 0
75 0 0 -785z m663 653 c62 -148 258 -601 286 -663 10 -22 55 -128 102 -236
l84 -197 3 614 2 614 65 0 65 0 0 -785 0 -785 -57 0 -58 0 -64 148 c-63 144
-88 200 -134 305 -13 28 -93 209 -178 401 l-154 350 -3 -602 -2 -602 -65 0
-65 0 0 785 0 785 58 0 58 0 57 -132z m1687 77 l0 -55 -220 0 -220 0 0 -300 0
-300 155 0 155 0 0 -50 0 -50 -155 0 -155 0 0 -325 0 -325 220 0 220 0 0 -55
0 -55 -295 0 -295 0 0 785 0 785 295 0 295 0 0 -55z m961 41 c165 -38 238
-144 247 -355 5 -120 -8 -193 -46 -265 -30 -56 -99 -120 -148 -138 -19 -7 -34
-17 -34 -24 0 -6 56 -178 125 -382 69 -205 125 -376 125 -382 0 -6 -33 -10
-80 -10 -54 0 -80 4 -80 12 0 10 -43 144 -204 643 l-33 100 -141 3 -142 3 0
-381 0 -380 -80 0 -80 0 0 785 0 785 257 0 c179 0 275 -4 314 -14z m-2628
-1709 c124 -73 175 -211 127 -339 -26 -71 -67 -117 -131 -153 -47 -25 -64 -29
-129 -29 -84 1 -130 17 -185 65 -61 54 -88 111 -93 198 -4 71 -2 80 29 140 25
47 47 73 83 98 64 44 97 53 182 49 56 -2 82 -9 117 -29z m1963 5 c204 -105
205 -394 0 -499 -42 -22 -64 -27 -126 -27 -115 0 -196 49 -247 148 -79 155 0
343 167 397 44 15 161 4 206 -19z m1859 0 c47 -24 106 -83 130 -132 10 -19 20
-62 23 -96 9 -115 -48 -218 -152 -271 -42 -22 -64 -27 -126 -27 -115 0 -195
48 -248 149 -23 42 -27 62 -26 130 0 91 14 127 73 188 63 67 117 88 216 83 46
-2 84 -10 110 -24z m-2713 -129 l3 -138 45 72 c34 55 51 72 68 73 22 0 22 -2
-13 -56 -40 -62 -41 -48 8 -176 25 -64 25 -68 7 -68 -13 0 -23 14 -36 48 -9
26 -23 62 -31 81 l-13 34 -20 -26 c-15 -18 -20 -40 -20 -81 0 -43 -3 -56 -15
-56 -13 0 -15 31 -15 215 0 183 2 215 15 215 12 0 15 -24 17 -137z m3208 62
l0 -76 30 16 c38 20 46 19 70 -5 18 -18 20 -33 20 -155 0 -128 -1 -135 -20
-135 -19 0 -20 7 -20 134 0 115 -2 135 -16 140 -9 4 -27 -1 -40 -9 -23 -15
-24 -20 -24 -141 0 -114 -2 -125 -17 -122 -16 3 -18 22 -21 202 -2 110 -1 205
2 213 3 7 12 13 21 13 12 0 15 -14 15 -75z m-1550 40 c0 -8 -9 -15 -20 -15
-11 0 -20 -3 -21 -7 -1 -5 -2 -23 -3 -40 -2 -32 0 -33 36 -33 38 0 38 0 38 39
0 23 7 46 16 55 20 21 64 21 64 1 0 -8 -9 -15 -20 -15 -17 0 -20 -7 -20 -40 0
-33 3 -40 20 -40 11 0 20 -4 20 -10 0 -5 -9 -10 -20 -10 -19 0 -20 -7 -20
-140 0 -133 -1 -140 -20 -140 -19 0 -20 7 -20 140 l0 140 -35 0 c-21 0 -35 -5
-35 -12 0 -7 -2 -69 -3 -138 -2 -110 -4 -125 -19 -128 -16 -3 -18 9 -18 137 0
134 -1 141 -20 141 -11 0 -20 5 -20 10 0 6 9 10 20 10 17 0 20 7 20 39 0 23 7
46 16 55 20 21 64 21 64 1z m-2377 -117 c10 -12 17 -28 15 -36 -4 -19 -28 -28
-28 -11 0 17 -30 49 -46 49 -20 0 -36 -37 -25 -58 5 -9 32 -40 60 -68 41 -41
51 -58 51 -84 0 -45 -25 -70 -70 -70 -37 0 -70 24 -83 63 -10 27 16 20 45 -13
30 -34 40 -36 62 -14 26 25 19 43 -44 108 -46 48 -60 70 -60 92 0 34 7 46 35
62 26 16 66 6 88 -20z m202 7 c24 -23 25 -29 25 -155 0 -123 -1 -130 -20 -130
-19 0 -20 7 -20 129 0 102 -3 131 -15 141 -12 10 -20 9 -40 -4 -24 -16 -25
-19 -25 -141 0 -118 -1 -125 -20 -125 -19 0 -20 7 -20 150 0 143 1 150 20 150
11 0 20 -4 20 -9 0 -6 12 -3 28 5 36 19 39 18 67 -11z m208 -7 c24 -28 26
-278 2 -278 -8 0 -15 7 -15 15 0 14 -3 14 -24 0 -59 -39 -119 10 -97 78 10 30
52 67 94 83 12 4 17 17 17 44 0 62 -52 82 -66 25 -4 -16 -13 -25 -25 -25 -28
0 -23 27 11 62 25 24 36 29 58 24 15 -4 35 -16 45 -28z m191 10 c15 -13 29
-38 32 -55 6 -29 4 -33 -15 -33 -16 0 -21 6 -21 28 0 49 -49 72 -70 33 -13
-25 -13 -181 0 -215 18 -48 70 -23 70 33 0 15 6 21 21 21 19 0 21 -4 15 -32
-10 -50 -33 -69 -80 -66 -36 3 -43 8 -58 38 -22 44 -24 166 -3 215 13 32 40
53 72 54 7 1 23 -9 37 -21z m397 -7 c33 -33 36 -46 14 -55 -11 -4 -19 3 -25
19 -12 31 -35 41 -55 25 -28 -23 -17 -57 31 -97 57 -47 77 -85 69 -124 -12
-55 -88 -68 -130 -23 -29 31 -32 49 -10 58 9 3 15 0 15 -8 0 -7 11 -23 25 -36
31 -29 58 -19 63 24 3 21 -9 38 -57 86 -62 60 -71 83 -50 121 10 20 41 37 67
38 8 1 27 -12 43 -28z m994 4 c16 -15 25 -36 25 -55 0 -44 -26 -39 -37 7 -9
40 -33 54 -58 33 -20 -17 -21 -208 -2 -234 21 -29 50 -16 60 27 11 44 37 51
37 9 0 -46 -25 -72 -70 -72 -30 0 -43 6 -59 26 -18 23 -21 41 -21 120 0 100
10 136 44 152 34 17 55 14 81 -13z m200 1 c29 -29 40 -94 32 -184 -8 -78 -25
-102 -77 -102 -64 0 -75 23 -75 152 0 108 0 110 28 134 35 30 61 30 92 0z
m449 2 c19 -17 27 -37 32 -75 l7 -53 -62 0 -61 0 0 -53 c0 -29 6 -61 13 -71
20 -27 50 -16 62 22 11 37 35 43 35 9 0 -41 -27 -67 -69 -67 -65 0 -76 23 -76
152 0 108 0 110 28 134 35 30 59 30 91 2z m219 -10 c11 -13 17 -37 17 -69 l0
-49 -60 0 -60 0 0 -42 c0 -87 51 -125 79 -60 8 17 21 32 28 32 31 0 1 -78 -33
-86 -41 -11 -78 0 -91 26 -15 30 -17 197 -3 235 18 47 87 55 123 13z m931 22
c14 -5 32 -22 40 -39 14 -26 14 -30 0 -35 -9 -4 -19 3 -26 19 -20 44 -68 42
-68 -3 0 -17 18 -44 55 -83 60 -63 71 -104 38 -141 -26 -29 -87 -24 -112 8
-12 15 -21 33 -21 40 0 22 28 16 35 -7 9 -29 50 -46 70 -29 28 24 17 54 -45
115 -48 47 -60 66 -60 91 0 30 19 56 50 67 8 3 16 6 17 6 1 1 13 -3 27 -9z
m421 -2 c35 -16 48 -67 44 -170 -5 -103 -20 -128 -80 -128 -59 0 -73 29 -73
149 0 103 11 136 47 151 30 12 32 12 62 -2z m239 -21 c18 -24 21 -42 21 -126
0 -114 -16 -151 -65 -151 -16 0 -32 5 -35 10 -15 24 -25 6 -25 -45 0 -42 -3
-55 -15 -55 -13 0 -15 28 -15 195 0 162 2 195 14 195 8 0 16 -5 18 -12 3 -8
11 -7 29 5 31 22 47 19 73 -16z"/>
<path d="M3080 2441 c0 -248 2 -280 16 -285 31 -12 282 2 311 18 83 43 128
183 104 327 -29 175 -89 219 -301 219 l-130 0 0 -279z"/>
<path d="M3080 1705 l0 -347 163 4 c178 4 202 11 251 68 45 54 61 128 61 285
0 148 -9 199 -48 255 -44 66 -72 75 -259 79 l-168 3 0 -347z"/>
<path d="M5267 2713 c-4 -3 -7 -134 -7 -290 l0 -283 188 0 c175 0 190 2 227
23 30 16 48 37 70 82 28 56 30 67 30 175 0 128 -12 184 -52 231 -50 59 -87 69
-279 69 -94 0 -174 -3 -177 -7z"/>
<path d="M10380 2430 l0 -290 179 0 c197 0 230 7 273 59 65 77 79 303 25 413
-24 48 -36 61 -79 82 -50 25 -59 26 -225 26 l-173 0 0 -290z"/>
<path d="M7945 1038 c-32 -17 -76 -61 -91 -90 -18 -35 -18 -131 0 -167 22 -42
81 -89 127 -101 123 -33 249 74 237 200 -6 63 -46 123 -98 150 -44 22 -141 27
-175 8z m129 -134 c35 -35 6 -104 -44 -104 -54 0 -83 64 -48 108 15 17 74 15
92 -4z m86 -36 c0 -16 5 -19 24 -14 22 5 23 4 16 -27 -10 -45 -29 -79 -41 -72
-5 4 -8 1 -7 -5 6 -24 -51 -54 -111 -58 -52 -4 -67 -1 -105 22 -25 14 -47 30
-50 34 -8 13 19 105 32 110 12 4 36 -44 27 -57 -2 -4 22 -9 55 -10 53 -2 61 1
94 31 20 18 36 40 36 49 0 9 3 19 6 22 11 11 24 -3 24 -25z"/>
<path d="M9872 1083 c-42 -21 -52 -57 -23 -86 18 -18 35 -22 123 -25 l103 -5
-55 -14 c-67 -17 -85 -32 -76 -67 6 -23 11 -26 51 -26 25 0 45 -3 45 -7 0 -4
-12 -20 -27 -35 -15 -15 -22 -28 -17 -28 6 0 25 16 44 35 28 29 31 37 20 50
-7 9 -29 15 -53 15 -60 0 -34 18 44 31 86 13 97 17 109 39 7 14 6 23 -6 34
-12 13 -39 16 -127 16 -129 0 -159 6 -155 29 4 21 60 40 128 41 43 2 50 4 30
10 -43 14 -123 10 -158 -7z"/>
<path d="M9885 808 c-3 -12 -2 -35 3 -97 3 -30 57 -78 96 -85 25 -5 48 -1 80
14 25 11 50 20 55 20 20 0 51 40 51 66 0 17 -6 28 -20 31 -12 3 -20 14 -20 27
0 33 -12 39 -24 14 -11 -21 -17 -23 -86 -20 -57 3 -80 8 -96 23 -24 22 -33 24
-39 7z m73 -39 c10 0 12 -2 4 -6 -15 -6 -62 23 -62 37 0 6 9 1 20 -10 11 -11
28 -20 38 -21z m148 -14 c-11 -8 -25 -15 -30 -15 -6 1 0 7 14 15 32 19 40 18
16 0z m-106 -15 l65 -7 -55 -1 c-30 -1 -68 6 -85 14 -16 8 -21 11 -10 8 11 -4
49 -10 85 -14z m150 -20 c0 -10 -9 -24 -20 -30 -23 -12 -24 -11 -10 24 11 31
30 34 30 6z"/>
<path d="M10090 808 c0 -9 -6 -19 -12 -21 -10 -4 -10 -6 0 -6 14 -1 28 26 18
36 -3 4 -6 -1 -6 -9z"/>
<path d="M11850 1080 c-8 -5 -12 -12 -9 -15 4 -3 12 1 19 10 14 17 11 19 -10
5z"/>
<path d="M11913 1076 c29 -30 19 -36 -54 -35 -38 1 -72 0 -74 -2 -2 -2 -6 -21
-10 -41 -6 -31 -4 -38 9 -38 9 0 19 -7 22 -15 4 -8 17 -15 30 -15 21 0 24 -4
22 -37 -1 -37 -1 -37 -5 -5 -4 32 -5 32 -59 32 -33 0 -54 4 -54 11 0 7 12 10
29 7 17 -2 28 -1 25 4 -9 14 -54 9 -60 -7 -4 -8 -14 -15 -24 -15 -20 0 -25
-20 -36 -152 l-6 -78 101 0 100 0 -4 83 c-2 45 -2 69 1 52 2 -16 7 -45 10 -62
l5 -33 75 0 75 0 -6 48 c-9 80 -25 241 -25 252 0 5 -12 10 -28 10 -18 0 -30 7
-37 22 -6 12 -17 24 -25 26 -11 4 -10 1 3 -12z"/>
<path d="M8903 826 c-52 -44 -57 -106 -9 -106 35 0 47 22 44 81 l-3 52 -32
-27z"/>
<path d="M10670 951 c-5 -11 -10 -61 -10 -111 0 -99 10 -130 41 -130 28 0 39
37 39 130 0 43 -4 90 -10 104 -11 31 -45 35 -60 7z"/>
<path d="M11122 958 c-7 -7 -12 -29 -12 -50 0 -38 0 -38 40 -38 38 0 40 2 40
31 0 58 -36 89 -68 57z"/>
<path d="M11333 962 c-7 -4 -15 -27 -19 -50 l-7 -42 42 0 42 0 -3 48 c-2 38
-7 47 -23 50 -11 1 -25 -1 -32 -6z"/>
<path d="M12704 958 c-13 -21 -17 -181 -5 -211 14 -36 40 -46 57 -22 18 25 19
216 2 233 -16 16 -45 15 -54 0z"/>
<path d="M12922 954 c-20 -14 -22 -23 -22 -114 0 -94 1 -100 24 -115 49 -33
66 -4 66 117 0 118 -18 148 -68 112z"/>
</g>
</svg>
