<svg xmlns="http://www.w3.org/2000/svg" xmlns:xlink="http://www.w3.org/1999/xlink" width="560" height="560"><defs><path id="A" d="M-150.674 16.262h857.406V547.03h-857.406z"/></defs><clipPath id="B"><use xlink:href="#A"/></clipPath><g clip-path="url(#B)" fill="#1e1e1e"><path d="M242.87 207.598c.36.357.948.804 1.764 1.352.554.384 1.214.733 2 1.063l1.063.45 1.07.417-6.68 4.955a16.8 16.8 0 0 0-5.981-1.964c-.738-.086-1.458-.123-2.175-.123-2.245 0-4.466.432-6.678 1.312 1.6-2.954 4.004-5.1 7.17-6.438-.054-.412-.08-.792-.08-1.146V173.14c-.1-.765-.252-1.422-.492-1.97-.523-1.257-1.42-1.9-2.7-1.9-.57 0-1.215.135-1.928.38.033 0 .13-.138.295-.412.107-.133.204-.276.28-.4l.416-.528a15.65 15.65 0 0 1 1.064-1.192c.493-.462.998-.848 1.518-1.143 1.068-.606 2.175-.907 3.32-.907.843 0 1.723.165 2.62.493 1.555.57 2.487 1.956 2.784 4.138l.248 2.83v31.593c0 1.3.255 2.3.74 3l.358.5zm14.633-11.105v.165c0 .08.01.17.042.3.018.35.064.7.123 1.068.22 1.087.566 2.1 1.065 3.025 1.526 2.842 4.118 4.263 7.786 4.263V192.07c-2.904 1.23-5.44 1.842-7.626 1.842-1.177 0-2.254-.177-3.235-.53-3.604-1.34-5.407-5.134-5.407-11.395v-7.58l14-10.495c.025-.023.083-.033.163-.033.244 0 .752.214 1.514.656 1.038.626 2.066 1.404 3.073 2.33 2.868 2.65 4.303 5.286 4.303 7.914v28.72l-14.87 11.263-4.143-3.603c-1.146-1.204-2.046-2.332-2.707-3.395-.928-1.6-1.394-3.142-1.394-4.68v-1.516l7.3-5.077zm6.428-11.062a5.33 5.33 0 0 1 .66-.163 13.82 13.82 0 0 1 .864-.205c.702-.216 1.064-.395 1.064-.53v-3.32c-.034-.357-.1-.712-.165-1.07-.2-1.087-.54-2.083-1.023-2.986-1.507-2.87-4.075-4.303-7.708-4.303v5.612c0 .82.262 1.93.78 3.317.654 1.752 1.6 2.87 2.866 3.36.572.222 1.17.33 1.804.33a6.28 6.28 0 0 0 .734-.043h.125zm21.396 11.062v.165a1.06 1.06 0 0 0 .043.29 12.05 12.05 0 0 0 .116 1.068c.22 1.087.573 2.1 1.067 3.025 1.53 2.842 4.123 4.263 7.786 4.263V192.07c-2.895 1.23-5.438 1.842-7.62 1.842-1.175 0-2.257-.177-3.24-.53-3.605-1.34-5.405-5.134-5.405-11.395v-7.58l14.007-10.495c.025-.023.08-.033.163-.033.245 0 .754.214 1.514.656 1.042.626 2.063 1.404 3.075 2.33 2.863 2.65 4.304 5.286 4.304 7.914v28.72l-14.872 11.263-4.142-3.603c-1.145-1.204-2.044-2.332-2.7-3.395-.93-1.6-1.396-3.142-1.396-4.68v-1.516l7.3-5.077zm6.426-11.062c.165-.056.386-.1.657-.163a15.25 15.25 0 0 1 .862-.205c.708-.216 1.067-.395 1.067-.53v-3.32c-.03-.357-.087-.712-.168-1.07-.2-1.087-.535-2.083-1.026-2.986-1.505-2.87-4.067-4.303-7.7-4.303v5.612c0 .82.26 1.93.778 3.317.656 1.752 1.608 2.87 2.865 3.36.572.222 1.172.33 1.805.33a6.33 6.33 0 0 0 .737-.043h.122zm28.07 22.167c.354.357.94.804 1.762 1.352.548.384 1.22.733 2 1.063l1.066.45 1.063.417-6.676 4.955c-1.9-1.035-3.88-1.694-5.985-1.964a18.79 18.79 0 0 0-2.168-.123c-2.244 0-4.472.432-6.687 1.312 1.617-2.954 4.008-5.1 7.17-6.438a8.97 8.97 0 0 1-.077-1.146V173.14c-.086-.765-.25-1.422-.5-1.97-.517-1.257-1.417-1.9-2.697-1.9-.57 0-1.224.135-1.93.38.023 0 .122-.138.286-.412a2.64 2.64 0 0 0 .284-.411l.413-.528c.355-.44.715-.836 1.066-1.192.5-.462.995-.848 1.515-1.143 1.062-.606 2.168-.907 3.318-.907.85 0 1.726.165 2.63.493 1.547.57 2.476 1.956 2.78 4.138l.243 2.83v31.593c0 1.3.25 2.3.738 3l.372.5zm-218.198 30.565c-3.707-.455-7.257-1.775-10.643-3.93s-6.006-5.458-7.862-9.923c.176.412 1.404 1.175 3.696 2.322 2.283 1.142 5.024 1.923 8.208 2.327 1.185.173 4.8.367 10.862.583s10.55 1.023 13.5 2.416c2.9 1.417 5.48 4.98 7.775 10.684-2.12-1.913-7.796-3.255-17.03-4.04h-1.304c-.3 1.62-.435 3.565-.435 5.82 0 4.465.566 10.212 1.694 17.244a26.3 26.3 0 0 1 .307 3.9c0 8.664-5.102 15.2-15.297 19.587.934-.25 1.817-.93 2.658-2.04.72-.924 1.257-2.064 1.603-3.433.263-2.424.4-4.804.4-7.12a63.69 63.69 0 0 0-.43-7.477L97.848 252a13.22 13.22 0 0 1-.084-1.519c-.003-3.645 1.28-7.76 3.86-12.34M143.9 272.1a4.09 4.09 0 0 0 .519 2.001c.254.52.6 1.023 1.043 1.52.55.544 1.082.98 1.6 1.3l-6.464 4.78c-1.075-.607-1.982-1.534-2.735-2.78-.56-.92-1.014-1.997-1.394-3.216l-8.08 5.997c-3.914-1.534-6.17-4.066-6.774-7.6h-.044c-.116-.58-.188-1.25-.213-2h.04V257.25c0-1.535.815-3.175 2.432-4.913 1.275-1.388 3.06-2.794 5.343-4.2 2.607-1.655 5.198-3 7.773-4.085 2.547.986 4.405 2.418 5.565 4.3.927 1.506 1.4 3.228 1.4 5.165l-.003 18.594zm-7.862-18.675c0-1.247-.84-2.345-2.52-3.304-2.78 2.057-4.172 4.262-4.172 6.606v15.597c0 1.24.836 2.344 2.52 3.297l4.126-3.042.046-19.154zm33.065-9.395c2.58 1.014 4.44 2.478 5.6 4.4l-6.563 4.862c-.055-1.188-.88-2.246-2.473-3.17l-4.215 3.08v18.033c0 .894.157 1.75.483 2.56.255.638.62 1.216 1.08 1.744.52.63 1.045 1.093 1.567 1.386l-6.473 4.777-.045-.045h-.04l-.092-.04-.213-.138-.308-.163-.737-.528-.868-.736a7.47 7.47 0 0 1-1.569-2.129c-.494-.955-.736-1.982-.736-3.082v-20.287c0-1.65-.52-3.068-1.562-4.253-.52-.614-1.045-1.058-1.563-1.346l6.43-4.778h.05l.13.084.167.085.26.133.65.436.742.602c.605.523 1.113 1.104 1.52 1.742a6.29 6.29 0 0 1 1 2.52l7.772-5.74zm19.99 27.28c0 1.652.522 3.066 1.567 4.26.517.6 1.038 1.052 1.562 1.34l-6.47 4.78-.045-.044h-.045l-.085-.042-.222-.132-.302-.174-.74-.52c-.287-.23-.562-.48-.823-.736a7.17 7.17 0 0 1-1.612-2.132 6.66 6.66 0 0 1-.735-3.08v-20.3c0-1.65-.52-3.066-1.562-4.253-.528-.6-1.042-1.058-1.565-1.346l6.43-4.783h.043l.08.044.096.043.2.135.305.174c.237.145.48.312.74.517l.83.702c.697.668 1.233 1.37 1.606 2.125a6.93 6.93 0 0 1 .741 3.125l-.005 20.284zm-4.302-37.617a7.69 7.69 0 0 0 .822 1.085 7.53 7.53 0 0 0 1.395 1.176c.92.55 1.938.824 3.037.824.612 0 1.248-.088 1.9-.257-.952 1.905-2.228 3.412-3.818 4.52-1.2.807-2.373 1.212-3.57 1.212-2.08 0-4.18-1.245-6.298-3.735l6.522-4.825zm36.453 37.617c0 2.488 1.045 4.36 3.125 5.605l-6.426 4.777-.04-.044h-.042c-3.013-2.252-4.518-5.1-4.518-8.55v-19.68c0-1.243-.84-2.345-2.522-3.304l-4.2 3.082v18.113c0 2.488 1.027 4.36 3.08 5.605l-6.424 4.777-.05-.044h-.043c-3-2.252-4.515-5.1-4.515-8.55v-33.93c0-.93-.164-1.782-.478-2.56a6.97 6.97 0 0 0-1.087-1.74c-.524-.58-1.046-1.008-1.564-1.305l6.434-4.777h.084l.045.05.088.033.22.136.3.17c.23.145.473.32.736.522a5.42 5.42 0 0 1 .825.693c.696.67 1.232 1.376 1.606 2.135.493.98.74 2.023.74 3.118v14.08l7.646-5.694c2.55.986 4.4 2.422 5.56 4.304.925 1.507 1.385 3.23 1.385 5.166l.045 17.816zm17.517 0c0 1.652.52 3.066 1.562 4.26.52.6 1.04 1.052 1.562 1.34l-6.466 4.78-.053-.048h-.04l-.085-.04-.213-.135-.3-.172-.74-.522a9.93 9.93 0 0 1-.823-.736c-.695-.64-1.235-1.35-1.6-2.13-.492-.95-.735-1.982-.735-3.082V254.54c0-1.65-.52-3.066-1.56-4.253-.525-.6-1.043-1.058-1.567-1.346l6.427-4.783h.047l.083.044.1.043.218.135.3.174c.24.145.48.312.74.517l.83.702c.693.668 1.232 1.37 1.606 2.125a6.93 6.93 0 0 1 .741 3.125l-.005 20.284zm-4.3-37.617c.23.375.507.735.824 1.085.433.463.9.86 1.394 1.176.922.55 1.94.824 3.04.824.607 0 1.248-.088 1.907-.257-.956 1.905-2.228 3.412-3.82 4.52-1.2.807-2.374 1.212-3.565 1.212-2.086 0-4.186-1.245-6.303-3.735l6.523-4.825zm69.173 12.377c.95 2.604 1.46 5.244 1.514 7.913v.468c0 2.642-.45 5.126-1.35 7.475-2.4 6.66-9.987 14.958-22.76 24.9-.2 0-1.302-.374-3.3-1.13-2.15-.782-3.495-1.3-4.042-1.563-4.405-2.115-8.122-4.693-11.167-7.73-3.42-3.4-5.78-7.15-7.075-11.295-.843-2.718-1.267-5.286-1.267-7.7a17.84 17.84 0 0 1 .092-1.779c.287-2.898 1.27-5.922 2.955-9.077 1.478-2.778 3.94-5.78 7.4-8.992 1.2-1.13 3.346-2.762 6.4-4.887s4.934-3.28 5.625-3.45c.152-.03.352-.05.6-.05 1.04 0 3 .245 5.9.74 3.648.64 7.184 2.087 10.597 4.346 4.84 3.184 8.13 7.118 9.867 11.8m-7.56 19.028c.37-1.797.562-3.527.562-5.213 0-3.3-.727-6.396-2.173-9.297-2.688-5.412-7.478-9.737-14.374-12.984-.634-.3-1.58-.55-2.825-.787-.517-.056-1.06-.082-1.6-.082-1.945 0-3.942.375-6.003 1.13-1.708.6-3.185 1.62-4.424 3.043a11.99 11.99 0 0 0-2.564 4.774c-.493 1.883-.735 3.7-.735 5.473a18.44 18.44 0 0 0 .342 3.565c.55 2.642 1.787 5.472 3.7 8.512 4.024 6.373 10.555 11.234 19.587 14.596 6.223-4.867 9.723-9.112 10.508-12.73m31.207-21.067c2.58 1.014 4.448 2.478 5.608 4.4l-6.56 4.862c-.055-1.188-.886-2.246-2.474-3.17l-4.22 3.08v18.033c0 .894.16 1.75.48 2.56.26.638.623 1.216 1.092 1.744.518.63 1.04 1.093 1.556 1.386l-6.465 4.777-.044-.045h-.045l-.1-.04-.214-.138-.312-.163-.73-.528-.866-.736c-.663-.637-1.2-1.35-1.564-2.13-.494-.955-.745-1.982-.745-3.082v-20.287c0-1.65-.516-3.068-1.56-4.253-.523-.614-1.044-1.058-1.564-1.346l6.426-4.778h.044l.133.084.174.085.257.133.66.436.73.602c.614.523 1.115 1.104 1.524 1.742.52.784.858 1.62.994 2.52l7.773-5.74zm18.777 4.1v23.2c0 1.652.52 3.066 1.56 4.26.52.6 1.044 1.052 1.563 1.342l-6.427 4.78-.045-.044h-.087l-.088-.043-.22-.138-.302-.17-.74-.522a10.3 10.3 0 0 1-.824-.736 7.15 7.15 0 0 1-1.612-2.129c-.486-.96-.734-1.982-.734-3.082v-26.7h-3.217l1.74-4.086h1.518c0-1.848-.167-3.173-.52-3.95-.26-.615-.624-1.192-1.1-1.74-.517-.58-1.044-1.012-1.56-1.3l6.47-4.78h.046l.042.045.1.045.214.13.302.173c.266.145.507.32.735.52a8.28 8.28 0 0 1 .88.69c.653.67 1.187 1.376 1.56 2.132.494 1 .744 2.026.744 3.127v4.9h3.7L348 248.12h-1.95zm31.716 23.98a4.12 4.12 0 0 0 .52 2c.257.52.6 1.023 1.047 1.52.55.544 1.08.98 1.606 1.3l-6.47 4.78c-1.075-.607-1.987-1.534-2.74-2.78-.545-.92-1.006-1.997-1.386-3.216l-8.084 5.997c-3.905-1.534-6.168-4.066-6.773-7.6h-.047c-.117-.58-.2-1.25-.22-2h.05v-14.853c0-1.535.814-3.175 2.43-4.913 1.273-1.388 3.056-2.794 5.347-4.2 2.606-1.655 5.203-3 7.775-4.085 2.55.986 4.406 2.418 5.563 4.3.923 1.506 1.4 3.228 1.4 5.165l-.005 18.594zm-7.862-18.675c0-1.247-.84-2.345-2.52-3.304-2.787 2.057-4.166 4.262-4.166 6.606v15.597c0 1.24.834 2.344 2.515 3.297l4.124-3.042.048-19.154zm16.61-14.258a6.75 6.75 0 0 0-.483-2.561c-.264-.612-.624-1.193-1.1-1.735-.517-.584-1.044-1.014-1.563-1.308l6.474-4.777h.045l.043.045.088.045.212.127.312.17a4.79 4.79 0 0 1 .737.522 6.53 6.53 0 0 1 .83.693c.7.67 1.23 1.374 1.608 2.13a6.9 6.9 0 0 1 .739 3.124V250.5l9.557-7.12.04.04.04-.085a6.53 6.53 0 0 0 .829 1.126c.433.46.912.84 1.437 1.13.895.55 1.896.824 2.995.824.613 0 1.246-.1 1.917-.26-.53 1.068-1.268 2.113-2.23 3.127-.807.872-1.643 1.52-2.507 1.96-.874.43-1.74.648-2.604.648-.267 0-.522-.015-.788-.043 2.317 1.015 4.023 2.435 5.13 4.255.864 1.448 1.298 3.104 1.298 4.95v10.252c0 2.488 1.042 4.362 3.133 5.605l-6.432 4.777-.042-.04h-.04c-2.928-2.202-4.433-4.97-4.516-8.295v-12.376c0-1.22-.846-2.32-2.525-3.3l-4.686 3.467v10.167c0 2.488 1.038 4.36 3.123 5.604l-6.476 4.78-.044-.044h-.04c-3-2.256-4.514-5.1-4.514-8.554l-.005-33.926zm15.974 12.508c-.98-.264-1.938-.752-2.864-1.477l-5.166 3.82v3.603l8.03-5.947zm36.412 23.76l-8.207 6.256-1.173-.133c-.525-.1-1.045-.2-1.564-.35a12.74 12.74 0 0 1-3.824-1.816c-3.297-2.318-5.4-6.085-6.294-11.292-.293-1.564-.43-3.158-.43-4.783 0-1.94.202-3.915.606-5.947.668-3.302 1.86-6.067 3.602-8.3 2.197-2.78 5.185-4.66 8.947-5.642 6.398 1.85 9.6 9.207 9.6 22.065 0 2.924-.158 6.108-.482 9.556l-.782.386zm-14.8-43.998c.637 1.477 2.097 3.243 4.385 5.3l-6.47 4.777c-.78-.404-1.55-1.028-2.304-1.866-.867-1.016-1.55-2.173-2.037-3.475l6.426-4.735zm8.56 35.094c-.067-11.5-2.265-17.26-6.6-17.3-1.296 2.23-1.95 5.108-1.95 8.64 0 2.145.233 4.504.698 7.088.256 2.024 1.07 3.965 2.427 5.817 1.42 1.94 3.232 3.244 5.435 3.915l-.001-8.17zm3.908-35.094c.644 1.477 2.1 3.243 4.384 5.3l-6.468 4.777c-.78-.404-1.55-1.028-2.3-1.866-.878-1.016-1.543-2.173-2.047-3.475l6.432-4.735z"/><path d="M464.962 244.03l.043.043h.047l.1.045.214.13.3.175c.27.17.512.347.736.52a8.71 8.71 0 0 1 .878.738c.662.64 1.195 1.35 1.606 2.13a6.71 6.71 0 0 1 .74 3.08v27.372c-.03 4.75-.946 8.616-2.74 11.595l-.608.9c-.258.43-.538.824-.82 1.165-.726 1-1.5 1.816-2.303 2.484-1.88 1.623-3.943 2.432-6.173 2.432a9.53 9.53 0 0 1-1.298-.088c-2.293-.314-4.234-1.432-5.82-3.344-1.07-1.27-1.613-2.558-1.613-3.866 0-.84.24-1.696.694-2.563.758-1.413 1.897-2.143 3.437-2.172.5 0 .98.072 1.472.223a2.54 2.54 0 0 1 .483.126l.13.084h.04c-1.072.667-1.665 1.494-1.773 2.475v.307c0 .75.287 1.418.865 2.003.666.635 1.456.95 2.4.95h.224c1.15-.06 2.25-.62 3.297-1.7 1.444-1.477 2.167-3.234 2.167-5.257V276l-7.7 5.7c-2.52-.986-4.375-2.413-5.56-4.298-.925-1.502-1.4-3.23-1.4-5.17v-18.6a4.46 4.46 0 0 0-.476-2.003c-.264-.52-.63-1.026-1.085-1.52-.532-.55-1.055-.965-1.576-1.257l6.48-4.823c.897.55 1.692 1.303 2.4 2.26a12.52 12.52 0 0 1 1.385 2.74c.44 1.183.716 2.617.833 4.298l-.046 18.987c0 1.24.837 2.357 2.516 3.342l4.212-3.17v-18.072c0-1.622-.518-3.038-1.563-4.26-.52-.605-1.054-1.04-1.605-1.3l6.463-4.827zm-300.028 69.5h.047l9.254-9.9 4.038-4.297 1.22-1.3a3.64 3.64 0 0 1 .307-.344l.132-.134c1.127-1.154 1.694-2.217 1.694-3.167 0-.094-.02-.196-.047-.305-.086-.553-.362-1.13-.825-1.737-.4-.52-.896-1.033-1.48-1.524l6.478-4.82c2.057 2.115 3.272 4.38 3.65 6.815.08.524.127 1.042.127 1.567 0 .98-.147 1.97-.433 2.956-.55 1.967-1.667 3.847-3.346 5.643l-11.595 12.335c4.573 5.124 7.728 10.173 9.467 15.144 1.736 4.96 3.674 8.8 5.823 11.532 1.678 2.203 3.514 3.3 5.518 3.3.495 0 .998-.074 1.514-.218 0 3.042-1.305 4.953-3.9 5.734-1.07.345-2.096.52-3.088.52a8.39 8.39 0 0 1-4.166-1.087c-2.23-1.2-4.16-3.44-5.794-6.772l-2.85-5.865c-4.894-10.284-8.8-15.723-11.686-16.338h-.048v13.727c0 1.136.262 2.172.8 3.127.344.668.823 1.278 1.426 1.822l.96.564-.1.048.043.05-6.428 4.77h-.04l-.566.393a16.26 16.26 0 0 0-2.737-1.223c-1.2-.402-2.387-.7-3.602-.868-.753-.082-1.506-.125-2.268-.125-2.37 0-4.742.48-7.114 1.43.66-1.217 1.654-2.453 2.954-3.734 2.604-2.5 5.5-3.863 8.73-4.127V299.04c0-4.552-2.678-6.828-8.038-6.828 1.304-3.234 4.04-4.858 8.207-4.858 5.185 0 7.774 2.534 7.774 7.597v18.6zm50.653 16.684a6.69 6.69 0 0 0 .476 2.52 6.06 6.06 0 0 0 1.09 1.736c.52.6 1.042 1.06 1.564 1.35l-6.43 4.78h-.046l-.132-.096-.17-.083-.26-.134-.607-.435-.783-.605a7.87 7.87 0 0 1-1.52-1.737c-.5-.812-.83-1.667-1-2.567l-7.774 5.78c-2.52-.983-4.375-2.42-5.56-4.3-.925-1.503-1.392-3.23-1.392-5.17V312.67a4.46 4.46 0 0 0-.48-2c-.262-.546-.622-1.057-1.08-1.515-.527-.554-1.045-.985-1.568-1.306l6.43-4.78c.927.522 1.738 1.28 2.436 2.263.544.783 1.006 1.7 1.385 2.743.442 1.182.713 2.264.83 3.244v20.07c0 1.217.825 2.314 2.48 3.26l4.2-3.084V313.45c0-.9-.17-1.736-.52-2.52a6.67 6.67 0 0 0-1.04-1.734c-.55-.615-1.1-1.062-1.606-1.35l6.47-4.783h.042l.047.054.083.038.215.137.307.164.736.532.873.687a9.16 9.16 0 0 1 1.607 2.177 6.7 6.7 0 0 1 .741 3.086l-.054 20.283m29.888.13c0 2.5 1.03 4.357 3.078 5.605l-6.42 4.78-.05-.045h-.042c-2.98-2.26-4.475-5.112-4.475-8.562v-19.68c0-1.244-.824-2.342-2.48-3.297l-4.2 3.088v18.108c0 2.5 1.022 4.357 3.086 5.605l-6.426 4.78-.05-.045h-.042c-3.013-2.26-4.52-5.112-4.52-8.562v-18.545c0-1.647-.52-3.07-1.56-4.258-.526-.6-1.04-1.065-1.57-1.35l6.43-4.774h.047l.13.1.17.1.262.13.648.43.737.6a8.07 8.07 0 0 1 1.523 1.735 6.36 6.36 0 0 1 .998 2.523l7.776-5.732c3.274 1.273 5.4 3.303 6.385 6.08l8.162-6.08c2.55.984 4.408 2.418 5.563 4.3.93 1.498 1.392 3.23 1.392 5.168v17.8c0 2.5 1.038 4.357 3.124 5.605l-6.428 4.78-.045-.045h-.042c-3-2.26-4.522-5.112-4.522-8.562v-19.68c0-1.244-.824-2.342-2.478-3.297l-4.165 3.088v18.108h.013zm29.84 15.248c0 .895.154 1.742.478 2.522a5.96 5.96 0 0 0 1.086 1.733c.522.614 1.044 1.06 1.563 1.35l-6.473 4.775-.043-.044h-.044l-.1-.038-.2-.132-.307-.17-.738-.53a9.85 9.85 0 0 1-.826-.734c-.693-.637-1.23-1.347-1.6-2.127a6.64 6.64 0 0 1-.735-3.08v-35.672a7.05 7.05 0 0 0-.477-2.562 6.87 6.87 0 0 0-1.1-1.735c-.516-.585-1.042-1.018-1.56-1.306l6.43-4.773h.045l.134.082.17.1.26.133.65.432.738.604c.633.554 1.16 1.146 1.562 1.782.5.782.828 1.635 1 2.565l7.646-5.7c3.917 1.54 6.186 4.068 6.82 7.596l.044 21.377-11.602 8.727c-.46-.75-1.4-1.53-2.82-2.342v7.166zm0-33.404v20.807c.897-.345 1.773-.515 2.65-.515 1.36 0 2.68.43 3.955 1.296v-21.33c0-1.243-.827-2.356-2.473-3.337l-4.13 3.08zm28.753 18.156c0 1.65.523 3.076 1.564 4.257.52.612 1.043 1.064 1.563 1.35l-6.473 4.776-.044-.043h-.048l-.08-.04-.214-.13-.307-.172-.74-.523-.828-.74c-.7-.64-1.228-1.35-1.604-2.133-.5-.944-.738-1.98-.738-3.077v-20.3c0-1.654-.52-3.07-1.554-4.258-.536-.6-1.054-1.065-1.575-1.35l6.43-4.774h.047l.076.043.1.05.214.13.302.173a8.74 8.74 0 0 1 .739.517l.828.702c.698.665 1.23 1.373 1.6 2.127a6.95 6.95 0 0 1 .734 3.123v20.285zm-4.298-37.614a7.56 7.56 0 0 0 .83 1.085c.432.47.897.856 1.382 1.172.93.55 1.944.824 3.047.824a7.45 7.45 0 0 0 1.907-.261c-.952 1.9-2.23 3.415-3.818 4.518-1.187.816-2.376 1.215-3.57 1.215-2.08 0-4.18-1.242-6.297-3.735l6.518-4.818zm27.237 10.332c2.57 1.02 4.443 2.48 5.604 4.392l-6.56 4.86c-.06-1.186-.885-2.244-2.48-3.167l-4.212 3.088v18.02a7.07 7.07 0 0 0 .471 2.564 5.98 5.98 0 0 0 1.095 1.734c.515.643 1.04 1.104 1.553 1.4l-6.465 4.78-.045-.045h-.05l-.088-.034-.203-.137-.313-.166-.735-.523-.87-.74a7.33 7.33 0 0 1-1.565-2.133c-.5-.944-.74-1.98-.74-3.077v-20.3c0-1.654-.517-3.07-1.562-4.258-.522-.6-1.045-1.065-1.568-1.35l6.426-4.774h.048l.133.092.178.084.256.13.652.43.74.6a8 8 0 0 1 1.517 1.74 6.25 6.25 0 0 1 1.002 2.518l7.778-5.74zm14.86 26.763c2.17 2.945 5.23 4.43 9.208 4.43.98 0 2.023-.1 3.117-.266l-8.858 6.737a13.24 13.24 0 0 1-1.17-.13 14.27 14.27 0 0 1-1.563-.345 13.11 13.11 0 0 1-3.818-1.822c-3.306-2.32-5.406-6.085-6.3-11.298-.3-1.568-.438-3.154-.438-4.775 0-1.944.203-3.928.607-5.956.668-3.3 1.867-6.068 3.605-8.3 2.2-2.784 5.183-4.666 8.948-5.65l5.434 7.514-5.6 4.26-4.342-5.95c-1.298 2.23-1.953 5.113-1.953 8.643 0 2.142.227 4.5.7 7.083.262 2.02 1.074 3.96 2.443 5.816m24.49.518c0 1.65.526 3.076 1.563 4.257.523.612 1.043 1.064 1.565 1.35l-6.47 4.776-.05-.043h-.04l-.1-.04-.218-.13-.307-.172-.736-.523-.83-.74c-.688-.64-1.222-1.35-1.604-2.133a6.61 6.61 0 0 1-.733-3.077v-20.3c0-1.654-.52-3.07-1.562-4.258-.526-.6-1.046-1.065-1.564-1.35l6.428-4.774h.043l.085.043.1.05.217.13.3.173.736.517.825.702c.698.665 1.23 1.373 1.605 2.127.496 1 .74 2.027.74 3.123l-.003 20.286zm-4.3-37.614c.237.373.514.73.83 1.085a7.27 7.27 0 0 0 1.393 1.172c.92.55 1.942.824 3.04.824a7.6 7.6 0 0 0 1.916-.261c-.96 1.9-2.24 3.415-3.83 4.518-1.187.816-2.368 1.215-3.563 1.215-2.086 0-4.183-1.242-6.293-3.735l6.5-4.818zm23.782 25.65c3.983 2.303 6.146 4.57 6.494 6.8.23 1.334.345 2.54.345 3.605 0 .464-.022.913-.085 1.35-.23 1.818-.9 3.3-1.952 4.387l-6.996 5.3c-.836.612-1.77.9-2.78.9-1.27 0-2.706-.496-4.298-1.477-2.807-1.712-4.332-3.8-4.567-6.252l6.043-4.48c.204.728.548 1.464 1.044 2.18 1.325 1.905 2.892 3.1 4.7 3.563a3.22 3.22 0 0 0 .864.129c.815 0 1.4-.343 1.784-1.04.088-.145.155-.358.212-.647l.047-.306v-.3c.028-.177.038-.354.038-.526a2.92 2.92 0 0 0-.085-.732c-.52-2.617-2.37-4.72-5.56-6.324l-6.08-3.368c-2.203-1.675-3.305-3.63-3.305-5.86v-.486c.148-2.05.93-3.762 2.35-5.12l.43-.384 8.4-6.257c.255-.027.523-.042.816-.042 1.77 0 3.533.63 5.3 1.903 2.005 1.422 3.363 3.1 4.083 5.043l-6.212 4.647c0-.118-.428-.736-1.3-1.866-.956-1.154-1.842-1.974-2.65-2.44-.702-.46-1.612-.748-2.738-.858h-.175c-.318 0-.565.05-.734.17l-.087.082c-.612.463-.9 1.106-.9 1.914v.094c.025.283.102.6.2.944a5.19 5.19 0 0 0 .35.74c.697 1.043 3.045 2.714 7.02 5.017m20.7 11.96c0 1.65.515 3.076 1.563 4.257.518.612 1.04 1.064 1.563 1.35l-6.468 4.776-.053-.043h-.04l-.094-.04-.207-.13-.313-.172-.738-.523a11.31 11.31 0 0 1-.824-.739c-.688-.64-1.23-1.35-1.6-2.133a6.66 6.66 0 0 1-.735-3.077v-20.3c0-1.654-.517-3.07-1.563-4.258-.518-.6-1.038-1.065-1.56-1.35l6.432-4.774h.045l.086.043.087.05.214.13.303.173a7.97 7.97 0 0 1 .734.517l.83.702c.693.665 1.236 1.373 1.608 2.127a6.93 6.93 0 0 1 .739 3.123l-.001 20.285zm-4.302-37.614a7.4 7.4 0 0 0 .828 1.085c.438.47.902.856 1.388 1.172.928.55 1.94.824 3.046.824.606 0 1.237-.086 1.903-.26-.95 1.9-2.226 3.415-3.82 4.518-1.18.816-2.37 1.215-3.558 1.215-2.086 0-4.185-1.242-6.304-3.735l6.518-4.818z"/></g><defs><path id="C" d="M-150.674 16.262h857.406V547.03h-857.406z"/></defs><clipPath id="D"><use xlink:href="#C"/></clipPath><g clip-path="url(#D)"><path fill="#272626" d="M130.282 210.098l2.34-2.633c3.555-4.003 6.45-7.937 9.268-11.752 10.157-13.8 19.757-26.835 65.17-38.75 31.973-8.4 55.232-24.268 70.962-48.48 15.72 24.204 38.985 40.1 70.985 48.487 45.402 11.906 55.008 24.94 65.17 38.74 2.796 3.807 5.7 7.743 9.257 11.757l2.346 2.63c2.548 2.86 6.204 4.506 10.04 4.506 1.408 0 2.81-.223 4.162-.663l3.34-1.1c8.733-2.844 16.834-4.282 24.074-4.282 30.97 0 37.675 26.465 37.675 33.01v3.134a13.45 13.45 0 0 0 6.804 11.678l2.71 1.544c12.154 6.902 21.91 14.67 29.743 23.708-7.85 9.03-17.597 16.798-29.738 23.688l-2.716 1.545a13.46 13.46 0 0 0-6.808 11.687v3.13c0 6.55-6.705 33.015-37.694 33.02-7.233 0-15.328-1.444-24.056-4.278l-3.34-1.093a13.58 13.58 0 0 0-4.152-.655c-3.84 0-7.504 1.636-10.046 4.502l-2.33 2.626c-3.582 4.02-6.61 8.137-9.283 11.756-10.17 13.803-19.756 26.83-65.164 38.748-31.993 8.4-55.255 24.282-70.98 48.484-15.73-24.202-38.987-40.092-70.96-48.484-45.4-11.91-55.002-24.94-65.166-38.744-2.674-3.63-5.703-7.735-9.27-11.75l-2.34-2.633a13.45 13.45 0 0 0-10.042-4.502c-1.418 0-2.8.224-4.155.656l-3.342 1.095c-8.725 2.835-16.82 4.27-24.054 4.276-15.344 0-24.287-6.703-29.096-12.326-6.79-7.952-8.61-16.752-8.61-20.695v-3.128c0-4.82-2.604-9.306-6.805-11.684l-2.714-1.55c-12.143-6.894-21.888-14.66-29.734-23.688 7.83-9.033 17.578-16.803 29.734-23.707l2.714-1.542a13.45 13.45 0 0 0 6.805-11.68v-3.132c0-6.545 6.71-33.012 37.687-33.012 7.234 0 15.334 1.443 24.057 4.282l3.35 1.1a13.44 13.44 0 0 0 4.161.662c3.84-.004 7.497-1.648 10.044-4.51m145.436-108.075c-14.967 25.033-37.87 41.308-70.023 49.744-47.252 12.394-57.395 26.168-68.14 40.765-2.73 3.71-5.565 7.55-8.953 11.364l-2.334 2.63a8.19 8.19 0 0 1-8.524 2.308l-3.347-1.096c-9.267-3.013-17.924-4.542-25.726-4.542-35.39 0-43.055 30.768-43.055 38.384v3.134c0 2.896-1.56 5.575-4.087 7.006l-2.716 1.548c-13.5 7.667-24.184 16.387-32.667 26.664l-1.42 1.716 1.42 1.71c8.503 10.277 19.192 18.996 32.667 26.656l2.716 1.547c2.523 1.427 4.087 4.113 4.087 7.006v3.128c0 4.683 2.085 15.047 9.9 24.18 5.54 6.487 15.792 14.214 33.183 14.214 7.798 0 16.45-1.525 25.715-4.54l3.338-1.09a7.94 7.94 0 0 1 2.496-.397c2.3 0 4.496.98 6.024 2.703l2.34 2.627c3.406 3.827 6.357 7.834 8.963 11.37 10.742 14.577 20.893 28.35 68.124 40.753 32.16 8.438 55.056 24.724 70.03 49.74l2.307 3.866 2.308-3.866c14.96-25.017 37.874-41.302 70.037-49.74 47.236-12.403 57.388-26.178 68.13-40.76 2.606-3.532 5.556-7.537 8.97-11.372l2.327-2.622a8.18 8.18 0 0 1 8.521-2.308l3.34 1.092c9.268 3 17.92 4.538 25.718 4.538 35.4-.007 43.073-30.78 43.073-38.395v-3.127c0-2.894 1.564-5.586 4.084-7.016l2.722-1.54c13.468-7.653 24.165-16.37 32.672-26.65l1.425-1.712-1.425-1.718c-8.497-10.28-19.18-19.003-32.678-26.664l-2.72-1.545a8.07 8.07 0 0 1-4.078-7.008v-3.133c0-7.618-7.672-38.385-43.052-38.385-7.805 0-16.457 1.528-25.73 4.543l-3.35 1.095c-3.002.978-6.425.04-8.517-2.308l-2.34-2.628c-3.393-3.83-6.22-7.666-8.953-11.372-10.74-14.588-20.883-28.363-68.13-40.756-32.167-8.44-55.078-24.714-70.042-49.75l-2.302-3.854-2.317 3.86z"/><defs><path id="E" d="M-150.674 16.262h857.406V547.03h-857.406z"/></defs><clipPath id="F"><use xlink:href="#E"/></clipPath><g clip-path="url(#F)"><path fill="#1e1e1e" d="M133.1 212.595l2.337-2.63c3.663-4.117 6.616-8.132 9.48-12.02 10.183-13.825 18.976-25.762 63.095-37.334 30.936-8.124 53.854-23 70.016-45.467 16.147 22.46 39.08 37.343 70.03 45.468 44.123 11.57 52.91 23.508 63.088 37.334 2.85 3.87 5.8 7.88 9.48 12.027l2.335 2.624a17.22 17.22 0 0 0 12.859 5.772c1.808 0 3.602-.29 5.326-.848l3.342-1.088c8.352-2.712 16.06-4.1 22.904-4.1 12.033 0 21.26 4.23 27.434 12.58 4.897 6.612 6.48 14.09 6.48 16.668v3.134a17.23 17.23 0 0 0 8.706 14.954l2.722 1.54c10.687 6.067 19.38 12.766 26.532 20.43-7.17 7.68-15.86 14.362-26.532 20.426l-2.713 1.55c-5.38 3.043-8.715 8.774-8.715 14.956v3.128c0 2.58-1.582 10.055-6.48 16.673-6.177 8.35-15.405 12.582-27.454 12.582-6.834 0-14.537-1.377-22.884-4.09l-3.348-1.083c-1.72-.568-3.513-.854-5.314-.854-4.9 0-9.593 2.106-12.857 5.774l-2.327 2.618c-3.703 4.168-6.78 8.344-9.497 12.032-10.182 13.818-18.976 25.764-63.094 37.336-30.94 8.124-53.874 23.004-70.024 45.464-16.163-22.46-39.083-37.34-70.016-45.464-44.115-11.572-52.903-23.518-63.095-37.34-2.714-3.688-5.787-7.86-9.484-12.02l-2.337-2.634a17.24 17.24 0 0 0-12.854-5.767c-1.814 0-3.6.282-5.318.848l-3.343 1.087c-8.346 2.714-16.05 4.093-22.89 4.093-13.91 0-21.946-5.988-26.236-11.01-6.087-7.128-7.7-15.056-7.7-18.246v-3.128c0-6.18-3.332-11.903-8.704-14.946l-2.718-1.554c-10.676-6.066-19.364-12.753-26.53-20.43 7.158-7.668 15.85-14.365 26.53-20.43l2.72-1.54c5.372-3.05 8.704-8.78 8.704-14.954v-3.134c0-2.577 1.584-10.056 6.48-16.668 6.17-8.35 15.398-12.58 27.446-12.58 6.837 0 14.538 1.376 22.892 4.1l3.343 1.088c1.724.562 3.516.848 5.328.848 4.903.002 9.593-2.098 12.856-5.77m144.043-99.92c-15.9 22.72-38.688 37.72-69.676 45.85-44.864 11.77-53.863 23.992-64.282 38.15-2.832 3.842-5.76 7.815-9.354 11.866l-2.34 2.627a15.09 15.09 0 0 1-11.248 5.049c-1.583 0-3.15-.245-4.665-.746l-3.337-1.085c-8.575-2.792-16.496-4.204-23.56-4.204-12.764 0-22.578 4.52-29.176 13.45-5.2 7.042-6.894 15.136-6.894 17.946v3.13c0 5.407-2.924 10.416-7.623 13.084l-2.72 1.545c-11.215 6.373-20.29 13.42-27.723 21.568l-.672.73.672.724c7.443 8.15 16.514 15.2 27.723 21.57l2.72 1.548a15.06 15.06 0 0 1 7.623 13.083v3.13c0 3.46 1.716 12.04 8.2 19.64 4.592 5.367 13.143 11.768 27.87 11.766 7.067 0 14.992-1.403 23.556-4.2l3.337-1.088a15.12 15.12 0 0 1 4.656-.734c4.292 0 8.387 1.845 11.246 5.048l2.34 2.624c3.625 4.088 6.673 8.226 9.357 11.87 10.423 14.15 19.437 26.374 64.283 38.146 30.985 8.142 53.78 23.13 69.674 45.856l.883 1.26.88-1.26c15.894-22.723 38.69-37.715 69.69-45.856 44.85-11.77 53.852-23.995 64.275-38.146 2.687-3.645 5.735-7.787 9.378-11.87l2.326-2.62a15.08 15.08 0 0 1 11.25-5.05c1.58 0 3.145.25 4.65.734l3.342 1.09c8.567 2.793 16.49 4.198 23.557 4.198 12.758 0 22.58-4.525 29.18-13.454 5.226-7.05 6.905-15.137 6.905-17.95v-3.128a15.07 15.07 0 0 1 7.625-13.087l2.724-1.547c11.19-6.36 20.263-13.414 27.714-21.56l.663-.734-.663-.72c-7.44-8.148-16.5-15.205-27.718-21.574l-2.725-1.545c-4.707-2.668-7.62-7.68-7.62-13.083v-3.133c0-2.81-1.68-10.903-6.897-17.945-6.594-8.933-16.4-13.45-29.164-13.45-7.076 0-15.002 1.408-23.578 4.204l-3.34 1.09a14.93 14.93 0 0 1-4.658.739c-4.3 0-8.388-1.84-11.245-5.05l-2.337-2.624c-3.617-4.08-6.535-8.042-9.362-11.874-10.418-14.15-19.413-26.377-64.275-38.14-31-8.14-53.802-23.137-69.698-45.858l-.878-1.26-.88 1.26z"/><defs><path id="G" d="M-150.674 16.262h857.406V547.03h-857.406z"/></defs><clipPath id="H"><use xlink:href="#G"/></clipPath><g clip-path="url(#H)"><path fill="#1e1e1e" d="M194.964 383.134c-.007-.022-.012-.042-.02-.05a.52.52 0 0 1 .048.088.49.49 0 0 1 .004.076c-.01-.046-.027-.08-.032-.113m69.323-16.04l-.855.134c-.77.126-1.674.324-2.66.617-.98.286-2.045.677-3.117 1.12-1.06.433-2.05.795-2.766.81-.36.005-.624-.072-.873-.194-.244-.122-.47-.298-.676-.485l-1.054-1.08c-.3-.29-.564-.465-.83-.465-.165 0-.255.293-.22.768.04.483.19 1.16.672 1.917.24.372.58.768 1.094 1.093.502.327 1.22.542 1.91.5s1.306-.227 1.84-.483a7.66 7.66 0 0 0 .929-.546 11.55 11.55 0 0 0-2.208 3.347 11.83 11.83 0 0 0-.96 4.744c.01 1.63.376 3.254 1.057 4.735.345.745.75 1.438 1.252 2.106a9.64 9.64 0 0 0 1.741 1.755c1.316 1.007 2.896 1.656 4.53 1.867 1.93.25 3.874-.112 5.488-.957.8-.42 1.57-.945 2.188-1.6.62-.638 1.113-1.375 1.454-2.15.692-1.562.813-3.24.48-4.708a7.49 7.49 0 0 0-.767-2.021 6.62 6.62 0 0 0-1.215-1.584c-.942-.878-2.05-1.35-3.026-1.52-.712-.12-1.34-.1-1.89-.01a2.55 2.55 0 0 0-.438-.046c-1.326 0-2.397 1.075-2.397 2.396a2.39 2.39 0 0 0 2.397 2.396c1.32 0 2.392-1.07 2.392-2.396a2.36 2.36 0 0 0-.741-1.721 5.27 5.27 0 0 1 .519.101c.854.2 1.782.674 2.536 1.462.747.778 1.33 1.893 1.575 3.156.237 1.262.096 2.7-.52 3.984-1.162 2.64-4.544 4.364-7.87 3.916-1.408-.18-2.77-.734-3.903-1.608-1.132-.866-1.993-2.042-2.6-3.365-1.224-2.622-1.248-5.768-.078-8.42.57-1.334 1.432-2.53 2.498-3.502s2.357-1.73 3.714-2.26c2.726-1.086 5.814-1.194 8.616-.324 2.804.848 5.3 2.682 6.948 5.1.828 1.212 1.448 2.557 1.82 3.97s.493 2.892.388 4.36c-.163 2.235-.845 4.414-1.88 6.43a19.79 19.79 0 0 1-1.809 2.527c-2.07 2.483-4.533 4.232-6.953 5.38a20.6 20.6 0 0 1-7.046 1.893l-.883.054c-.62-.05-1.268-.138-1.937-.297-1.378-.344-2.808-1.01-3.924-2.11s-1.648-2.483-1.78-3.745c-.128-1.276.085-2.44.336-3.406l.722-2.395c.172-.64.22-1.13.034-1.47-.112-.226-.57-.153-1.195.275-.61.43-1.404 1.213-2.063 2.44-.328.6-.61 1.312-.793 2.136-.18.817-.252 1.734-.128 2.703a7.25 7.25 0 0 0 .993 2.878 5.65 5.65 0 0 0 .396.576c-1.368-.928-2.406-2.064-3.08-3.3-.624-1.153-.936-2.39-.897-3.614l.017-.466c.014-.162.004-.346.014-.514a9.93 9.93 0 0 1 .06-1.065c.064-.707.182-1.434.374-2.152.048-.17.124-.78.245-1.535.12-.746.297-1.584.478-2.228.176-.665.314-1.152.113-1.6-.204-.433-.725-.784-1.657-.54-1.086.27-1.894-.122-2.72-1.08-.818-.936-1.693-2.373-2.783-3.8-2.176-2.867-5.214-5.753-9.8-6.42-3.672-.5-5.956 1.794-7.126 3.72-1.16 1.947-1.217 3.545-.117 2.03.543-.77 1.516-1.132 2.766-1.016s2.8.72 4.38 1.927a14.56 14.56 0 0 1 4.399 5.496 16.4 16.4 0 0 1 .778 2.042c.24.74.46 1.574.734 2.48s.62 1.877.995 2.83a80.24 80.24 0 0 0 1.25 2.913 22.16 22.16 0 0 0 1.38 2.528l.424.656c.17.24.36.504.56.753.047.06.1.112.145.178-1.645-1.198-3.22-2.51-4.7-3.9-1.098-1.038-2.157-2.128-3.168-3.268s-1.987-2.32-2.978-3.498c-1.97-2.36-3.99-4.727-6.222-6.9-2.232-2.162-4.67-4.18-7.458-5.686-1.4-.75-2.87-1.367-4.417-1.772a16.07 16.07 0 0 0-4.757-.51c-1.878.07-3.7.466-5.35 1.064-1.658.61-3.167 1.415-4.48 2.358-2.37 1.702-4.147 3.825-5.03 5.978-2.43 5-3.013 12.477 1.13 16.01 1.053.9 2.278 1.56 3.527 1.896 1.237.353 2.482.362 3.513.13s1.835-.668 2.406-1.137.933-.95 1.153-1.366c.43-.84.36-1.407.08-1.532-.14-.064-.338-.022-.607.122s-.607.394-1.068.722c-.953.655-1.83.722-2.42.56-.598-.162-.94-.535-1.195-.97s-.4-.95-.595-1.506a11.12 11.12 0 0 0-.253-.682c.2.036.402.062.595.07a4.58 4.58 0 0 0 1.838-.228c1.054-.364 1.632-.984 1.906-1.415.267-.45.262-.74.12-.8-.16-.06-.457.112-1.02.497-.565.39-1.066.482-1.426.442-.365-.033-.614-.184-.83-.373-.206-.205-.383-.442-.608-.72-.224-.266-.49-.563-.872-.938-.168-.16-.37-.4-.76-.64s-.972-.5-1.94-.85c-.977-.352-1.864-1.558-2.253-2.907a6.95 6.95 0 0 1-.25-1.253c.017-.672.16-1.396.44-2.132.793-2.098 2.62-4.277 5.118-5.99 2.387-1.637 5.453-2.863 8.776-3.085-.59.067-1.243.205-1.925.43a9.08 9.08 0 0 0-3.106 1.867c-.978.902-1.843 2.108-2.36 3.626-.522 1.51-.544 2.996-.255 4.224.144.605.37 1.156.65 1.6.27.45.6.8.914 1.022.317.205.624.294.87.298.244.017.422-.043.523-.132s.126-.213.095-.38c-.042-.164-.146-.37-.3-.7-.325-.693-.283-1.26-.106-1.62.168-.375.5-.58.88-.75.784-.336 1.804-.507 2.74-1.39.213-.192.52-.413.642-.917.142-.49.07-1.234-.248-2.63-.33-1.394.57-2.767 1.875-3.52.64-.39 1.378-.62 2.04-.697.51-.066.967-.06 1.367 0 .167.043.337.077.506.12 1.432.372 2.812.95 4.132 1.65 2.634 1.43 4.986 3.363 7.156 5.48 1.788 1.748 3.457 3.62 5.083 5.546-2.045-1.4-4.494-2.485-7.45-2.693-4.1-.286-7.532 1.438-9.41 3.164-2.088 1.92-2.305 3.835.447 3.017 5.256-1.543 3.178 3.666 7.417 6.48.928.62 2.468 1.865 6.49-1.85 3.034-2.802 7.302-1.366 10.406.568 2.1 1.916 4.35 3.678 6.78 5.182 2.65 1.64 5.515 2.995 8.56 3.835 3.025.84 6.26 1.137 9.412.635a18.84 18.84 0 0 0 4.573-1.318c.73-.3 1.446-.678 2.132-1.07.676-.395 1.342-.817 2-1.257 2.587-1.808 4.88-4.054 6.625-6.7 1.746-2.63 2.952-5.695 3.185-8.9a14.95 14.95 0 0 0-.423-4.792 14.25 14.25 0 0 0-2.012-4.37 14.33 14.33 0 0 0-7.636-5.625c-1.368-.416-2.8-.628-4.228-.628a13.97 13.97 0 0 0-3.366.387"/><defs><path id="I" d="M-150.674 16.262h857.406V547.03h-857.406z"/></defs><clipPath id="J"><use xlink:href="#I"/></clipPath><g clip-path="url(#J)"><path fill="#1e1e1e" d="M361.07 383.168c.014-.023.026-.06.053-.085-.01.005-.01.025-.026.05-.005.036-.02.07-.032.11a.28.28 0 0 1 .005-.075m-76.9-15.843c-3.076.934-5.825 2.954-7.633 5.624-.912 1.324-1.6 2.813-2.007 4.374s-.54 3.188-.424 4.788c.227 3.21 1.438 6.273 3.182 8.9 1.748 2.648 4.048 4.892 6.63 6.696l1.993 1.26a21.34 21.34 0 0 0 2.12 1.069 18.71 18.71 0 0 0 4.574 1.318c3.15.5 6.387.205 9.416-.636 3.043-.838 5.912-2.192 8.56-3.834 2.42-1.504 4.68-3.267 6.77-5.18 3.108-1.937 7.382-3.373 10.416-.57 4.016 3.714 5.56 2.47 6.495 1.854 4.23-2.817 2.164-8.026 7.414-6.487 2.75.82 2.524-1.097.45-3.006-1.9-1.738-5.306-3.462-9.412-3.173-2.952.21-5.403 1.292-7.452 2.692 1.624-1.93 3.293-3.795 5.08-5.547 2.174-2.113 4.53-4.054 7.165-5.48 1.312-.7 2.693-1.278 4.127-1.65l.508-.12c.404-.058.862-.067 1.36 0a5.26 5.26 0 0 1 2.046.698c1.3.75 2.203 2.13 1.882 3.52-.333 1.4-.396 2.142-.263 2.63.128.503.435.723.64.917.943.885 1.962 1.052 2.748 1.4.388.17.703.374.882.75.166.362.206.926-.113 1.617-.164.33-.272.537-.3.7s-.006.286.095.38.28.15.52.13c.246-.001.558-.085.868-.295.323-.216.644-.57.924-1.023a5.62 5.62 0 0 0 .64-1.601c.296-1.226.27-2.712-.253-4.22-.52-1.52-1.377-2.725-2.356-3.63-.985-.9-2.073-1.498-3.108-1.863a9.76 9.76 0 0 0-1.931-.432c3.328.22 6.39 1.448 8.785 3.085 2.494 1.71 4.3 3.893 5.1 6 .284.74.424 1.464.444 2.13a7.49 7.49 0 0 1-.25 1.253c-.4 1.355-1.274 2.56-2.26 2.91-.97.36-1.543.606-1.93.847s-.598.48-.768.644a11.48 11.48 0 0 0-.869.937c-.223.276-.397.514-.613.72-.204.188-.456.34-.82.377s-.86-.056-1.434-.447c-.562-.386-.855-.56-1.014-.498-.15.058-.15.35.116.798.275.435.854 1.055 1.903 1.417a4.62 4.62 0 0 0 1.84.229 6.76 6.76 0 0 0 .601-.069c-.094.23-.18.464-.257.684-.188.55-.347 1.067-.594 1.503s-.604.81-1.205.974c-.582.156-1.458.088-2.413-.564-.463-.327-.797-.577-1.067-.72s-.464-.19-.608-.124c-.27.125-.346.69.077 1.534.22.414.583.9 1.16 1.364.576.47 1.38.91 2.407 1.134 1.024.237 2.274.228 3.517-.126 1.243-.34 2.464-.996 3.524-1.898 4.144-3.528 3.556-10.998 1.134-16.007-.886-2.152-2.665-4.273-5.034-5.976-1.312-.94-2.828-1.748-4.5-2.358-1.648-.6-3.46-.99-5.34-1.067-1.598-.07-3.216.107-4.755.51-1.55.404-3.025 1.023-4.417 1.774-2.79 1.503-5.224 3.52-7.456 5.683-2.234 2.18-4.247 4.54-6.23 6.902l-2.967 3.496a52.4 52.4 0 0 1-3.171 3.269 47.94 47.94 0 0 1-4.703 3.907c.045-.06.1-.116.15-.174l.554-.756c.146-.22.29-.434.42-.655.544-.865 1.003-1.712 1.377-2.525a65.41 65.41 0 0 0 1.247-2.915c.39-.954.716-1.923.996-2.83l.74-2.48c.233-.746.483-1.42.772-2.043a14.7 14.7 0 0 1 4.403-5.497c1.593-1.204 3.124-1.8 4.375-1.927 1.26-.118 2.228.247 2.77 1.018 1.104 1.516 1.045-.083-.1-2.028-1.167-1.922-3.455-4.23-7.138-3.723-4.57.664-7.605 3.555-9.784 6.42-1.09 1.427-1.957 2.863-2.78 3.8-.823.955-1.628 1.35-2.7 1.08-.938-.24-1.466.107-1.662.54-.2.448-.065.938.112 1.604.18.642.358 1.48.473 2.23l.254 1.53a15.2 15.2 0 0 1 .375 2.153c.033.354.05.708.063 1.062.005.167-.01.354.005.518.01.158.02.307.02.467.03 1.228-.28 2.46-.9 3.616-.678 1.224-1.72 2.357-3.077 3.29a6.01 6.01 0 0 0 .388-.578c.558-.903.878-1.917.994-2.88.12-.97.052-1.885-.13-2.7a8.08 8.08 0 0 0-.796-2.138c-.65-1.226-1.452-2.005-2.066-2.437-.623-.43-1.078-.502-1.2-.28-.18.35-.14.834.035 1.473s.466 1.433.723 2.396.465 2.13.33 3.406c-.127 1.26-.652 2.646-1.772 3.747s-2.547 1.763-3.922 2.108a12.29 12.29 0 0 1-1.941.298c-.292-.01-.578-.034-.884-.054-2.203-.18-4.608-.752-7.04-1.894a20.49 20.49 0 0 1-6.96-5.38c-.654-.776-1.247-1.623-1.797-2.526-1.042-2.02-1.726-4.197-1.882-6.43-.11-1.468.013-2.946.387-4.36.364-1.413.988-2.756 1.816-3.967a13.04 13.04 0 0 1 6.943-5.109c2.802-.87 5.897-.763 8.62.323 1.36.528 2.652 1.292 3.718 2.26s1.925 2.168 2.503 3.5c1.17 2.652 1.138 5.8-.083 8.42-.603 1.324-1.466 2.5-2.605 3.37a8.06 8.06 0 0 1-3.9 1.604c-3.322.452-6.7-1.274-7.873-3.914-.613-1.293-.756-2.725-.51-3.986.233-1.26.813-2.376 1.563-3.154a5.34 5.34 0 0 1 2.539-1.465c.18-.037.345-.077.514-.103-.457.44-.738 1.043-.738 1.728 0 1.327 1.075 2.396 2.393 2.396a2.39 2.39 0 0 0 0-4.794c-.148 0-.293.02-.434.044-.55-.085-1.188-.11-1.888.012-.978.168-2.093.64-3.03 1.52-.472.442-.882.986-1.22 1.58a7.75 7.75 0 0 0-.771 2.022c-.325 1.462-.214 3.15.48 4.707a7.48 7.48 0 0 0 1.466 2.152c.614.654 1.366 1.18 2.178 1.6 1.614.843 3.565 1.208 5.5.955a9.42 9.42 0 0 0 4.521-1.866c.658-.51 1.247-1.097 1.75-1.754.492-.67.906-1.36 1.246-2.104a11.67 11.67 0 0 0 1.062-4.735c.01-1.627-.317-3.255-.968-4.746a11.57 11.57 0 0 0-2.207-3.351 6.97 6.97 0 0 0 .93.55c.54.258 1.15.462 1.832.484.69.038 1.414-.178 1.924-.507s.844-.723 1.086-1.098c.484-.756.638-1.433.678-1.916.035-.476-.063-.767-.232-.767-.26 0-.527.173-.827.465-.296.276-.63.7-1.044 1.077-.217.2-.44.365-.687.487s-.512.197-.863.195c-.72-.014-1.714-.38-2.773-.81-1.06-.444-2.12-.833-3.112-1.122s-1.894-.488-2.654-.617c-.312-.053-.6-.104-.867-.133a14.56 14.56 0 0 0-3.375-.399c-1.433.017-2.857.228-4.225.646"/></g></g></g></g></svg>