<?xml version="1.0" encoding="utf-8"?>
<!-- Generator: Adobe Illustrator 16.0.0, SVG Export Plug-In . SVG Version: 6.00 Build 0)  -->
<!DOCTYPE svg PUBLIC "-//W3C//DTD SVG 1.1//EN" "http://www.w3.org/Graphics/SVG/1.1/DTD/svg11.dtd">
<svg version="1.1" id="Layer_1" xmlns="http://www.w3.org/2000/svg" xmlns:xlink="http://www.w3.org/1999/xlink" x="0px" y="0px"
	 width="213.5px" height="55.879px" viewBox="0 0 213.5 55.879" enable-background="new 0 0 213.5 55.879" xml:space="preserve">
<g>
	<g>
		<path fill="#C92F2D" d="M41.236,48.654H11.255l3.332-12.213c0,0-9.347,0-12.585-9.902c-3.238-9.9,6.94-20.729,18.785-16.472
			c0,0,9.069-13.602,22.394-4.349c13.325,9.253,2.867,24.796-1.111,27.019c-3.98,2.221-2.775,1.387-2.775,1.387L41.236,48.654z"/>
		<path fill="#C92F2D" d="M50.229,18.835c0,9.148-7.416,16.563-16.564,16.563c-9.149,0-16.564-7.415-16.564-16.563
			c0-9.147,7.415-16.563,16.564-16.563C42.813,2.272,50.229,9.688,50.229,18.835z"/>
	</g>
	<g>
		<path display="none" fill="#FFFFFF" d="M25.158,44.51c0,0,1.02,0.328,0.612-2.119c-0.408-2.453-2.368-16.578-2.368-16.578
			s1.837-0.695,1.633-3.433c-0.203-2.734-0.613-6.451-0.613-6.451h-0.408l0.205,6.248c0,0-0.245,0.408-0.408-0.448
			c-0.164-0.855-0.613-5.8-0.613-5.8h-0.407l0.204,5.882c0,0-0.164,0.939-0.449-0.043l-0.532-5.839h-0.449c0,0,0.368,6.044,0,6.248
			c0,0-0.367,0.573-0.49-1.388c-0.122-1.961-0.286-4.86-0.286-4.86h-0.408c0,0,0.04,6.78,0.49,7.882
			c0.448,1.103,1.17,1.687,1.878,2.041c0,0,0.327,16.986,0.571,17.718C23.565,44.309,24.177,45.125,25.158,44.51z"/>
		<path fill="#FFFFFF" d="M34.906,16.958c-0.233,3.125-1.935,5.546-3.801,5.41c-1.866-0.14-3.189-2.786-2.958-5.91
			c0.232-3.127,1.933-5.549,3.801-5.409C33.813,11.186,35.138,13.833,34.906,16.958z"/>
		<path fill="#FFFFFF" d="M31.322,22.366l-0.448,13.207v3.877c0,0,0.162,2.656-1.552,2.492c-1.715-0.162-1.226-2.41-1.184-2.736
			c0.042-0.324,2.552-16.915,2.552-16.915L31.322,22.366z"/>
		<path display="none" fill="#FFFFFF" d="M25.865,43.492c0,0.854-0.57,1.543-1.274,1.543c-0.702,0-1.272-0.689-1.272-1.543
			c0-0.852,0.57-1.543,1.272-1.543C25.295,41.949,25.865,42.641,25.865,43.492z"/>
	</g>
	<path fill="#FFFFFF" d="M22.762,15.524c-0.206,0.026-0.347,0.267-0.313,0.538l0.746,6.047c0.033,0.271-0.108,0.513-0.317,0.539
		c-0.208,0.024-0.404-0.175-0.438-0.446l-0.745-6.046c-0.033-0.272-0.229-0.472-0.435-0.446l-0.005,0.001
		c-0.207,0.025-0.347,0.266-0.313,0.537l0.746,6.047c0.033,0.271-0.109,0.513-0.317,0.538c-0.208,0.025-0.403-0.173-0.437-0.445
		l-0.746-6.047c-0.033-0.271-0.229-0.471-0.435-0.445h-0.004c-0.207,0.026-0.347,0.267-0.313,0.539l0.746,6.047
		c0.034,0.271-0.108,0.513-0.316,0.538c-0.208,0.025-0.404-0.174-0.438-0.446l-0.745-6.046c-0.034-0.272-0.229-0.472-0.436-0.445
		c-0.195,0.024-0.33,0.251-0.298,0.508c0.188,1.53,0.779,6.319,0.804,6.522c0.246,1.994,0.889,3.014,1.713,3.426
		c0.666,0.335,1.13,1.151,1.174,2.056l0.711,14.791c0.028,0.572,0.24,1.115,0.583,1.498c0.344,0.387,0.787,0.574,1.221,0.523
		c0.434-0.055,0.818-0.346,1.058-0.803c0.239-0.457,0.313-1.035,0.2-1.598l-2.902-14.518c-0.178-0.89,0.077-1.795,0.64-2.281
		c0.699-0.601,1.075-1.745,0.83-3.74c-0.025-0.202-0.616-4.991-0.804-6.521C23.143,15.689,22.959,15.5,22.762,15.524z"/>
</g>
<path fill="#FFFFFF" d="M82.267,30.77c0,0,0.411-7.673-4.603-10.469c-5.013-2.795-11.458-0.682-12.686-0.205
	c-1.228,0.479-3.034,1.298-3.75,3.001c-0.716,1.704,0.614,4.196,2.728,3.89c2.113-0.308,3.783-2.423,6.82-2.218
	c3.036,0.204,3.956,1.5,4.092,3.99c0,0-5.695-0.102-8.9,0.887c-3.206,0.988-7.23,2.66-7.059,8.186
	c0.171,5.521,6.945,7.84,11.708,6.646c4.072-1.018,4.365-2.436,4.364-2.826c0.056,0.504,0.46,2.695,3.264,2.967
	c3.171,0.307,3.887-2.561,4.023-3.24C82.404,40.695,82.267,30.77,82.267,30.77z M70.365,39.361c-2.898,0.441-4.877-1.361-3.683-3.75
	c1.194-2.389,8.217-2.113,8.217-2.113C75.002,37.863,73.262,38.922,70.365,39.361z"/>
<path fill="#FFFFFF" d="M129.294,11.965c0,2.512-2.04,4.551-4.554,4.551s-4.551-2.039-4.551-4.551c0-2.516,2.037-4.553,4.551-4.553
	S129.294,9.45,129.294,11.965z"/>
<path fill="#FFFFFF" d="M128.832,23.269c0,0.208-0.015,0.413-0.044,0.613c-0.294,1.97-1.958,3.479-3.97,3.479
	c-2.219,0-4.018-1.832-4.018-4.092c0-0.207,0.018-0.409,0.044-0.606c0.011-0.07,0.021-0.139,0.035-0.208
	c0.37-1.869,1.993-3.279,3.938-3.279C127.034,19.175,128.832,21.009,128.832,23.269z"/>
<path fill="#FFFFFF" d="M128.832,40.557c0,2.26-1.798,4.092-4.014,4.092c-2.219,0-4.018-1.832-4.018-4.092s1.799-4.092,4.018-4.092
	C127.034,36.465,128.832,38.297,128.832,40.557z"/>
<polygon fill="#FFFFFF" points="120.801,22.962 120.801,40.557 122.644,41.428 128.832,40.557 128.832,23.269 "/>
<path fill="#FFFFFF" d="M134.921,42.758c0,0-3.372-2.768-0.304-5.117c0,0,1.783-1.176,3.627-0.256
	c1.844,0.924,3.99,2.715,6.803,1.18c0,0,1.433-0.871,0.665-2.455c0,0-0.665-1.129-4.142-1.588c-3.48-0.459-8.133-3.068-7.572-7.979
	c0.563-4.911,4.654-7.994,11.255-7.434c6.597,0.563,8.082,2.933,7.365,5.183c-0.716,2.251-2.814,2.763-6.241,0.818
	c-3.455-1.96-6.344,1.534-4.451,2.764c1.895,1.226,10.232,1.173,11.459,7.058c1.229,5.883-3.732,9.822-8.439,10.023
	C140.238,45.162,138.347,44.955,134.921,42.758z"/>
<path fill="#FFFFFF" d="M157.784,27.31c0,0-3.53-4.911,0.511-7.725c0,0,4.043-2.557,6.702,4.145
	c2.659,6.698,4.399,11.711,4.399,11.711l4.961-13.452c0,0,1.332-4.093,5.678-2.353c4.348,1.737-0.512,9.851-1.482,12.394
	c-0.971,2.541-7.061,17.17-7.061,17.17s-2.043,5.475-7.518,6.445c-5.475,0.973-7.418-1.277-7.213-3.633
	c0.205-2.35,1.533-2.813,3.529-2.965c1.996-0.154,3.377-0.203,4.961-5.063L157.784,27.31z"/>
<path fill="#FFFFFF" d="M198.55,18.87c-7.595,0-13.759,5.852-13.759,13.07c0,7.219,6.164,13.068,13.759,13.068
	c7.6,0,13.762-5.85,13.762-13.068C212.312,24.721,206.149,18.87,198.55,18.87z M198.495,38.359c-3.273,0-5.929-2.906-5.929-6.494
	c0-3.584,2.655-6.491,5.929-6.491c3.271,0,5.929,2.907,5.929,6.491C204.424,35.453,201.766,38.359,198.495,38.359z"/>
<rect x="111.829" y="28.721" fill="#FFFFFF" stroke="#363736" stroke-miterlimit="10" width="0.134" height="0.068"/>
<path fill="#FFFFFF" d="M114.223,10.944c0,0,0.17-4.112-3.822-4.354c-3.989-0.243-4.26,3.712-4.258,4.906
	c0,1.193,0.038,10.774,0.038,10.774s-3.479-4.156-8.97-3.234c-5.49,0.925-9.103,4.542-10.122,11.431
	c-1.02,6.889,3.962,12.479,6.997,13.535c3.036,1.057,8.798,2.277,12.65-2.941c0,0,0.104,2.863,3.004,3.439
	c2.897,0.578,4.398-1.469,4.499-3.615C114.34,38.734,114.223,10.944,114.223,10.944z M100.73,38.57
	c-3.313,0-6.001-2.889-6.002-6.459c-0.003-3.568,2.683-6.461,5.996-6.463c3.318-0.002,6.007,2.887,6.009,6.458
	C106.734,35.674,104.048,38.568,100.73,38.57z"/>
</svg>
