<svg xmlns="http://www.w3.org/2000/svg" width="249.793" height="55.09"><g fill="#c92f2d"><path d="M46.6 55.1h-35.6l3.957-14.506s-11.1 0-14.948-11.76S8.243 4.204 22.31 9.26c0 0 10.77-16.155 26.598-5.165s3.405 29.452-1.32 32.09-3.296 1.648-3.296 1.648L46.6 55.1z"/><path d="M57.282 19.674c0 10.865-8.808 19.673-19.673 19.673S17.935 30.54 17.935 19.674 26.742 0 37.61 0s19.673 8.808 19.673 19.674z"/></g><g fill="#fff"><path d="M27.504 50.168s1.212.4.727-2.518-2.813-19.7-2.813-19.7 2.182-.826 1.94-4.077-.728-7.663-.728-7.663h-.485l.243 7.42s-.3.485-.485-.533-.728-6.888-.728-6.888h-.484l.242 6.986s-.195 1.115-.533-.05l-.63-6.935h-.533s.437 7.18 0 7.42c0 0-.437.68-.582-1.65l-.34-5.772h-.484s.047 8.053.582 9.362a4.53 4.53 0 0 0 2.23 2.424l.68 21.045c.3.876 1.018 1.846 2.183 1.116zm11.578-32.724c-.276 3.7-2.298 6.587-4.514 6.425s-3.788-3.3-3.514-7.02 2.295-6.6 4.514-6.425 3.8 3.308 3.514 7.02z"/><path d="M34.825 23.867l-.532 15.686v4.605s.193 3.154-1.844 2.96-1.456-2.862-1.406-3.25 3.03-20.1 3.03-20.1l.75.1zm-6.48 25.093c0 1.013-.677 1.833-1.514 1.833s-1.512-.82-1.512-1.833.677-1.833 1.512-1.833 1.514.82 1.514 1.833z"/></g><g fill="#363736"><path d="M95.334 33.848s.487-9.113-5.467-12.434-13.6-.8-15.068-.244-3.604 1.542-4.455 3.565.73 4.983 3.24 4.618 4.494-2.876 8.1-2.633 4.698 1.782 4.86 4.74c0 0-6.764-.122-10.57 1.053s-8.587 3.16-8.384 9.722 8.248 9.313 13.905 7.896c4.837-1.2 5.185-2.894 5.184-3.357.066.598.547 3.2 3.877 3.523 3.767.364 4.617-3.04 4.778-3.848s.001-12.6.001-12.6zM81.197 44.053c-3.442.525-5.793-1.617-4.375-4.455s9.76-2.5 9.76-2.5c.123 5.184-1.943 6.44-5.385 6.964zm69.993-32.54a5.41 5.41 0 0 1-5.408 5.405c-2.986 0-5.406-2.42-5.406-5.405a5.41 5.41 0 0 1 5.406-5.408 5.41 5.41 0 0 1 5.408 5.408zm-.55 13.427a5.16 5.16 0 0 1-.052.729c-.35 2.34-2.325 4.13-4.716 4.13-2.635 0-4.77-2.176-4.77-4.86a5.33 5.33 0 0 1 .053-.721l.042-.246c.44-2.22 2.367-3.895 4.677-3.895 2.632.001 4.767 2.178 4.767 4.862zm0 20.533c0 2.684-2.135 4.86-4.768 4.86s-4.77-2.176-4.77-4.86 2.137-4.86 4.77-4.86 4.768 2.175 4.768 4.86z"/><path d="M141.102 24.575v20.898l2.2 1.035 7.35-1.035V24.94zm16.77 23.51s-4.006-3.287-.36-6.078c0 0 2.118-1.395 4.308-.303 2.2 1.097 4.74 3.225 8.08 1.4 0 0 1.702-1.033.8-2.916 0 0-.8-1.34-4.92-1.885s-9.66-3.646-8.993-9.477 5.527-9.496 13.367-8.83 9.6 3.482 8.748 6.155-3.343 3.28-7.412.973c-4.104-2.328-7.535 1.822-5.287 3.28s12.153 1.395 13.6 8.383-4.434 11.666-10.023 11.906c-5.6.246-7.84.001-11.907-2.6zm27.155-18.346s-4.192-5.833.606-9.174c0 0 4.802-3.038 7.96 4.922s5.225 13.9 5.225 13.9l5.893-15.978s1.582-4.86 6.743-2.794-.606 11.7-1.76 14.72S201.3 55.74 201.3 55.74s-2.428 6.502-8.93 7.656-8.8-1.52-8.567-4.316 1.82-3.34 4.2-3.52 4.012-.24 5.893-6.014l-8.87-19.807zm48.42-10.026c-9.02 0-16.34 6.95-16.34 15.524s7.32 15.52 16.34 15.52 16.346-6.946 16.346-15.52-7.32-15.524-16.346-15.524zm-.065 23.147c-3.888 0-7.042-3.45-7.042-7.7s3.154-7.7 7.042-7.7 7.042 3.452 7.042 7.7-3.156 7.7-7.042 7.7z"/></g><path fill="#d12b2c" stroke="#363736" stroke-miterlimit="10" d="M130.446 31.416h.16v.08h-.16z"/><path fill="#363736" d="M133.29 10.3s.2-4.885-4.54-5.173-5.06 4.4-5.06 5.83l.046 12.797s-4.132-4.938-10.654-3.842-10.812 5.394-12.022 13.577 4.706 14.822 8.31 16.076 10.45 2.705 15.025-3.493c0 0 .124 3.4 3.567 4.086s5.225-1.745 5.344-4.294c.12-2.554-.02-35.563-.02-35.563zm-16.025 32.812c-3.935.002-7.128-3.43-7.13-7.67s3.187-7.674 7.122-7.677 7.134 3.43 7.137 7.67-3.188 7.677-7.13 7.68z"/></svg>