<?xml version="1.0" encoding="utf-8"?>
<!-- Generator: Adobe Illustrator 16.0.0, SVG Export Plug-In . SVG Version: 6.00 Build 0)  -->
<!DOCTYPE svg PUBLIC "-//W3C//DTD SVG 1.1//EN" "http://www.w3.org/Graphics/SVG/1.1/DTD/svg11.dtd">
<svg version="1.1" id="Layer_1" xmlns="http://www.w3.org/2000/svg" xmlns:xlink="http://www.w3.org/1999/xlink" x="0px" y="0px"
	 width="158.5px" height="81.25px" viewBox="0 0 158.5 81.25" enable-background="new 0 0 158.5 81.25" xml:space="preserve">
<g>
	<defs>
		<rect id="SVGID_1_" x="-91.25" y="-55.743" width="343.723" height="212.777"/>
	</defs>
	<clipPath id="SVGID_2_">
		<use xlink:href="#SVGID_1_"  overflow="visible"/>
	</clipPath>
	<g clip-path="url(#SVGID_2_)">
		<path fill="#1E1E1E" d="M66.517,20.961c0.144,0.143,0.38,0.322,0.707,0.542c0.222,0.154,0.487,0.294,0.806,0.426l0.426,0.18
			l0.429,0.167l-2.678,1.986c-0.756-0.415-1.557-0.679-2.398-0.787c-0.296-0.035-0.585-0.049-0.872-0.049
			c-0.9,0-1.79,0.173-2.677,0.525c0.646-1.184,1.605-2.044,2.875-2.581c-0.022-0.165-0.032-0.317-0.032-0.459V7.146
			c-0.036-0.306-0.101-0.57-0.197-0.789c-0.21-0.504-0.57-0.758-1.086-0.758c-0.228,0-0.487,0.054-0.773,0.152
			c0.013,0,0.052-0.055,0.118-0.165c0.043-0.054,0.082-0.111,0.112-0.165c0.057-0.074,0.112-0.147,0.167-0.212
			c0.142-0.177,0.285-0.335,0.426-0.478c0.198-0.185,0.4-0.34,0.609-0.458c0.428-0.243,0.872-0.364,1.331-0.364
			c0.338,0,0.691,0.066,1.051,0.198c0.623,0.229,0.997,0.784,1.116,1.659c0.045,0.329,0.078,0.708,0.099,1.134v12.665
			c0,0.525,0.102,0.926,0.297,1.198L66.517,20.961z"/>
		<path fill="#1E1E1E" d="M72.383,16.509v0.066c0,0.032,0.004,0.069,0.017,0.116c0.007,0.14,0.026,0.285,0.049,0.428
			c0.088,0.436,0.227,0.842,0.427,1.213c0.612,1.139,1.651,1.709,3.121,1.709v-5.305c-1.164,0.493-2.18,0.738-3.057,0.738
			c-0.472,0-0.904-0.071-1.297-0.212c-1.445-0.537-2.168-2.058-2.168-4.568V7.655l5.617-4.207c0.01-0.009,0.033-0.013,0.065-0.013
			c0.098,0,0.302,0.086,0.607,0.263c0.416,0.251,0.828,0.563,1.232,0.935c1.15,1.063,1.725,2.119,1.725,3.172v11.514l-5.961,4.515
			c-1.097-0.951-1.65-1.431-1.661-1.444c-0.459-0.483-0.82-0.935-1.085-1.361c-0.372-0.637-0.559-1.26-0.559-1.876v-0.608
			L72.383,16.509z M74.96,12.074c0.068-0.022,0.154-0.044,0.264-0.065c0.12-0.032,0.236-0.061,0.347-0.082
			c0.281-0.087,0.426-0.158,0.426-0.213v-1.331c-0.013-0.144-0.036-0.286-0.066-0.429c-0.08-0.436-0.216-0.835-0.41-1.197
			c-0.604-1.15-1.634-1.725-3.09-1.725v2.25c0,0.329,0.105,0.773,0.313,1.33c0.262,0.702,0.645,1.15,1.149,1.347
			c0.229,0.089,0.469,0.133,0.723,0.133c0.096,0,0.196-0.006,0.294-0.018H74.96z"/>
		<path fill="#1E1E1E" d="M83.537,16.509v0.066c0,0.032,0.004,0.069,0.017,0.116c0.008,0.14,0.025,0.285,0.048,0.428
			c0.088,0.436,0.229,0.842,0.428,1.213c0.612,1.139,1.652,1.709,3.121,1.709v-5.305c-1.161,0.493-2.18,0.738-3.056,0.738
			c-0.47,0-0.904-0.071-1.298-0.212c-1.446-0.537-2.167-2.058-2.167-4.568V7.655l5.616-4.207c0.01-0.009,0.032-0.013,0.065-0.013
			c0.098,0,0.302,0.086,0.607,0.263c0.417,0.251,0.827,0.563,1.232,0.935c1.149,1.063,1.726,2.119,1.726,3.172v11.514l-5.962,4.515
			c-1.098-0.951-1.649-1.431-1.66-1.444c-0.459-0.483-0.821-0.935-1.083-1.361c-0.373-0.637-0.56-1.26-0.56-1.876v-0.608
			L83.537,16.509z M86.114,12.074c0.066-0.022,0.154-0.044,0.263-0.065c0.121-0.032,0.236-0.061,0.346-0.082
			c0.283-0.087,0.427-0.158,0.427-0.213v-1.331c-0.012-0.144-0.035-0.286-0.067-0.429c-0.077-0.436-0.215-0.835-0.411-1.197
			c-0.603-1.15-1.631-1.725-3.087-1.725v2.25c0,0.329,0.104,0.773,0.311,1.33c0.264,0.702,0.646,1.15,1.15,1.347
			c0.229,0.089,0.47,0.133,0.723,0.133c0.098,0,0.196-0.006,0.295-0.018H86.114z"/>
		<path fill="#1E1E1E" d="M97.367,20.961c0.142,0.143,0.377,0.322,0.706,0.542c0.22,0.154,0.489,0.294,0.806,0.426l0.427,0.18
			l0.427,0.167l-2.676,1.986c-0.757-0.415-1.556-0.679-2.4-0.787c-0.296-0.035-0.588-0.049-0.869-0.049
			c-0.899,0-1.792,0.173-2.68,0.525c0.648-1.184,1.606-2.044,2.875-2.581c-0.022-0.165-0.032-0.317-0.032-0.459V7.146
			c-0.034-0.306-0.1-0.57-0.199-0.789c-0.207-0.504-0.568-0.758-1.082-0.758c-0.229,0-0.49,0.054-0.774,0.152
			c0.01,0,0.049-0.055,0.116-0.165c0.044-0.054,0.083-0.111,0.113-0.165c0.055-0.074,0.11-0.147,0.166-0.212
			c0.142-0.177,0.287-0.335,0.428-0.478c0.196-0.185,0.399-0.34,0.607-0.458c0.426-0.243,0.87-0.364,1.33-0.364
			c0.341,0,0.691,0.066,1.054,0.198c0.621,0.229,0.993,0.784,1.115,1.659c0.043,0.329,0.077,0.708,0.098,1.134v12.665
			c0,0.525,0.1,0.926,0.296,1.198L97.367,20.961z"/>
		<path fill="#1E1E1E" d="M9.894,33.214c-1.486-0.183-2.909-0.712-4.266-1.576c-1.357-0.863-2.408-2.188-3.152-3.978
			c0.071,0.165,0.563,0.472,1.482,0.931c0.915,0.458,2.014,0.771,3.29,0.933c0.475,0.069,1.928,0.147,4.354,0.234
			c2.426,0.088,4.23,0.41,5.416,0.968c1.159,0.568,2.197,1.996,3.117,4.283c-0.85-0.767-3.125-1.305-6.827-1.62h-0.523
			c-0.116,0.65-0.174,1.429-0.174,2.333c0,1.79,0.227,4.094,0.679,6.913c0.082,0.547,0.123,1.069,0.123,1.567
			c0,3.474-2.045,6.09-6.132,7.853c0.374-0.101,0.728-0.374,1.065-0.818c0.289-0.371,0.504-0.828,0.643-1.375
			c0.105-0.974,0.156-1.927,0.156-2.855c0-1.021-0.057-2.021-0.172-2.997c-0.233-1.88-0.431-3.627-0.593-5.241
			c-0.023-0.198-0.034-0.4-0.034-0.609C8.345,36.699,8.86,35.05,9.894,33.214"/>
		<path fill="#1E1E1E" d="M26.841,46.814c0,0.279,0.067,0.547,0.208,0.803c0.102,0.209,0.244,0.411,0.418,0.609
			c0.22,0.22,0.434,0.393,0.642,0.522l-2.592,1.916c-0.431-0.243-0.795-0.615-1.096-1.115c-0.224-0.37-0.407-0.8-0.559-1.289
			l-3.239,2.404c-1.569-0.615-2.474-1.631-2.716-3.047h-0.018c-0.046-0.232-0.075-0.501-0.085-0.803h0.016v-5.953
			c0-0.616,0.327-1.273,0.975-1.97c0.511-0.556,1.226-1.12,2.142-1.688c1.045-0.663,2.084-1.207,3.116-1.637
			c1.021,0.395,1.766,0.969,2.231,1.724c0.372,0.604,0.558,1.294,0.558,2.071V46.814z M23.689,39.328c0-0.5-0.337-0.94-1.01-1.324
			c-1.114,0.824-1.672,1.708-1.672,2.648v6.252c0,0.498,0.335,0.94,1.009,1.322l1.655-1.219L23.689,39.328z"/>
		<path fill="#1E1E1E" d="M36.945,35.566c1.034,0.406,1.78,0.993,2.248,1.759l-2.631,1.949c-0.022-0.476-0.353-0.9-0.991-1.271
			l-1.69,1.235v7.229c0,0.358,0.063,0.702,0.193,1.026c0.103,0.256,0.249,0.487,0.434,0.698c0.209,0.254,0.419,0.44,0.628,0.556
			l-2.595,1.916l-0.018-0.018h-0.016l-0.037-0.016l-0.085-0.055l-0.124-0.066c-0.104-0.072-0.202-0.14-0.295-0.211
			c-0.116-0.092-0.234-0.191-0.348-0.295c-0.267-0.256-0.477-0.541-0.629-0.853c-0.198-0.384-0.295-0.795-0.295-1.237V39.78
			c0-0.662-0.209-1.23-0.626-1.705c-0.209-0.246-0.419-0.424-0.627-0.54l2.577-1.915h0.02l0.052,0.034l0.067,0.034l0.104,0.053
			c0.082,0.059,0.168,0.116,0.261,0.175c0.105,0.081,0.204,0.161,0.297,0.241c0.243,0.21,0.446,0.443,0.609,0.699
			c0.208,0.314,0.344,0.649,0.401,1.01L36.945,35.566z"/>
		<path fill="#1E1E1E" d="M44.958,46.502c0,0.662,0.209,1.229,0.628,1.708c0.207,0.24,0.416,0.422,0.626,0.537l-2.594,1.917
			L43.6,50.646h-0.018l-0.034-0.016l-0.089-0.054l-0.121-0.069c-0.105-0.07-0.203-0.138-0.297-0.209
			c-0.115-0.092-0.225-0.192-0.33-0.295c-0.278-0.257-0.493-0.54-0.646-0.854c-0.196-0.381-0.295-0.795-0.295-1.236V39.78
			c0-0.661-0.208-1.229-0.626-1.705c-0.212-0.244-0.418-0.424-0.628-0.54l2.578-1.917h0.018l0.032,0.018l0.038,0.017l0.085,0.054
			l0.122,0.07c0.095,0.058,0.193,0.125,0.297,0.207c0.116,0.095,0.228,0.187,0.332,0.281c0.28,0.268,0.494,0.55,0.644,0.852
			c0.197,0.396,0.297,0.813,0.297,1.253V46.502z M43.233,31.422c0.094,0.15,0.203,0.295,0.33,0.435
			c0.175,0.185,0.362,0.345,0.559,0.471c0.369,0.221,0.777,0.33,1.218,0.33c0.245,0,0.5-0.035,0.765-0.103
			c-0.382,0.764-0.893,1.368-1.531,1.812c-0.477,0.324-0.951,0.486-1.431,0.486c-0.834,0-1.675-0.499-2.525-1.497L43.233,31.422z"/>
		<path fill="#1E1E1E" d="M57.847,46.502c0,0.997,0.419,1.747,1.253,2.247l-2.576,1.915l-0.017-0.017H56.49
			c-1.208-0.904-1.811-2.049-1.811-3.428v-7.89c0-0.498-0.336-0.94-1.011-1.324L51.98,39.24v7.262c0,0.997,0.412,1.747,1.235,2.247
			l-2.576,1.915l-0.02-0.017h-0.017c-1.207-0.904-1.81-2.049-1.81-3.428V33.616c0-0.372-0.066-0.714-0.192-1.026
			c-0.106-0.245-0.25-0.478-0.436-0.698c-0.21-0.232-0.419-0.404-0.627-0.523l2.579-1.915h0.034l0.018,0.02l0.035,0.014l0.088,0.054
			l0.121,0.069c0.092,0.058,0.19,0.128,0.295,0.21c0.116,0.081,0.227,0.172,0.331,0.277c0.279,0.269,0.494,0.552,0.644,0.856
			c0.198,0.392,0.297,0.811,0.297,1.25v5.644l3.065-2.282c1.022,0.395,1.764,0.97,2.229,1.725c0.371,0.604,0.555,1.295,0.555,2.071
			L57.847,46.502z"/>
		<path fill="#1E1E1E" d="M64.869,46.502c0,0.662,0.208,1.229,0.626,1.708c0.208,0.24,0.417,0.422,0.626,0.537l-2.592,1.917
			l-0.021-0.019h-0.017l-0.034-0.016l-0.085-0.054l-0.124-0.069c-0.104-0.07-0.202-0.138-0.296-0.209
			c-0.115-0.092-0.227-0.192-0.33-0.295c-0.279-0.257-0.495-0.54-0.646-0.854c-0.197-0.381-0.295-0.795-0.295-1.236V39.78
			c0-0.661-0.208-1.229-0.625-1.705c-0.21-0.244-0.418-0.424-0.628-0.54l2.577-1.917h0.019l0.033,0.018l0.036,0.017l0.087,0.054
			l0.121,0.07c0.096,0.058,0.192,0.125,0.296,0.207c0.118,0.095,0.229,0.187,0.333,0.281c0.278,0.268,0.494,0.55,0.644,0.852
			c0.197,0.396,0.297,0.813,0.297,1.253V46.502z M63.145,31.422c0.092,0.15,0.203,0.295,0.33,0.435
			c0.174,0.185,0.361,0.345,0.559,0.471c0.37,0.221,0.778,0.33,1.219,0.33c0.243,0,0.5-0.035,0.764-0.103
			c-0.383,0.764-0.893,1.368-1.531,1.812c-0.477,0.324-0.952,0.486-1.43,0.486c-0.836,0-1.678-0.499-2.526-1.497L63.145,31.422z"/>
		<path fill="#1E1E1E" d="M90.875,36.384c0.382,1.044,0.586,2.102,0.607,3.172v0.188c0,1.059-0.18,2.055-0.54,2.996
			c-0.963,2.67-4.005,5.997-9.124,9.979c-0.08,0-0.522-0.15-1.323-0.453c-0.861-0.314-1.401-0.522-1.62-0.627
			c-1.766-0.848-3.256-1.881-4.477-3.1c-1.371-1.358-2.317-2.866-2.836-4.527c-0.338-1.09-0.508-2.119-0.508-3.083
			c0-0.244,0.014-0.48,0.037-0.713c0.115-1.162,0.51-2.374,1.185-3.639c0.592-1.114,1.579-2.317,2.962-3.605
			c0.485-0.453,1.341-1.107,2.565-1.959c1.226-0.854,1.978-1.315,2.256-1.383c0.06-0.012,0.14-0.02,0.244-0.02
			c0.418,0,1.207,0.098,2.369,0.296c1.463,0.257,2.88,0.837,4.248,1.743C88.861,32.926,90.179,34.503,90.875,36.384 M87.845,44.012
			c0.149-0.721,0.226-1.415,0.226-2.09c0-1.324-0.291-2.564-0.871-3.727c-1.078-2.17-2.998-3.904-5.762-5.206
			c-0.255-0.116-0.633-0.221-1.133-0.315c-0.208-0.022-0.425-0.033-0.642-0.033c-0.779,0-1.58,0.151-2.406,0.453
			c-0.685,0.245-1.277,0.649-1.774,1.22c-0.487,0.557-0.831,1.196-1.028,1.914c-0.198,0.755-0.295,1.487-0.295,2.194
			c0,0.487,0.046,0.965,0.138,1.429c0.22,1.059,0.716,2.194,1.483,3.413c1.613,2.554,4.23,4.504,7.852,5.851
			C86.128,47.164,87.531,45.462,87.845,44.012"/>
		<path fill="#1E1E1E" d="M100.351,35.566c1.036,0.406,1.784,0.993,2.248,1.759l-2.629,1.949c-0.022-0.476-0.355-0.9-0.992-1.271
			l-1.691,1.235v7.229c0,0.358,0.065,0.702,0.194,1.026c0.103,0.256,0.25,0.487,0.437,0.698c0.208,0.254,0.417,0.44,0.624,0.556
			l-2.592,1.916l-0.018-0.018h-0.018l-0.035-0.016l-0.086-0.055l-0.125-0.066c-0.102-0.072-0.201-0.14-0.293-0.211
			c-0.117-0.092-0.233-0.191-0.348-0.295c-0.266-0.256-0.477-0.541-0.627-0.853c-0.198-0.384-0.298-0.795-0.298-1.237V39.78
			c0-0.662-0.208-1.23-0.625-1.705c-0.21-0.246-0.418-0.424-0.627-0.54l2.576-1.915h0.018l0.052,0.034l0.071,0.034l0.102,0.053
			c0.085,0.059,0.17,0.116,0.264,0.175c0.104,0.081,0.202,0.161,0.294,0.241c0.245,0.21,0.446,0.443,0.611,0.699
			c0.208,0.314,0.344,0.649,0.399,1.01L100.351,35.566z"/>
		<path fill="#1E1E1E" d="M107.879,37.205v9.297c0,0.662,0.209,1.229,0.625,1.708c0.208,0.24,0.418,0.422,0.627,0.538l-2.577,1.916
			l-0.018-0.018h-0.035l-0.035-0.017l-0.087-0.055l-0.121-0.068c-0.092-0.07-0.192-0.138-0.297-0.209
			c-0.117-0.092-0.225-0.192-0.33-0.295c-0.28-0.256-0.493-0.541-0.646-0.854c-0.196-0.384-0.295-0.795-0.295-1.236V37.205h-1.289
			l0.696-1.638h0.609c0-0.741-0.068-1.272-0.209-1.584c-0.104-0.246-0.25-0.478-0.437-0.698c-0.207-0.232-0.417-0.405-0.625-0.521
			l2.594-1.916h0.019l0.017,0.018l0.035,0.018l0.085,0.053l0.122,0.069c0.106,0.058,0.203,0.128,0.294,0.209
			c0.118,0.079,0.236,0.172,0.353,0.276c0.263,0.269,0.475,0.552,0.625,0.855c0.198,0.396,0.299,0.812,0.299,1.254v1.968h1.479
			l-0.696,1.638H107.879z"/>
		<path fill="#1E1E1E" d="M120.594,46.814c0,0.279,0.068,0.547,0.208,0.803c0.103,0.209,0.244,0.411,0.419,0.609
			c0.22,0.22,0.434,0.393,0.644,0.522l-2.593,1.916c-0.431-0.243-0.797-0.615-1.099-1.115c-0.218-0.37-0.404-0.8-0.556-1.289
			l-3.24,2.404c-1.567-0.615-2.473-1.631-2.716-3.047h-0.018c-0.047-0.232-0.076-0.501-0.088-0.803h0.019v-5.953
			c0-0.616,0.326-1.273,0.974-1.97c0.511-0.556,1.226-1.12,2.143-1.688c1.045-0.663,2.086-1.207,3.118-1.637
			c1.021,0.395,1.766,0.969,2.229,1.724c0.37,0.604,0.557,1.294,0.557,2.071V46.814z M117.441,39.328c0-0.5-0.335-0.94-1.009-1.324
			c-1.117,0.824-1.671,1.708-1.671,2.648v6.252c0,0.498,0.335,0.94,1.008,1.322l1.654-1.219L117.441,39.328z"/>
		<path fill="#1E1E1E" d="M124.099,33.616c0-0.372-0.066-0.714-0.193-1.026c-0.106-0.245-0.25-0.478-0.437-0.696
			c-0.208-0.234-0.418-0.406-0.626-0.524l2.595-1.915h0.017l0.017,0.018l0.036,0.018l0.085,0.051l0.125,0.069
			c0.103,0.06,0.203,0.128,0.295,0.21c0.116,0.08,0.228,0.174,0.333,0.277c0.28,0.269,0.493,0.551,0.644,0.854
			c0.197,0.394,0.297,0.813,0.297,1.252v5.956l3.831-2.854l0.016,0.016l0.017-0.034c0.092,0.16,0.204,0.312,0.332,0.451
			c0.173,0.185,0.365,0.337,0.576,0.454c0.358,0.22,0.76,0.33,1.2,0.33c0.246,0,0.5-0.036,0.768-0.104
			c-0.212,0.428-0.508,0.847-0.893,1.254c-0.324,0.349-0.66,0.608-1.006,0.785c-0.349,0.173-0.697,0.26-1.043,0.26
			c-0.106,0-0.21-0.006-0.316-0.018c0.929,0.407,1.613,0.977,2.056,1.706c0.347,0.581,0.521,1.244,0.521,1.985v4.11
			c0,0.997,0.418,1.748,1.256,2.246l-2.579,1.916l-0.017-0.017h-0.016c-1.173-0.882-1.777-1.992-1.811-3.325v-4.962
			c0-0.489-0.338-0.93-1.011-1.323l-1.879,1.39v4.076c0,0.997,0.416,1.748,1.252,2.246l-2.596,1.916l-0.017-0.017h-0.017
			c-1.206-0.905-1.81-2.049-1.81-3.43V33.616z M130.504,38.631c-0.393-0.106-0.778-0.302-1.148-0.592l-2.071,1.532v1.444
			L130.504,38.631z"/>
		<path fill="#1E1E1E" d="M145.102,48.156l-3.292,2.508c-0.148-0.012-0.306-0.029-0.469-0.052c-0.211-0.037-0.419-0.081-0.627-0.141
			c-0.556-0.16-1.069-0.405-1.534-0.729c-1.321-0.929-2.165-2.439-2.523-4.527c-0.117-0.627-0.172-1.266-0.172-1.917
			c0-0.778,0.081-1.57,0.243-2.384c0.268-1.324,0.747-2.432,1.444-3.327c0.881-1.115,2.078-1.868,3.587-2.262
			c2.565,0.742,3.848,3.691,3.848,8.846c0,1.172-0.063,2.448-0.193,3.83L145.102,48.156z M139.164,30.518
			c0.255,0.592,0.841,1.3,1.758,2.124l-2.594,1.915c-0.313-0.162-0.621-0.412-0.923-0.748c-0.349-0.407-0.622-0.871-0.817-1.393
			L139.164,30.518z M142.595,44.587c-0.026-4.611-0.907-6.919-2.649-6.932c-0.52,0.894-0.782,2.048-0.782,3.464
			c0,0.859,0.094,1.806,0.279,2.841c0.103,0.811,0.43,1.59,0.973,2.332c0.57,0.778,1.297,1.301,2.179,1.569V44.587z M144.162,30.518
			c0.258,0.592,0.842,1.3,1.757,2.124l-2.593,1.915c-0.312-0.162-0.62-0.412-0.921-0.748c-0.352-0.407-0.62-0.871-0.821-1.393
			L144.162,30.518z"/>
		<path fill="#1E1E1E" d="M155.551,35.566l0.018,0.017h0.018l0.035,0.018l0.086,0.053l0.123,0.07
			c0.108,0.068,0.206,0.139,0.296,0.208c0.127,0.094,0.243,0.191,0.351,0.296c0.266,0.256,0.48,0.541,0.645,0.854
			c0.195,0.382,0.296,0.796,0.296,1.235v10.972c-0.012,1.904-0.38,3.454-1.098,4.648c-0.094,0.139-0.174,0.264-0.245,0.366
			c-0.104,0.172-0.215,0.33-0.329,0.467c-0.291,0.397-0.601,0.728-0.923,0.995c-0.754,0.651-1.581,0.975-2.474,0.975
			c-0.175,0-0.348-0.011-0.521-0.035c-0.919-0.126-1.697-0.574-2.333-1.341c-0.429-0.509-0.646-1.025-0.646-1.549
			c0-0.336,0.095-0.68,0.278-1.028c0.303-0.567,0.76-0.859,1.377-0.871c0.197,0,0.393,0.029,0.591,0.089
			c0.07,0.012,0.134,0.029,0.193,0.052l0.053,0.033h0.016c-0.43,0.268-0.668,0.599-0.711,0.992v0.122
			c0,0.302,0.114,0.57,0.346,0.804c0.267,0.254,0.584,0.38,0.958,0.38h0.089c0.461-0.023,0.903-0.248,1.322-0.677
			c0.579-0.592,0.869-1.297,0.869-2.108v-3.221l-3.082,2.281c-1.011-0.395-1.754-0.968-2.229-1.723
			c-0.37-0.603-0.557-1.296-0.557-2.073v-7.452c0-0.28-0.064-0.547-0.191-0.803c-0.106-0.208-0.252-0.412-0.436-0.609
			c-0.213-0.221-0.421-0.387-0.63-0.504l2.597-1.933c0.36,0.22,0.678,0.522,0.957,0.905c0.22,0.326,0.408,0.692,0.556,1.099
			c0.177,0.474,0.287,1.049,0.334,1.723l-0.018,7.611c0,0.498,0.335,0.945,1.008,1.34l1.689-1.271v-7.245
			c0-0.65-0.208-1.218-0.627-1.707c-0.208-0.243-0.423-0.417-0.644-0.521L155.551,35.566z"/>
		<path fill="#1E1E1E" d="M35.273,63.431h0.019c0.801-0.858,2.039-2.182,3.71-3.969c0.533-0.568,1.073-1.143,1.618-1.723
			c0.176-0.184,0.338-0.359,0.489-0.524c0.047-0.057,0.087-0.104,0.123-0.138l0.053-0.053c0.452-0.464,0.679-0.889,0.679-1.27
			c0-0.037-0.008-0.078-0.019-0.122c-0.035-0.222-0.145-0.454-0.331-0.697c-0.164-0.208-0.359-0.413-0.594-0.611l2.597-1.931
			c0.825,0.847,1.312,1.756,1.463,2.732c0.032,0.21,0.051,0.417,0.051,0.628c0,0.394-0.059,0.79-0.174,1.184
			c-0.22,0.79-0.668,1.543-1.341,2.262l-4.648,4.946c1.833,2.054,3.098,4.077,3.795,6.071c0.696,1.989,1.473,3.531,2.334,4.623
			c0.673,0.884,1.409,1.323,2.212,1.323c0.199,0,0.4-0.03,0.607-0.088c0,1.22-0.523,1.987-1.567,2.299
			c-0.429,0.139-0.84,0.209-1.238,0.209c-0.591,0-1.146-0.143-1.67-0.436c-0.893-0.477-1.667-1.379-2.323-2.715
			c-0.656-1.335-1.037-2.118-1.142-2.351c-1.962-4.122-3.524-6.303-4.685-6.55h-0.019v5.503c0,0.456,0.105,0.871,0.316,1.254
			c0.138,0.267,0.33,0.512,0.572,0.731l0.385,0.226l-0.036,0.019l0.017,0.02l-2.577,1.913h-0.016l-0.227,0.157
			c-0.348-0.197-0.713-0.359-1.097-0.49c-0.477-0.161-0.957-0.277-1.444-0.347c-0.302-0.034-0.604-0.051-0.909-0.051
			c-0.95,0-1.901,0.193-2.852,0.574c0.264-0.488,0.663-0.985,1.184-1.498c1.044-0.998,2.209-1.549,3.5-1.654V57.618
			c0-1.824-1.074-2.736-3.223-2.736c0.523-1.298,1.62-1.949,3.291-1.949c2.078,0,3.116,1.016,3.116,3.046V63.431z"/>
		<path fill="#1E1E1E" d="M55.579,70.12c0,0.358,0.064,0.695,0.191,1.01c0.105,0.255,0.251,0.487,0.437,0.696
			c0.208,0.244,0.418,0.425,0.627,0.541l-2.577,1.917h-0.018l-0.054-0.038l-0.068-0.033l-0.104-0.054
			c-0.082-0.057-0.163-0.114-0.243-0.174c-0.105-0.082-0.208-0.162-0.314-0.243c-0.244-0.21-0.447-0.443-0.609-0.697
			c-0.197-0.325-0.332-0.668-0.401-1.029l-3.117,2.317c-1.01-0.394-1.754-0.97-2.229-1.724c-0.371-0.602-0.558-1.295-0.558-2.073
			v-7.453c0-0.277-0.065-0.545-0.192-0.803c-0.105-0.218-0.249-0.422-0.433-0.606c-0.211-0.222-0.419-0.395-0.629-0.523l2.578-1.917
			c0.372,0.21,0.697,0.513,0.977,0.906c0.218,0.315,0.403,0.682,0.555,1.1c0.177,0.475,0.286,0.909,0.332,1.302v8.046
			c0,0.487,0.331,0.927,0.994,1.307l1.688-1.237v-7.261c0-0.358-0.068-0.697-0.209-1.01c-0.105-0.254-0.242-0.487-0.417-0.696
			c-0.22-0.245-0.437-0.426-0.644-0.541l2.594-1.917h0.017l0.019,0.021l0.033,0.016l0.086,0.054l0.123,0.067
			c0.104,0.071,0.204,0.14,0.295,0.212c0.129,0.092,0.245,0.185,0.35,0.276c0.265,0.268,0.48,0.56,0.644,0.873
			c0.196,0.384,0.297,0.796,0.297,1.236C55.598,62.486,55.591,65.198,55.579,70.12"/>
		<path fill="#1E1E1E" d="M67.561,70.171c0,0.998,0.413,1.747,1.234,2.247l-2.574,1.917l-0.019-0.019h-0.017
			c-1.195-0.905-1.794-2.049-1.794-3.432v-7.889c0-0.498-0.33-0.939-0.994-1.321l-1.688,1.238v7.259c0,0.998,0.41,1.747,1.238,2.247
			l-2.577,1.917l-0.02-0.019h-0.017c-1.208-0.905-1.812-2.049-1.812-3.432V63.45c0-0.661-0.208-1.23-0.625-1.707
			c-0.211-0.244-0.417-0.427-0.629-0.541l2.578-1.915h0.019l0.052,0.036l0.068,0.036l0.105,0.052
			c0.081,0.056,0.167,0.116,0.26,0.172c0.106,0.083,0.202,0.164,0.295,0.245c0.245,0.209,0.448,0.443,0.611,0.695
			c0.209,0.315,0.342,0.655,0.4,1.012l3.117-2.299c1.313,0.511,2.165,1.325,2.56,2.438l3.272-2.438
			c1.022,0.395,1.767,0.97,2.23,1.724c0.373,0.601,0.558,1.294,0.558,2.072v7.139c0,0.998,0.416,1.747,1.253,2.247l-2.577,1.917
			l-0.018-0.019h-0.017c-1.207-0.905-1.813-2.049-1.813-3.432v-7.889c0-0.498-0.33-0.939-0.993-1.321l-1.67,1.238V70.171z"/>
		<path fill="#1E1E1E" d="M79.524,76.284c0,0.359,0.062,0.698,0.191,1.011c0.104,0.253,0.249,0.487,0.436,0.695
			c0.209,0.246,0.418,0.425,0.627,0.54l-2.596,1.916l-0.017-0.018h-0.018l-0.036-0.016l-0.085-0.052l-0.123-0.069
			c-0.104-0.073-0.204-0.141-0.296-0.212c-0.116-0.092-0.225-0.189-0.331-0.295c-0.278-0.255-0.493-0.54-0.645-0.852
			c-0.197-0.384-0.295-0.793-0.295-1.235V63.397c0-0.358-0.065-0.702-0.191-1.027c-0.106-0.243-0.25-0.474-0.437-0.696
			c-0.207-0.234-0.418-0.409-0.626-0.523l2.578-1.915h0.018l0.054,0.034l0.068,0.037l0.104,0.052
			c0.091,0.058,0.18,0.115,0.261,0.173c0.104,0.082,0.202,0.163,0.296,0.244c0.254,0.221,0.465,0.459,0.626,0.713
			c0.196,0.314,0.332,0.656,0.401,1.028l3.065-2.281c1.57,0.617,2.479,1.631,2.734,3.045l0.017,8.57l-4.649,3.499
			c-0.186-0.301-0.563-0.613-1.131-0.939V76.284z M79.524,62.892v8.342c0.359-0.138,0.711-0.207,1.062-0.207
			c0.545,0,1.074,0.172,1.585,0.52v-8.551c0-0.498-0.332-0.945-0.992-1.338L79.524,62.892z"/>
		<path fill="#1E1E1E" d="M91.051,70.171c0,0.662,0.209,1.233,0.627,1.707c0.208,0.245,0.417,0.426,0.627,0.541l-2.596,1.915
			l-0.017-0.018h-0.019L89.641,74.3l-0.086-0.052l-0.124-0.069c-0.104-0.071-0.204-0.14-0.296-0.21
			c-0.114-0.091-0.224-0.193-0.332-0.296c-0.277-0.256-0.493-0.54-0.644-0.855c-0.196-0.379-0.295-0.794-0.295-1.234V63.45
			c0-0.663-0.209-1.23-0.624-1.707c-0.214-0.244-0.421-0.427-0.63-0.541l2.577-1.915h0.018l0.032,0.018l0.038,0.019l0.087,0.052
			l0.12,0.07c0.095,0.058,0.192,0.126,0.297,0.207c0.118,0.095,0.227,0.186,0.332,0.281c0.279,0.267,0.493,0.55,0.645,0.853
			c0.196,0.396,0.295,0.812,0.295,1.252V70.171z M89.327,55.092c0.095,0.15,0.202,0.293,0.332,0.435
			c0.174,0.188,0.361,0.344,0.555,0.471c0.373,0.22,0.779,0.329,1.222,0.329c0.243,0,0.499-0.034,0.764-0.105
			c-0.381,0.767-0.893,1.37-1.531,1.812c-0.476,0.327-0.952,0.487-1.431,0.487c-0.833,0-1.676-0.497-2.524-1.498L89.327,55.092z"/>
		<path fill="#1E1E1E" d="M100.246,59.234c1.031,0.409,1.782,0.994,2.247,1.761l-2.63,1.949c-0.023-0.476-0.354-0.9-0.993-1.27
			l-1.688,1.238v7.225c0,0.358,0.063,0.702,0.188,1.027c0.107,0.255,0.252,0.488,0.438,0.696c0.208,0.257,0.418,0.442,0.624,0.557
			l-2.592,1.915l-0.018-0.018h-0.019L95.768,74.3l-0.083-0.054l-0.124-0.067c-0.103-0.071-0.204-0.139-0.296-0.21
			c-0.116-0.091-0.233-0.193-0.348-0.296c-0.268-0.256-0.476-0.54-0.627-0.855c-0.197-0.379-0.298-0.794-0.298-1.234V63.45
			c0-0.663-0.207-1.23-0.625-1.707c-0.21-0.244-0.419-0.427-0.628-0.541l2.576-1.915h0.018l0.054,0.037l0.071,0.033l0.103,0.053
			c0.083,0.056,0.167,0.117,0.261,0.173c0.106,0.083,0.203,0.164,0.296,0.245c0.245,0.209,0.444,0.443,0.609,0.697
			c0.208,0.313,0.343,0.652,0.401,1.01L100.246,59.234z"/>
		<path fill="#1E1E1E" d="M106.203,69.963c0.871,1.182,2.098,1.776,3.691,1.776c0.394,0,0.812-0.036,1.251-0.106l-3.551,2.7
			c-0.152-0.01-0.307-0.027-0.469-0.052c-0.209-0.034-0.417-0.08-0.627-0.138c-0.557-0.164-1.07-0.408-1.531-0.731
			c-1.324-0.93-2.167-2.44-2.525-4.529c-0.117-0.628-0.176-1.264-0.176-1.914c0-0.779,0.082-1.574,0.244-2.388
			c0.267-1.323,0.748-2.433,1.445-3.324c0.883-1.117,2.077-1.87,3.587-2.266l2.178,3.013l-2.249,1.708l-1.741-2.385
			c-0.52,0.894-0.783,2.05-0.783,3.464c0,0.86,0.091,1.805,0.277,2.84C105.329,68.442,105.654,69.22,106.203,69.963"/>
		<path fill="#1E1E1E" d="M116.022,70.171c0,0.662,0.21,1.233,0.627,1.707c0.208,0.245,0.417,0.426,0.627,0.541l-2.594,1.915
			l-0.02-0.018h-0.015l-0.035-0.016l-0.088-0.052l-0.123-0.069c-0.104-0.071-0.2-0.14-0.295-0.21
			c-0.114-0.091-0.226-0.193-0.332-0.296c-0.277-0.256-0.491-0.54-0.644-0.855c-0.196-0.379-0.294-0.794-0.294-1.234V63.45
			c0-0.663-0.209-1.23-0.626-1.707c-0.211-0.244-0.419-0.427-0.627-0.541l2.577-1.915h0.018l0.033,0.018l0.036,0.019l0.087,0.052
			l0.123,0.07c0.092,0.058,0.191,0.126,0.296,0.207c0.115,0.095,0.226,0.186,0.33,0.281c0.281,0.267,0.494,0.55,0.644,0.853
			c0.199,0.396,0.296,0.812,0.296,1.252V70.171z M114.297,55.092c0.096,0.15,0.206,0.293,0.333,0.435
			c0.175,0.188,0.361,0.344,0.557,0.471c0.37,0.22,0.779,0.329,1.219,0.329c0.243,0,0.5-0.034,0.768-0.105
			c-0.384,0.767-0.896,1.37-1.535,1.812c-0.476,0.327-0.949,0.487-1.429,0.487c-0.836,0-1.677-0.497-2.523-1.498L114.297,55.092z"/>
		<path fill="#1E1E1E" d="M123.832,65.375c1.597,0.923,2.464,1.833,2.604,2.727c0.091,0.534,0.137,1.017,0.137,1.444
			c0,0.186-0.008,0.366-0.034,0.541c-0.091,0.73-0.355,1.319-0.782,1.759c-0.071,0.057-1.005,0.766-2.805,2.124
			c-0.335,0.245-0.709,0.365-1.114,0.365c-0.51,0-1.085-0.199-1.724-0.592c-1.125-0.686-1.736-1.521-1.83-2.507l2.422-1.795
			c0.082,0.292,0.22,0.586,0.419,0.873c0.531,0.764,1.159,1.242,1.88,1.428c0.129,0.035,0.242,0.052,0.346,0.052
			c0.327,0,0.565-0.138,0.716-0.418c0.035-0.058,0.062-0.144,0.086-0.259l0.017-0.123V70.87c0.012-0.071,0.016-0.141,0.016-0.211
			c0-0.105-0.01-0.199-0.033-0.294c-0.21-1.048-0.952-1.892-2.23-2.535c-1.278-0.646-2.09-1.096-2.437-1.35
			c-0.883-0.672-1.325-1.454-1.325-2.349v-0.195c0.059-0.822,0.373-1.508,0.942-2.053l0.173-0.154l3.362-2.509
			c0.103-0.01,0.211-0.016,0.329-0.016c0.709,0,1.416,0.252,2.125,0.763c0.802,0.57,1.348,1.243,1.636,2.021l-2.49,1.863
			c0-0.046-0.172-0.294-0.521-0.747c-0.383-0.464-0.739-0.792-1.063-0.978c-0.281-0.185-0.646-0.3-1.097-0.345h-0.071
			c-0.127,0-0.226,0.021-0.294,0.069l-0.035,0.033c-0.245,0.186-0.365,0.443-0.365,0.767v0.037c0.01,0.115,0.041,0.241,0.085,0.38
			c0.035,0.095,0.082,0.192,0.14,0.296C121.298,63.782,122.239,64.451,123.832,65.375"/>
		<path fill="#1E1E1E" d="M132.128,70.171c0,0.662,0.207,1.233,0.627,1.707c0.208,0.245,0.417,0.426,0.627,0.541l-2.594,1.915
			l-0.02-0.018h-0.016l-0.037-0.016l-0.083-0.052l-0.125-0.069c-0.104-0.071-0.201-0.14-0.297-0.21
			c-0.114-0.091-0.225-0.193-0.33-0.296c-0.277-0.256-0.494-0.54-0.645-0.855c-0.196-0.379-0.295-0.794-0.295-1.234V63.45
			c0-0.663-0.207-1.23-0.627-1.707c-0.208-0.244-0.417-0.427-0.626-0.541l2.578-1.915h0.019l0.034,0.018l0.036,0.019l0.086,0.052
			l0.121,0.07c0.093,0.058,0.192,0.126,0.295,0.207c0.117,0.095,0.226,0.186,0.332,0.281c0.278,0.267,0.495,0.55,0.645,0.853
			c0.196,0.396,0.295,0.812,0.295,1.252V70.171z M130.405,55.092c0.091,0.15,0.203,0.293,0.332,0.435
			c0.175,0.188,0.361,0.344,0.556,0.471c0.371,0.22,0.778,0.329,1.221,0.329c0.243,0,0.496-0.034,0.763-0.105
			c-0.381,0.767-0.892,1.37-1.532,1.812c-0.473,0.327-0.95,0.487-1.427,0.487c-0.836,0-1.677-0.497-2.526-1.498L130.405,55.092z"/>
	</g>
	<g display="none" clip-path="url(#SVGID_2_)">
		<defs>
			<path id="SVGID_3_" d="M21.382,21.963l0.938-1.056c1.425-1.604,2.586-3.182,3.715-4.711c4.072-5.533,7.92-10.758,26.126-15.534
				C64.979-2.701,74.303-9.067,80.61-18.773C86.911-9.07,96.239-2.701,109.066,0.665c18.202,4.773,22.052,9.999,26.125,15.531
				c1.122,1.526,2.285,3.104,3.712,4.713l0.94,1.054c1.021,1.147,2.487,1.806,4.024,1.806c0.565,0,1.127-0.089,1.669-0.265
				l1.339-0.437c3.501-1.14,6.748-1.717,9.65-1.717c12.416,0,15.104,10.61,15.104,13.234v1.256c0,1.934,1.045,3.727,2.728,4.682
				l1.087,0.618c4.872,2.767,8.782,5.882,11.923,9.504c-3.146,3.622-7.055,6.735-11.921,9.496l-1.089,0.621
				c-1.684,0.953-2.729,2.75-2.729,4.685v1.254c0,2.626-2.689,13.236-15.113,13.238c-2.899,0-6.144-0.578-9.642-1.716l-1.34-0.438
				c-0.54-0.173-1.102-0.262-1.665-0.262c-1.538,0-3.006,0.656-4.027,1.804l-0.934,1.053c-1.437,1.612-2.65,3.261-3.721,4.713
				c-4.076,5.533-7.921,10.756-26.123,15.534c-12.826,3.363-22.152,9.733-28.455,19.436c-6.307-9.703-15.631-16.072-28.449-19.436
				C33.959,95.851,30.11,90.627,26.035,85.094c-1.072-1.455-2.286-3.101-3.716-4.71l-0.938-1.056
				c-1.022-1.148-2.491-1.804-4.025-1.804c-0.569,0-1.127,0.089-1.666,0.262l-1.34,0.438c-3.498,1.138-6.742,1.713-9.643,1.716
				c-6.151,0-9.736-2.688-11.664-4.942c-2.722-3.188-3.451-6.716-3.451-8.296v-1.254c0-1.933-1.044-3.731-2.728-4.685l-1.088-0.62
				c-4.868-2.764-8.775-5.878-11.92-9.497c3.139-3.621,7.047-6.736,11.92-9.504l1.088-0.618c1.684-0.955,2.728-2.748,2.728-4.682
				v-1.256c0-2.624,2.69-13.234,15.108-13.234c2.9,0,6.147,0.578,9.644,1.717l1.343,0.437c0.541,0.175,1.1,0.265,1.668,0.265
				C18.895,23.77,20.361,23.111,21.382,21.963 M79.685-21.363c-6,10.036-15.181,16.56-28.071,19.942
				C32.671,3.548,28.605,9.07,24.297,14.922c-1.095,1.487-2.231,3.026-3.589,4.555l-0.936,1.054
				c-0.84,0.941-2.209,1.317-3.417,0.925l-1.342-0.439c-3.714-1.208-7.185-1.821-10.313-1.821c-14.188,0-17.26,12.334-17.26,15.388
				v1.256c0,1.161-0.626,2.235-1.638,2.809l-1.089,0.62c-5.412,3.074-9.695,6.57-13.096,10.689l-0.569,0.688l0.569,0.687
				c3.409,4.119,7.694,7.615,13.096,10.685l1.089,0.62c1.011,0.572,1.638,1.649,1.638,2.809v1.254c0,1.877,0.836,6.032,3.965,9.694
				c2.22,2.6,6.331,5.698,13.302,5.698c3.127,0,6.595-0.613,10.309-1.82l1.338-0.437c0.325-0.108,0.663-0.159,1.001-0.159
				c0.922,0,1.802,0.393,2.415,1.083l0.938,1.052c1.365,1.536,2.549,3.142,3.593,4.559c4.306,5.845,8.376,11.366,27.31,16.338
				c12.892,3.383,22.071,9.911,28.073,19.94l0.926,1.55l0.924-1.55c5.998-10.029,15.183-16.557,28.078-19.94
				c18.935-4.972,23.005-10.494,27.312-16.34c1.044-1.416,2.226-3.021,3.595-4.558l0.934-1.052c0.84-0.943,2.214-1.317,3.415-0.925
				l1.34,0.437c3.715,1.207,7.182,1.82,10.309,1.82c14.193-0.002,17.268-12.34,17.268-15.392v-1.254c0-1.16,0.627-2.239,1.637-2.812
				l1.091-0.618c5.399-3.068,9.687-6.563,13.098-10.684l0.57-0.687l-0.57-0.688c-3.406-4.122-7.689-7.618-13.1-10.689l-1.09-0.62
				c-1.008-0.573-1.635-1.648-1.635-2.809v-1.256c0-3.054-3.075-15.388-17.258-15.388c-3.13,0-6.599,0.612-10.315,1.821
				l-1.343,0.439c-1.203,0.392-2.576,0.016-3.415-0.925l-0.938-1.054c-1.36-1.536-2.494-3.073-3.589-4.559
				c-4.305-5.848-8.372-11.37-27.313-16.339c-12.895-3.383-22.08-9.907-28.079-19.943l-0.923-1.545L79.685-21.363z"/>
		</defs>
		<use xlink:href="#SVGID_3_"  display="inline" overflow="visible" fill="#262626"/>
		<clipPath id="SVGID_4_" display="inline">
			<use xlink:href="#SVGID_3_"  overflow="visible"/>
		</clipPath>
		<rect x="-28.951" y="-22.909" display="inline" clip-path="url(#SVGID_4_)" fill="#262626" width="219.131" height="147.11"/>
	</g>
	<g display="none" clip-path="url(#SVGID_2_)">
		<defs>
			<path id="SVGID_5_" d="M22.511,22.964l0.937-1.055c1.469-1.65,2.653-3.26,3.801-4.819c4.082-5.542,7.607-10.328,25.294-14.967
				c12.402-3.257,21.59-9.22,28.068-18.227C87.085-7.1,96.278-1.134,108.686,2.124c17.688,4.638,21.21,9.424,25.291,14.967
				c1.142,1.551,2.325,3.159,3.801,4.821l0.936,1.052c1.309,1.471,3.187,2.314,5.154,2.314c0.726,0,1.445-0.116,2.136-0.34
				l1.34-0.436c3.348-1.088,6.437-1.644,9.182-1.644c4.824,0,8.523,1.696,10.998,5.044c1.963,2.651,2.597,5.649,2.597,6.682v1.256
				c0,2.475,1.337,4.772,3.49,5.995l1.091,0.617c4.285,2.433,7.768,5.118,10.637,8.191c-2.874,3.078-6.359,5.758-10.637,8.188
				l-1.087,0.621c-2.157,1.22-3.494,3.518-3.494,5.996v1.254c0,1.034-0.635,4.03-2.597,6.684c-2.476,3.347-6.176,5.044-11.007,5.044
				c-2.739,0-5.827-0.552-9.173-1.64l-1.342-0.435c-0.689-0.227-1.408-0.341-2.131-0.341c-1.968,0-3.845,0.844-5.154,2.314
				l-0.934,1.05c-1.484,1.671-2.717,3.344-3.807,4.823c-4.082,5.54-7.607,10.328-25.293,14.968
				c-12.404,3.256-21.597,9.221-28.072,18.225c-6.479-9.004-15.667-14.969-28.068-18.225c-17.685-4.64-21.208-9.428-25.294-14.969
				c-1.088-1.479-2.32-3.151-3.802-4.819l-0.937-1.056c-1.307-1.468-3.187-2.312-5.153-2.312c-0.727,0-1.443,0.114-2.132,0.341
				l-1.34,0.435c-3.346,1.088-6.435,1.64-9.176,1.64c-5.576,0-8.798-2.4-10.518-4.414c-2.44-2.857-3.087-6.035-3.087-7.314v-1.254
				c0-2.477-1.336-4.772-3.489-5.992l-1.09-0.623c-4.28-2.432-7.763-5.112-10.636-8.189c2.87-3.074,6.354-5.759,10.635-8.191
				l1.091-0.617c2.153-1.223,3.489-3.52,3.489-5.995v-1.256c0-1.033,0.635-4.031,2.597-6.682c2.474-3.348,6.173-5.044,11.003-5.044
				c2.741,0,5.828,0.552,9.177,1.644l1.34,0.436c0.691,0.225,1.41,0.34,2.136,0.34C19.323,25.278,21.203,24.436,22.511,22.964
				 M80.256-17.093C73.883-7.984,64.747-1.971,52.324,1.288c-17.985,4.718-21.593,9.618-25.77,15.294
				c-1.135,1.54-2.309,3.133-3.75,4.757l-0.938,1.053c-1.144,1.285-2.789,2.023-4.509,2.024c-0.635,0-1.263-0.098-1.87-0.299
				l-1.338-0.435c-3.437-1.119-6.613-1.685-9.445-1.685c-5.117,0-9.051,1.812-11.696,5.392c-2.089,2.823-2.764,6.068-2.764,7.194
				v1.256c0,2.167-1.172,4.175-3.056,5.245l-1.09,0.619c-4.496,2.555-8.134,5.38-11.114,8.647l-0.269,0.292l0.269,0.292
				c2.984,3.266,6.62,6.096,11.114,8.646l1.09,0.621c1.884,1.067,3.056,3.077,3.056,5.245v1.254c0,1.387,0.688,4.828,3.291,7.873
				c1.841,2.152,5.269,4.718,11.173,4.717c2.833,0,6.01-0.564,9.443-1.684l1.338-0.436c0.604-0.195,1.23-0.295,1.867-0.295
				c1.72,0,3.362,0.739,4.508,2.023l0.938,1.053c1.453,1.638,2.675,3.297,3.751,4.758c4.179,5.674,7.792,10.572,25.77,15.292
				c12.422,3.265,21.56,9.272,27.932,18.384l0.354,0.505l0.353-0.505c6.372-9.109,15.511-15.119,27.939-18.384
				c17.979-4.719,21.587-9.618,25.766-15.292c1.077-1.461,2.3-3.121,3.76-4.759l0.932-1.05c1.145-1.286,2.788-2.024,4.51-2.024
				c0.634,0,1.261,0.101,1.864,0.295l1.339,0.436c3.435,1.12,6.612,1.684,9.443,1.684c5.116,0,9.053-1.815,11.699-5.395
				c2.094-2.826,2.768-6.068,2.768-7.195v-1.254c0-2.168,1.172-4.179,3.057-5.246l1.092-0.62c4.485-2.55,8.123-5.378,11.11-8.644
				l0.266-0.294l-0.266-0.29c-2.983-3.265-6.619-6.094-11.112-8.648l-1.092-0.619c-1.886-1.07-3.055-3.078-3.055-5.245v-1.256
				c0-1.126-0.674-4.371-2.764-7.194c-2.644-3.581-6.58-5.392-11.693-5.392c-2.835,0-6.013,0.565-9.452,1.685l-1.338,0.437
				c-0.604,0.198-1.231,0.296-1.868,0.296c-1.72,0-3.362-0.737-4.507-2.024l-0.937-1.052c-1.451-1.636-2.621-3.224-3.753-4.76
				c-4.177-5.673-7.784-10.574-25.768-15.29C96.475-1.971,87.334-7.984,80.961-17.093l-0.351-0.504L80.256-17.093z"/>
		</defs>
		<use xlink:href="#SVGID_5_"  display="inline" overflow="visible" fill="#1E1E1E"/>
		<clipPath id="SVGID_6_" display="inline">
			<use xlink:href="#SVGID_5_"  overflow="visible"/>
		</clipPath>
		<rect x="-25.285" y="-17.597" display="inline" clip-path="url(#SVGID_6_)" fill="#1E1E1E" width="211.793" height="136.487"/>
	</g>
	<g display="none" clip-path="url(#SVGID_2_)">
		<defs>
			<path id="SVGID_7_" d="M47.312,91.331c-0.003-0.009-0.005-0.017-0.008-0.02c0.008,0.011,0.015,0.025,0.019,0.035
				c0.002,0.012,0.002,0.018,0.002,0.03C47.321,91.358,47.314,91.345,47.312,91.331 M75.103,84.9
				c-0.104,0.013-0.22,0.032-0.343,0.054c-0.309,0.051-0.671,0.13-1.067,0.247c-0.393,0.115-0.82,0.272-1.249,0.45
				c-0.425,0.172-0.822,0.318-1.109,0.324c-0.144,0.001-0.25-0.03-0.35-0.078c-0.098-0.049-0.188-0.119-0.271-0.195
				c-0.167-0.156-0.302-0.321-0.423-0.432c-0.12-0.118-0.226-0.187-0.332-0.187c-0.066,0-0.102,0.117-0.089,0.308
				c0.016,0.193,0.077,0.465,0.27,0.768c0.096,0.15,0.232,0.308,0.438,0.439c0.202,0.131,0.49,0.217,0.766,0.204
				c0.276-0.011,0.523-0.091,0.738-0.194c0.128-0.063,0.254-0.138,0.372-0.22c-0.37,0.392-0.67,0.847-0.885,1.342
				c-0.257,0.598-0.39,1.25-0.385,1.903c0.005,0.653,0.151,1.305,0.424,1.898c0.138,0.298,0.3,0.576,0.502,0.844
				c0.2,0.263,0.436,0.499,0.698,0.704c0.528,0.403,1.161,0.664,1.816,0.748c0.773,0.101,1.553-0.045,2.2-0.384
				c0.325-0.167,0.63-0.378,0.877-0.64c0.249-0.255,0.446-0.552,0.583-0.863c0.278-0.625,0.326-1.3,0.193-1.887
				c-0.065-0.294-0.172-0.565-0.308-0.81c-0.133-0.239-0.299-0.458-0.487-0.635c-0.378-0.352-0.822-0.541-1.213-0.609
				c-0.285-0.048-0.537-0.04-0.757-0.004c-0.058-0.011-0.116-0.018-0.176-0.018c-0.531,0-0.961,0.43-0.961,0.961
				c0,0.532,0.43,0.961,0.961,0.961c0.529,0,0.959-0.43,0.959-0.961c0-0.274-0.114-0.516-0.297-0.691
				c0.067,0.009,0.139,0.025,0.208,0.041c0.342,0.084,0.714,0.271,1.017,0.586c0.299,0.312,0.533,0.759,0.631,1.265
				c0.095,0.505,0.039,1.079-0.208,1.598c-0.466,1.058-1.822,1.75-3.155,1.569c-0.565-0.071-1.111-0.294-1.565-0.644
				c-0.454-0.347-0.799-0.819-1.043-1.35c-0.49-1.05-0.5-2.312-0.031-3.375c0.229-0.535,0.574-1.014,1.001-1.404
				c0.426-0.388,0.945-0.694,1.489-0.906c1.093-0.435,2.331-0.479,3.454-0.13c1.124,0.34,2.125,1.075,2.785,2.049
				c0.332,0.485,0.581,1.024,0.73,1.591c0.149,0.567,0.198,1.159,0.156,1.748c-0.066,0.895-0.339,1.769-0.754,2.577
				c-0.219,0.362-0.462,0.702-0.725,1.013c-0.83,0.995-1.817,1.697-2.787,2.157c-0.978,0.458-1.943,0.686-2.825,0.759
				c-0.119,0.008-0.236,0.017-0.354,0.021c-0.248-0.019-0.508-0.055-0.776-0.119c-0.553-0.138-1.126-0.405-1.573-0.846
				c-0.449-0.441-0.661-0.996-0.714-1.502c-0.051-0.511,0.035-0.978,0.135-1.365c0.102-0.387,0.223-0.703,0.29-0.96
				c0.069-0.257,0.088-0.452,0.013-0.59c-0.045-0.091-0.228-0.061-0.479,0.111c-0.245,0.172-0.563,0.486-0.827,0.977
				c-0.131,0.241-0.244,0.527-0.318,0.857c-0.072,0.327-0.101,0.695-0.051,1.083c0.048,0.386,0.175,0.792,0.398,1.154
				c0.048,0.081,0.101,0.157,0.159,0.231c-0.549-0.372-0.965-0.827-1.235-1.318c-0.25-0.463-0.375-0.958-0.359-1.449
				c0-0.065,0.004-0.125,0.006-0.187c0.006-0.065,0.002-0.14,0.006-0.207c0.001-0.142,0.009-0.285,0.024-0.427
				c0.026-0.283,0.073-0.575,0.15-0.862c0.019-0.068,0.049-0.314,0.098-0.615c0.048-0.3,0.119-0.636,0.192-0.894
				c0.07-0.266,0.126-0.461,0.045-0.641c-0.082-0.173-0.291-0.314-0.664-0.217c-0.436,0.109-0.759-0.049-1.09-0.432
				c-0.328-0.376-0.679-0.952-1.116-1.523c-0.872-1.149-2.09-2.307-3.924-2.574c-1.473-0.204-2.388,0.72-2.857,1.492
				c-0.465,0.78-0.488,1.421-0.047,0.813c0.218-0.308,0.608-0.454,1.109-0.407c0.503,0.048,1.122,0.289,1.756,0.772
				c0.632,0.48,1.299,1.199,1.764,2.203c0.117,0.251,0.218,0.521,0.312,0.819c0.096,0.297,0.184,0.632,0.294,0.994
				c0.111,0.363,0.248,0.752,0.399,1.135c0.156,0.387,0.326,0.777,0.501,1.168c0.149,0.326,0.335,0.666,0.553,1.013
				c0.056,0.088,0.112,0.174,0.17,0.263c0.068,0.096,0.145,0.202,0.224,0.302c0.019,0.023,0.04,0.045,0.058,0.071
				c-0.659-0.48-1.291-1.006-1.884-1.567c-0.44-0.416-0.865-0.854-1.27-1.311c-0.406-0.455-0.797-0.929-1.194-1.402
				c-0.789-0.946-1.599-1.894-2.494-2.765c-0.895-0.868-1.872-1.677-2.99-2.28c-0.557-0.301-1.15-0.548-1.771-0.711
				c-0.62-0.161-1.268-0.233-1.907-0.204c-0.753,0.029-1.479,0.187-2.145,0.427c-0.664,0.245-1.269,0.567-1.796,0.946
				c-0.95,0.682-1.663,1.533-2.017,2.396c-0.974,2.007-1.208,5.001,0.453,6.417c0.422,0.361,0.913,0.625,1.414,0.761
				c0.496,0.141,0.995,0.145,1.409,0.051c0.413-0.091,0.735-0.267,0.964-0.455c0.23-0.186,0.374-0.381,0.462-0.548
				c0.173-0.338,0.144-0.564,0.032-0.614c-0.057-0.026-0.136-0.01-0.244,0.049c-0.109,0.057-0.243,0.158-0.428,0.289
				c-0.382,0.262-0.733,0.289-0.971,0.226c-0.239-0.066-0.377-0.215-0.479-0.39c-0.101-0.174-0.16-0.381-0.238-0.603
				c-0.029-0.088-0.064-0.181-0.101-0.273c0.08,0.013,0.161,0.024,0.238,0.027c0.275,0.021,0.528-0.019,0.737-0.092
				c0.423-0.145,0.654-0.393,0.764-0.567c0.107-0.18,0.105-0.296,0.048-0.32c-0.064-0.024-0.183,0.045-0.409,0.2
				c-0.227,0.156-0.428,0.193-0.572,0.178c-0.146-0.014-0.246-0.075-0.332-0.151c-0.083-0.082-0.154-0.178-0.244-0.288
				c-0.09-0.107-0.197-0.225-0.35-0.375c-0.067-0.066-0.148-0.161-0.305-0.258c-0.155-0.097-0.389-0.196-0.778-0.341
				c-0.391-0.14-0.747-0.624-0.903-1.165c-0.05-0.166-0.082-0.336-0.1-0.502c0.007-0.269,0.064-0.559,0.176-0.855
				c0.318-0.841,1.051-1.715,2.052-2.401c0.957-0.657,2.186-1.148,3.518-1.237c-0.236,0.028-0.498,0.083-0.772,0.173
				c-0.413,0.147-0.853,0.386-1.245,0.748c-0.392,0.363-0.739,0.846-0.946,1.454c-0.209,0.605-0.218,1.202-0.102,1.693
				c0.058,0.243,0.149,0.464,0.26,0.641c0.109,0.181,0.241,0.324,0.367,0.41c0.127,0.083,0.25,0.118,0.348,0.12
				c0.098,0.006,0.169-0.018,0.21-0.053c0.041-0.038,0.051-0.086,0.038-0.152c-0.017-0.066-0.058-0.149-0.124-0.281
				c-0.13-0.278-0.113-0.504-0.043-0.649c0.068-0.151,0.197-0.233,0.353-0.301c0.314-0.135,0.723-0.203,1.098-0.556
				c0.085-0.078,0.209-0.167,0.257-0.368c0.057-0.196,0.029-0.495-0.099-1.055c-0.133-0.558,0.228-1.109,0.752-1.412
				c0.256-0.155,0.552-0.248,0.817-0.279c0.204-0.026,0.388-0.023,0.548,0c0.067,0.017,0.135,0.031,0.203,0.048
				c0.574,0.149,1.127,0.381,1.656,0.662c1.056,0.573,1.999,1.349,2.869,2.196c0.717,0.701,1.386,1.451,2.038,2.224
				c-0.82-0.562-1.802-0.996-2.987-1.08c-1.648-0.115-3.019,0.576-3.772,1.269c-0.837,0.769-0.924,1.537,0.179,1.208
				c2.107-0.618,1.274,1.47,2.974,2.599c0.372,0.248,0.989,0.747,2.602-0.742c1.216-1.123,2.927-0.548,4.172,0.228
				c0.841,0.768,1.744,1.474,2.718,2.077c1.062,0.658,2.211,1.201,3.432,1.537c1.213,0.336,2.51,0.456,3.773,0.255
				c0.628-0.098,1.247-0.275,1.833-0.529c0.293-0.124,0.58-0.271,0.855-0.429c0.271-0.157,0.538-0.327,0.798-0.504
				c1.037-0.724,1.956-1.624,2.656-2.685c0.701-1.055,1.184-2.283,1.276-3.568c0.047-0.642-0.007-1.294-0.169-1.92
				c-0.167-0.625-0.441-1.221-0.806-1.753c-0.725-1.071-1.825-1.88-3.061-2.255c-0.549-0.167-1.122-0.252-1.695-0.252
				C75.999,84.741,75.546,84.794,75.103,84.9"/>
		</defs>
		<use xlink:href="#SVGID_7_"  display="inline" overflow="visible" fill="#1E1E1E"/>
		<clipPath id="SVGID_8_" display="inline">
			<use xlink:href="#SVGID_7_"  overflow="visible"/>
		</clipPath>
		<rect x="46.173" y="84.741" display="inline" clip-path="url(#SVGID_8_)" fill="#1E1E1E" width="36.061" height="14.098"/>
	</g>
	<g display="none" clip-path="url(#SVGID_2_)">
		<defs>
			<path id="SVGID_9_" d="M113.902,91.345c0.006-0.01,0.011-0.024,0.021-0.035c-0.003,0.003-0.003,0.011-0.01,0.02
				c-0.002,0.015-0.009,0.028-0.012,0.045C113.901,91.363,113.901,91.357,113.902,91.345 M83.073,84.993
				c-1.233,0.375-2.335,1.185-3.06,2.255c-0.365,0.532-0.641,1.128-0.804,1.753c-0.163,0.626-0.217,1.278-0.17,1.92
				c0.091,1.286,0.576,2.514,1.276,3.568c0.7,1.062,1.622,1.961,2.657,2.685c0.259,0.177,0.525,0.348,0.8,0.504
				c0.273,0.157,0.559,0.305,0.85,0.429c0.588,0.254,1.205,0.432,1.834,0.529c1.263,0.201,2.559,0.082,3.775-0.255
				c1.219-0.336,2.368-0.879,3.431-1.537c0.971-0.603,1.876-1.31,2.715-2.077c1.246-0.776,2.959-1.351,4.176-0.228
				c1.609,1.489,2.228,0.99,2.603,0.742c1.696-1.129,0.867-3.217,2.972-2.599c1.102,0.329,1.012-0.44,0.181-1.206
				c-0.758-0.696-2.127-1.387-3.774-1.272c-1.184,0.084-2.165,0.519-2.987,1.08c0.651-0.773,1.32-1.522,2.036-2.224
				c0.872-0.847,1.817-1.624,2.873-2.196c0.526-0.281,1.08-0.513,1.654-0.662c0.066-0.017,0.138-0.031,0.203-0.048
				c0.162-0.023,0.346-0.027,0.546,0c0.269,0.031,0.564,0.125,0.82,0.279c0.521,0.302,0.883,0.854,0.753,1.412
				c-0.132,0.561-0.157,0.859-0.104,1.055c0.052,0.202,0.174,0.29,0.257,0.368c0.378,0.354,0.786,0.421,1.102,0.556
				c0.155,0.068,0.281,0.15,0.353,0.301c0.066,0.145,0.082,0.371-0.046,0.649c-0.066,0.132-0.108,0.215-0.124,0.281
				c-0.014,0.066-0.002,0.114,0.038,0.152c0.041,0.036,0.113,0.06,0.209,0.053c0.1-0.001,0.224-0.036,0.349-0.12
				c0.129-0.085,0.258-0.229,0.37-0.41c0.109-0.176,0.197-0.397,0.256-0.641c0.119-0.491,0.108-1.088-0.101-1.693
				c-0.209-0.608-0.553-1.091-0.945-1.454c-0.395-0.362-0.831-0.601-1.246-0.748c-0.273-0.09-0.535-0.146-0.773-0.173
				c1.333,0.088,2.561,0.58,3.521,1.237c1,0.686,1.729,1.56,2.049,2.401c0.113,0.297,0.17,0.587,0.178,0.855
				c-0.02,0.166-0.051,0.336-0.1,0.502c-0.16,0.542-0.512,1.025-0.906,1.165c-0.389,0.145-0.62,0.244-0.775,0.341
				c-0.156,0.098-0.239,0.192-0.307,0.258c-0.155,0.15-0.26,0.268-0.349,0.375c-0.089,0.11-0.159,0.206-0.246,0.288
				c-0.081,0.076-0.183,0.137-0.33,0.151c-0.146,0.015-0.344-0.022-0.574-0.178c-0.225-0.155-0.343-0.224-0.406-0.2
				c-0.061,0.023-0.061,0.14,0.047,0.32c0.109,0.174,0.342,0.422,0.762,0.567c0.21,0.073,0.463,0.113,0.739,0.092
				c0.076-0.003,0.158-0.015,0.239-0.027c-0.037,0.092-0.071,0.185-0.102,0.273c-0.076,0.222-0.139,0.429-0.238,0.603
				c-0.098,0.175-0.242,0.324-0.483,0.39c-0.233,0.063-0.585,0.036-0.967-0.226c-0.186-0.131-0.32-0.231-0.429-0.289
				c-0.106-0.059-0.185-0.075-0.243-0.049c-0.109,0.05-0.139,0.276,0.03,0.614c0.089,0.167,0.234,0.362,0.465,0.548
				c0.231,0.188,0.554,0.364,0.965,0.455c0.411,0.094,0.913,0.09,1.411-0.051c0.498-0.136,0.987-0.4,1.412-0.761
				c1.661-1.415,1.425-4.41,0.454-6.417c-0.355-0.863-1.068-1.714-2.018-2.396c-0.526-0.378-1.133-0.701-1.799-0.946
				c-0.662-0.24-1.387-0.397-2.141-0.427c-0.641-0.029-1.29,0.042-1.907,0.204c-0.62,0.163-1.213,0.41-1.77,0.711
				c-1.119,0.603-2.095,1.412-2.989,2.28c-0.896,0.872-1.704,1.819-2.498,2.765c-0.397,0.473-0.786,0.947-1.19,1.402
				c-0.406,0.457-0.831,0.895-1.271,1.311c-0.596,0.562-1.226,1.087-1.886,1.567c0.019-0.026,0.041-0.048,0.061-0.071
				c0.077-0.101,0.154-0.206,0.222-0.302c0.059-0.089,0.117-0.175,0.169-0.263c0.218-0.347,0.403-0.687,0.552-1.013
				c0.176-0.391,0.347-0.781,0.5-1.168c0.156-0.383,0.287-0.772,0.399-1.135c0.112-0.362,0.198-0.697,0.296-0.994
				c0.094-0.298,0.195-0.568,0.31-0.819c0.467-1.004,1.136-1.723,1.765-2.203c0.639-0.483,1.253-0.725,1.754-0.772
				c0.505-0.047,0.893,0.099,1.112,0.407c0.441,0.608,0.417-0.033-0.046-0.813c-0.467-0.771-1.384-1.696-2.86-1.492
				c-1.833,0.267-3.049,1.425-3.922,2.574c-0.437,0.572-0.786,1.147-1.116,1.523c-0.329,0.383-0.652,0.541-1.085,0.432
				c-0.376-0.097-0.589,0.043-0.667,0.217c-0.083,0.179-0.026,0.375,0.045,0.641c0.073,0.258,0.144,0.594,0.19,0.894
				c0.051,0.301,0.083,0.547,0.101,0.615c0.073,0.287,0.122,0.579,0.151,0.862c0.013,0.142,0.019,0.285,0.025,0.427
				c0.002,0.066-0.003,0.141,0.002,0.207c0.003,0.063,0.009,0.122,0.009,0.187c0.012,0.492-0.113,0.986-0.36,1.449
				c-0.272,0.491-0.69,0.946-1.234,1.318c0.055-0.074,0.109-0.15,0.155-0.231c0.224-0.362,0.352-0.768,0.399-1.154
				c0.049-0.389,0.02-0.756-0.052-1.083c-0.073-0.33-0.187-0.616-0.319-0.857c-0.261-0.491-0.583-0.804-0.828-0.977
				c-0.25-0.172-0.432-0.202-0.477-0.111c-0.073,0.139-0.057,0.333,0.013,0.59c0.069,0.257,0.187,0.574,0.29,0.96
				c0.101,0.388,0.186,0.854,0.133,1.365c-0.052,0.506-0.262,1.061-0.711,1.502c-0.447,0.441-1.021,0.708-1.573,0.846
				c-0.267,0.064-0.528,0.101-0.778,0.119c-0.116-0.004-0.232-0.013-0.354-0.021c-0.883-0.073-1.847-0.301-2.822-0.759
				c-0.972-0.459-1.958-1.162-2.79-2.157c-0.262-0.311-0.5-0.651-0.721-1.013c-0.418-0.809-0.691-1.683-0.754-2.577
				c-0.044-0.589,0.005-1.181,0.155-1.748c0.146-0.567,0.396-1.106,0.728-1.591c0.662-0.974,1.661-1.708,2.784-2.049
				c1.123-0.348,2.364-0.305,3.455,0.13c0.545,0.212,1.063,0.518,1.491,0.906c0.427,0.39,0.771,0.87,1.003,1.404
				c0.468,1.063,0.456,2.325-0.033,3.375c-0.243,0.531-0.588,1.003-1.045,1.35c-0.453,0.35-0.996,0.573-1.564,0.644
				c-1.332,0.181-2.686-0.512-3.156-1.569c-0.246-0.519-0.303-1.092-0.204-1.598c0.093-0.506,0.326-0.953,0.627-1.265
				c0.304-0.315,0.676-0.502,1.017-0.586c0.072-0.016,0.139-0.032,0.208-0.041c-0.184,0.175-0.298,0.417-0.298,0.691
				c0,0.532,0.432,0.961,0.96,0.961c0.532,0,0.959-0.43,0.959-0.961c0-0.531-0.427-0.961-0.959-0.961
				c-0.06,0-0.118,0.007-0.175,0.018c-0.22-0.035-0.475-0.043-0.756,0.004c-0.392,0.068-0.839,0.257-1.214,0.609
				c-0.189,0.177-0.354,0.396-0.488,0.635c-0.135,0.244-0.244,0.516-0.309,0.81c-0.131,0.586-0.086,1.261,0.191,1.887
				c0.143,0.311,0.338,0.608,0.588,0.863c0.246,0.262,0.548,0.473,0.873,0.64c0.648,0.339,1.43,0.485,2.205,0.384
				c0.655-0.084,1.285-0.345,1.813-0.748c0.264-0.205,0.5-0.441,0.701-0.704c0.198-0.268,0.363-0.545,0.5-0.844
				c0.273-0.593,0.418-1.246,0.426-1.898c0.003-0.653-0.128-1.305-0.388-1.903c-0.214-0.495-0.517-0.95-0.886-1.342
				c0.12,0.082,0.243,0.156,0.374,0.22c0.216,0.103,0.461,0.184,0.734,0.194c0.278,0.014,0.567-0.072,0.771-0.204
				c0.205-0.131,0.338-0.289,0.435-0.439c0.195-0.303,0.256-0.575,0.273-0.768c0.013-0.191-0.027-0.308-0.094-0.308
				c-0.105,0-0.211,0.069-0.332,0.187c-0.118,0.111-0.253,0.276-0.419,0.432c-0.086,0.076-0.176,0.146-0.274,0.195
				c-0.098,0.048-0.206,0.079-0.347,0.078c-0.288-0.006-0.686-0.152-1.11-0.324c-0.426-0.178-0.853-0.335-1.249-0.45
				c-0.396-0.117-0.759-0.196-1.064-0.247c-0.125-0.021-0.241-0.041-0.348-0.054c-0.442-0.105-0.897-0.16-1.354-0.16
				C84.194,84.741,83.622,84.825,83.073,84.993"/>
		</defs>
		<use xlink:href="#SVGID_9_"  display="inline" overflow="visible" fill="#1E1E1E"/>
		<clipPath id="SVGID_10_" display="inline">
			<use xlink:href="#SVGID_9_"  overflow="visible"/>
		</clipPath>
		<rect x="78.992" y="84.741" display="inline" clip-path="url(#SVGID_10_)" fill="#1E1E1E" width="36.06" height="14.098"/>
	</g>
</g>
</svg>
