<?xml version="1.0" encoding="utf-8"?>
<!-- Generator: Adobe Illustrator 22.0.1, SVG Export Plug-In . SVG Version: 6.00 Build 0)  -->
<svg version="1.1" id="katman_1" xmlns="http://www.w3.org/2000/svg" xmlns:xlink="http://www.w3.org/1999/xlink" x="0px" y="0px"
	 viewBox="0 0 135.8 40.3" style="enable-background:new 0 0 135.8 40.3;" xml:space="preserve">
<style type="text/css">
	.st0{fill:#A6A6A6;}
	.st1{fill:#FFFFFF;}
	.st2{fill:url(#SVGID_1_);}
	.st3{fill:url(#SVGID_2_);}
	.st4{fill:url(#SVGID_3_);}
	.st5{fill:url(#SVGID_4_);}
	.st6{opacity:0.2;enable-background:new    ;}
	.st7{opacity:0.12;enable-background:new    ;}
	.st8{opacity:0.25;fill:#FFFFFF;enable-background:new    ;}
</style>
<path class="st0" d="M130.2,40H4.7C2.1,40,0,37.9,0,35.3V4.7C0,2.1,2.1,0,4.7,0l0,0h125.5c2.6,0,4.8,2.1,4.8,4.7v30.5
	C135,37.9,132.8,40,130.2,40z"/>
<path d="M134,35.3c0,2.1-1.7,3.8-3.8,3.8H4.7c-2.1,0-3.8-1.7-3.8-3.8l0,0V4.7c0-2.1,1.7-3.8,3.8-3.8h125.5c2.1,0,3.8,1.7,3.8,3.8
	V35.3z"/>
<path class="st1" d="M109.3,8.4c-0.3,1.2-0.8,2.3-1.4,3.4l-0.9,0.1c0.4-1.1,0.7-2.2,0.9-3.4L109.3,8.4z"/>
<path class="st1" d="M115.3,17.9H114v-1.1l0,0c-0.4,0.8-1.3,1.3-2.2,1.2c-0.8,0-1.5-0.3-2-0.9c-0.5-0.7-0.8-1.6-0.8-2.4
	c0-0.9,0.3-1.9,0.9-2.6c0.5-0.6,1.3-0.9,2.1-0.9c0.7-0.1,1.5,0.3,1.9,0.9l0,0V8.2h1.5v7.9C115.3,16.7,115.3,17.3,115.3,17.9z
	 M113.8,15.1V14c0-0.2,0-0.3,0-0.5c-0.1-0.3-0.3-0.7-0.5-0.9c-0.3-0.2-0.6-0.4-1-0.4c-0.5,0-1,0.2-1.3,0.7s-0.5,1.1-0.5,1.7
	c0,0.6,0.1,1.1,0.4,1.6c0.3,0.4,0.8,0.7,1.3,0.7s0.9-0.2,1.2-0.5C113.7,16,113.8,15.5,113.8,15.1z"/>
<path class="st1" d="M123,13.2c-0.3-0.8-1.3-2.4-3.2-2.4c-1.9,0-3.5,1.5-3.5,3.7c0,2.1,1.6,3.7,3.7,3.7c1.7,0,2.7-1,3.1-1.6
	l-1.3-0.8c-0.4,0.6-1,1-1.8,1s-1.4-0.4-1.8-1.1l5-2.1L123,13.2z M117.9,14.4c0-1.4,1.1-2.2,1.9-2.2c0.6,0,1.2,0.3,1.4,0.8
	L117.9,14.4z"/>
<path class="st1" d="M129.6,17.9h-1.5v-3.8c0-1.2-0.4-1.8-1.3-1.8c-0.4,0-0.8,0.2-1.1,0.5c-0.3,0.3-0.4,0.7-0.4,1.1v3.9h-1.5v-4.7
	c0-0.6,0-1.2-0.1-1.9h1.3l0.1,1l0,0c0.2-0.3,0.4-0.6,0.8-0.8s0.9-0.4,1.3-0.4c0.6,0,1.1,0.2,1.6,0.6c0.6,0.6,0.8,1.4,0.8,2.2
	L129.6,17.9L129.6,17.9z"/>
<g>
	
		<linearGradient id="SVGID_1_" gradientUnits="userSpaceOnUse" x1="18.2699" y1="1483.6799" x2="1.4875" y2="1500.4623" gradientTransform="matrix(1 0 0 1 0 -1475.9998)">
		<stop  offset="0" style="stop-color:#00A0FF"/>
		<stop  offset="6.574450e-03" style="stop-color:#00A1FF"/>
		<stop  offset="0.2601" style="stop-color:#00BEFF"/>
		<stop  offset="0.5122" style="stop-color:#00D2FF"/>
		<stop  offset="0.7604" style="stop-color:#00DFFF"/>
		<stop  offset="1" style="stop-color:#00E3FF"/>
	</linearGradient>
	<path class="st2" d="M6.9,6.5C6.6,6.8,6.4,7.3,6.4,7.9V30c0,0.6,0.2,1.1,0.5,1.4L7,31.5l12.4-12.4V19v-0.1L6.9,6.5L6.9,6.5z"/>
	
		<linearGradient id="SVGID_2_" gradientUnits="userSpaceOnUse" x1="30.3343" y1="1495.0498" x2="6.1374" y2="1495.0498" gradientTransform="matrix(1 0 0 1 0 -1475.9998)">
		<stop  offset="0" style="stop-color:#FFE000"/>
		<stop  offset="0.4087" style="stop-color:#FFBD00"/>
		<stop  offset="0.7754" style="stop-color:#FFA500"/>
		<stop  offset="1" style="stop-color:#FF9C00"/>
	</linearGradient>
	<path class="st3" d="M23.5,23.3l-4.1-4.1V19v-0.1l4.1-4.1l0.1,0.1l4.9,2.8c1.4,0.8,1.4,2.1,0,2.9L23.5,23.3L23.5,23.3z"/>
	
		<linearGradient id="SVGID_3_" gradientUnits="userSpaceOnUse" x1="21.3154" y1="1497.2844" x2="-1.4429" y2="1520.0427" gradientTransform="matrix(1 0 0 1 0 -1475.9998)">
		<stop  offset="0" style="stop-color:#FF3A44"/>
		<stop  offset="1" style="stop-color:#C31162"/>
	</linearGradient>
	<path class="st4" d="M23.6,23.2L19.4,19L6.9,31.5C7.4,32,8.1,32,9,31.6L23.6,23.2"/>
	
		<linearGradient id="SVGID_4_" gradientUnits="userSpaceOnUse" x1="3.7617" y1="1475.2117" x2="13.9243" y2="1485.3741" gradientTransform="matrix(1 0 0 1 0 -1475.9998)">
		<stop  offset="0" style="stop-color:#32A071"/>
		<stop  offset="6.850000e-02" style="stop-color:#2DA771"/>
		<stop  offset="0.4762" style="stop-color:#15CF74"/>
		<stop  offset="0.8009" style="stop-color:#06E775"/>
		<stop  offset="1" style="stop-color:#00F076"/>
	</linearGradient>
	<path class="st5" d="M23.6,14.8L9,6.5C8.1,6,7.4,6.1,6.9,6.6L19.4,19L23.6,14.8z"/>
	<g>
		<path class="st6" d="M23.5,23.1L9,31.4c-0.8,0.5-1.5,0.4-2,0l0,0l-0.1,0.1l0,0L7,31.6l0,0c0.5,0.4,1.2,0.5,2,0L23.5,23.1
			L23.5,23.1z"/>
		<path class="st7" d="M6.9,31.3c-0.3-0.3-0.5-0.8-0.5-1.4V30c0,0.6,0.2,1.1,0.5,1.4V31.3L6.9,31.3z"/>
	</g>
	<path class="st7" d="M28.5,20.3l-5,2.8l0.1,0.1l4.9-2.8c0.7-0.4,1-0.9,1-1.4l0,0C29.5,19.5,29.1,19.9,28.5,20.3z"/>
	<path class="st8" d="M9,6.6l19.5,11.1c0.6,0.4,1,0.8,1,1.3l0,0c0-0.5-0.3-1-1-1.4L9,6.6C7.6,5.7,6.5,6.4,6.5,8v0.1
		C6.5,6.5,7.6,5.8,9,6.6z"/>
</g>
<path class="st1" d="M56.6,11.1c-2,0-3.6,1.6-3.6,3.6s1.7,3.6,3.6,3.6c2,0,3.6-1.6,3.6-3.6C60.3,12.6,58.6,11.1,56.6,11.1z
	 M56.6,16.9c-1.1,0-2-0.9-2-2.2s1-2.2,2-2.2c1.1,0,2,0.9,2,2.2S57.7,16.9,56.6,16.9z M48.7,11.1c-2,0-3.6,1.6-3.6,3.6
	s1.7,3.6,3.6,3.6c2,0,3.6-1.6,3.6-3.6S50.6,11.1,48.7,11.1z M48.7,16.9c-1.1,0-2-0.9-2-2.2s1-2.2,2-2.2c1.1,0,2,0.9,2,2.2
	S49.8,16.9,48.7,16.9z M39.2,12.2v1.6h3.7c-0.1,0.9-0.4,1.5-0.9,1.9c-0.5,0.5-1.4,1.2-2.8,1.2c-2.2,0-4-1.9-4-4.1s1.8-4.1,4-4.1
	c1.3,0,2.1,0.5,2.7,1.1L43,8.6C42.1,7.7,40.9,7,39.1,7c-3.1,0-5.7,2.5-5.7,5.6s2.6,5.6,5.7,5.6c1.7,0,2.9-0.6,3.9-1.6
	s1.4-2.4,1.4-3.6c0-0.4,0-0.7-0.1-1L39.2,12.2L39.2,12.2z M77.8,13.4c-0.3-0.8-1.3-2.3-3.1-2.3c-1.9,0-3.4,1.5-3.4,3.6
	c0,2,1.6,3.6,3.6,3.6c1.7,0,2.6-1,3-1.6L76.6,16c-0.4,0.6-1,1-1.8,1s-1.4-0.4-1.8-1.1l4.9-2L77.8,13.4z M72.8,14.6
	c0-1.4,1.1-2.1,1.9-2.1c0.6,0,1.2,0.3,1.4,0.8L72.8,14.6z M68.9,18.1h1.6V7.5h-1.6V18.1z M66.3,11.9L66.3,11.9
	c-0.4-0.4-1.1-0.8-1.9-0.8c-1.9,0-3.5,1.6-3.5,3.6s1.7,3.6,3.5,3.6c0.9,0,1.6-0.4,1.9-0.8h0.1V18c0,1.4-0.8,2.1-1.9,2.1
	c-1,0-1.6-0.7-1.9-1.3l-1.4,0.6c0.4,1,1.5,2.1,3.2,2.1c1.9,0,3.4-1.1,3.4-3.8v-6.5h-1.5L66.3,11.9L66.3,11.9z M64.5,16.9
	c-1.1,0-2-0.9-2-2.1s0.9-2.2,2-2.2s1.9,1,1.9,2.2S65.6,16.9,64.5,16.9z M85.3,7.5h-3.8v10.6h1.6v-4h2.2c1.8,0,3.5-1.3,3.5-3.3
	S87.1,7.5,85.3,7.5z M85.3,12.5h-2.2V8.9h2.2c1.2,0,1.9,1,1.9,1.9C87.2,11.6,86.5,12.5,85.3,12.5z M95.1,11.1
	c-1.2,0-2.3,0.5-2.8,1.7l1.4,0.6c0.3-0.6,0.9-0.8,1.5-0.8c0.8,0,1.7,0.5,1.7,1.4l0,0c-0.3-0.2-0.9-0.4-1.7-0.4c-1.6,0-3,0.9-3,2.4
	s1.3,2.3,2.6,2.3c1.1,0,1.7-0.5,2-1.1h0.1V18h1.6v-4C98.4,12.2,96.9,11.1,95.1,11.1z M95,16.9c-0.5,0-1.3-0.3-1.3-0.9
	c0-0.8,0.9-1.2,1.7-1.2c0.7,0,1.1,0.2,1.5,0.4C96.7,16.1,95.8,16.9,95,16.9z M103.9,11.3l-1.9,4.6l0,0l-1.8-4.6h-1.8l2.8,6.4
	l-1.7,3.6h1.7l4.4-10C105.7,11.3,103.9,11.3,103.9,11.3z M89.6,18.1h1.6V7.5h-1.6V18.1z"/>
<g>
	<path class="st1" d="M34.1,24.6c0-0.2,0-0.3,0.2-0.4c0.1-0.1,0.2-0.2,0.4-0.2s0.3,0.1,0.4,0.2c0.1,0.1,0.2,0.2,0.2,0.4
		c0,0.2-0.1,0.3-0.2,0.4s-0.2,0.2-0.4,0.2s-0.3-0.1-0.4-0.2C34.1,24.9,34.1,24.8,34.1,24.6z M35.2,32.1h-1.1v-6.4h1.1V32.1z"/>
	<path class="st1" d="M37.5,27.3l0,0.6c0.4-0.4,0.8-0.6,1.4-0.6c1,0,1.5,0.6,1.5,1.7v3.2h-1.1V29c0-0.3-0.1-0.5-0.2-0.7
		c-0.1-0.1-0.3-0.2-0.6-0.2c-0.4,0-0.8,0.2-1,0.6v3.4h-1.1v-4.8H37.5z"/>
	<path class="st1" d="M41.3,29.7c0-0.7,0.2-1.3,0.5-1.8s0.8-0.7,1.4-0.7c0.5,0,0.9,0.2,1.2,0.5v-2.5h1.1v6.8h-1l-0.1-0.5
		c-0.3,0.4-0.8,0.6-1.3,0.6c-0.6,0-1-0.2-1.4-0.7C41.5,31.1,41.3,30.4,41.3,29.7z M42.4,29.8c0,0.5,0.1,0.9,0.3,1.1
		c0.2,0.3,0.5,0.4,0.8,0.4c0.4,0,0.8-0.2,1-0.6v-2c-0.2-0.4-0.5-0.6-1-0.6c-0.3,0-0.6,0.1-0.8,0.4S42.4,29.2,42.4,29.8z"/>
	<path class="st1" d="M46.7,26.1c0-0.2,0.1-0.3,0.2-0.4c0.1-0.1,0.3-0.2,0.4-0.2c0.2,0,0.3,0.1,0.5,0.2c0.1,0.1,0.2,0.2,0.2,0.4
		c0,0.2-0.1,0.3-0.2,0.4c-0.1,0.1-0.3,0.2-0.5,0.2c-0.2,0-0.3-0.1-0.4-0.2C46.7,26.4,46.7,26.2,46.7,26.1z M47.8,32.1h-1.1v-4.8h1.1
		V32.1z"/>
	<path class="st1" d="M51.5,28.3c-0.1,0-0.3,0-0.4,0c-0.5,0-0.8,0.2-1,0.6v3.3H49v-4.8h1l0,0.5c0.3-0.4,0.6-0.6,1.1-0.6
		c0.2,0,0.3,0,0.4,0.1L51.5,28.3z"/>
	<path class="st1" d="M52.2,26.1c0-0.2,0.1-0.3,0.2-0.4c0.1-0.1,0.3-0.2,0.4-0.2c0.2,0,0.3,0.1,0.5,0.2c0.1,0.1,0.2,0.2,0.2,0.4
		c0,0.2-0.1,0.3-0.2,0.4c-0.1,0.1-0.3,0.2-0.5,0.2c-0.2,0-0.3-0.1-0.4-0.2C52.2,26.4,52.2,26.2,52.2,26.1z M53.3,32.1h-1.1v-4.8h1.1
		V32.1z"/>
	<path class="st1" d="M55.5,27.3l0,0.6c0.4-0.4,0.8-0.6,1.4-0.6c1,0,1.5,0.6,1.5,1.7v3.2h-1.1V29c0-0.3-0.1-0.5-0.2-0.7
		c-0.1-0.1-0.3-0.2-0.6-0.2c-0.4,0-0.8,0.2-1,0.6v3.4h-1.1v-4.8H55.5z"/>
	<path class="st1" d="M59.6,31.6c0-0.2,0.1-0.3,0.2-0.4c0.1-0.1,0.3-0.2,0.4-0.2c0.2,0,0.3,0.1,0.4,0.2c0.1,0.1,0.2,0.2,0.2,0.4
		c0,0.2-0.1,0.3-0.2,0.4c-0.1,0.1-0.3,0.2-0.5,0.2c-0.2,0-0.3-0.1-0.5-0.2C59.7,31.9,59.6,31.8,59.6,31.6z M60.7,30.2h-0.9l-0.1-4.5
		h1.1L60.7,30.2z"/>
</g>
</svg>
