<?xml version="1.0" encoding="utf-8"?>
<!-- Generator: Adobe Illustrator 22.0.1, SVG Export Plug-In . SVG Version: 6.00 Build 0)  -->
<svg version="1.1" id="TR_Download_on_the" xmlns="http://www.w3.org/2000/svg" xmlns:xlink="http://www.w3.org/1999/xlink" x="0px"
	 y="0px" viewBox="0 0 135 40" style="enable-background:new 0 0 135 40;" xml:space="preserve">
<style type="text/css">
	.st0{fill:#A6A6A6;}
	.st1{fill:#FFFFFF;}
</style>
<title>appstore-download</title>
<path class="st0" d="M130.2,40H4.7C2.1,40,0,37.9,0,35.3V4.7C0,2.1,2.1,0,4.7,0l0,0h125.5c2.6,0,4.8,2.1,4.8,4.7v30.5
	C135,37.9,132.8,40,130.2,40z"/>
<path d="M134,35.3c0,2.1-1.7,3.8-3.8,3.8H4.7c-2.1,0-3.8-1.7-3.8-3.8l0,0V4.7c0-2.1,1.7-3.8,3.8-3.8h125.5c2.1,0,3.8,1.7,3.8,3.8
	V35.3z"/>
<path class="st1" d="M30.1,19.8c0-2,1.1-3.8,2.8-4.9c-1.1-1.5-2.8-2.5-4.7-2.5c-2-0.2-3.9,1.2-4.9,1.2s-2.6-1.2-4.2-1.1
	c-2.2,0.1-4.2,1.3-5.2,3.2c-2.3,3.9-0.6,9.7,1.6,12.9c1.1,1.5,2.4,3.3,4,3.2s2.2-1,4.2-1s2.5,1,4.2,1s2.8-1.6,3.9-3.1
	c0.8-1.1,1.4-2.3,1.8-3.6C31.4,24.1,30.1,22,30.1,19.8z"/>
<path class="st1" d="M26.9,10.3c1-1.1,1.4-2.6,1.3-4.1c-1.5,0.2-2.8,0.8-3.8,1.9S23,10.6,23.1,12C24.6,12.1,26,11.5,26.9,10.3z"/>
<path class="st1" d="M50.6,18.9H49l-0.9-2.7h-3l-0.8,2.7h-1.5l3-9.2h1.8L50.6,18.9z M47.9,15l-0.8-2.4c-0.1-0.2-0.2-0.8-0.5-1.7l0,0
	c-0.1,0.4-0.2,1-0.4,1.7L45.5,15H47.9z"/>
<path class="st1" d="M58.2,15.5c0.1,1-0.3,1.9-0.9,2.7c-0.5,0.6-1.2,0.9-2,0.9c-0.8,0.1-1.5-0.3-1.9-0.9l0,0v3.5h-1.5v-7.2
	c0-0.7,0-1.4-0.1-2.2H53l0.1,1.1l0,0c0.8-1.2,2.4-1.6,3.6-0.9c0.3,0.2,0.5,0.3,0.7,0.6C57.9,13.7,58.2,14.6,58.2,15.5z M56.6,15.5
	c0-0.6-0.1-1.1-0.4-1.6c-0.3-0.4-0.8-0.7-1.3-0.7c-0.4,0-0.7,0.1-1,0.4c-0.3,0.3-0.5,0.6-0.6,1c0,0.1-0.1,0.3-0.1,0.4v1.1
	c0,0.5,0.1,0.9,0.4,1.2c0.3,0.3,0.7,0.5,1.2,0.5s1-0.2,1.3-0.6C56.5,16.8,56.7,16.2,56.6,15.5L56.6,15.5z"/>
<path class="st1" d="M65.9,15.5c0.1,1-0.3,1.9-0.9,2.7c-0.5,0.6-1.2,0.9-2,0.9c-0.8,0.1-1.6-0.3-2-0.9l0,0v3.5h-1.5v-7.2
	c0-0.7,0-1.4-0.1-2.2h1.3l0.1,1.1l0,0c0.8-1.2,2.4-1.6,3.6-0.8c0.2,0.1,0.4,0.3,0.6,0.5C65.6,13.7,65.9,14.6,65.9,15.5z M64.4,15.5
	c0-0.6-0.1-1.1-0.4-1.6c-0.3-0.4-0.8-0.7-1.3-0.7c-0.4,0-0.7,0.1-1,0.4c-0.3,0.3-0.5,0.6-0.6,1c0,0.1-0.1,0.2-0.1,0.4v1.1
	c0,0.5,0.1,0.9,0.4,1.2c0.3,0.3,0.7,0.5,1.2,0.5s1-0.2,1.3-0.6C64.2,16.7,64.4,16.1,64.4,15.5L64.4,15.5z"/>
<path class="st1" d="M75.9,16.3c0,0.7-0.3,1.4-0.8,1.9c-0.7,0.6-1.6,0.9-2.5,0.8c-0.8,0-1.7-0.2-2.4-0.6l0.3-1.2
	c0.6,0.4,1.4,0.6,2.1,0.6c0.5,0,0.9-0.1,1.3-0.4c0.3-0.2,0.5-0.6,0.5-1s-0.1-0.7-0.4-0.9c-0.4-0.3-0.8-0.6-1.3-0.7
	c-1.6-0.6-2.4-1.5-2.4-2.6c0-0.7,0.3-1.4,0.8-1.9c0.6-0.5,1.4-0.8,2.3-0.7c0.7,0,1.4,0.1,2.1,0.4l-0.4,1.2c-0.5-0.3-1.2-0.4-1.8-0.4
	c-0.4,0-0.9,0.1-1.2,0.4c-0.2,0.2-0.4,0.5-0.4,0.8c0,0.4,0.2,0.7,0.4,0.9c0.4,0.3,0.9,0.5,1.3,0.7c0.7,0.2,1.3,0.6,1.8,1.1
	C75.7,15.1,75.9,15.7,75.9,16.3z"/>
<path class="st1" d="M80.7,13.3H79v3.2c0,0.8,0.3,1.2,0.9,1.2c0.2,0,0.4,0,0.7-0.1v1.1C80.1,19,79.8,19,79.4,19
	c-0.5,0-1-0.2-1.4-0.5c-0.4-0.5-0.6-1.2-0.5-1.8v-3.3h-1v-1.1h1V11l1.5-0.4v1.7h1.6L80.7,13.3z"/>
<path class="st1" d="M88,15.5c0,0.9-0.3,1.8-0.9,2.5s-1.5,1-2.4,1s-1.7-0.3-2.3-1c-0.6-0.7-0.9-1.6-0.9-2.4c0-0.9,0.3-1.8,0.9-2.5
	s1.5-1,2.4-1s1.8,0.3,2.4,1C87.7,13.7,88,14.6,88,15.5z M86.5,15.5c0-0.5-0.2-1.1-0.5-1.5c-0.3-0.5-0.8-0.8-1.3-0.8
	c-0.6,0-1.1,0.3-1.4,0.8s-0.4,1-0.4,1.6s0.1,1.1,0.4,1.6c0.4,0.7,1.3,1,2,0.6c0.3-0.1,0.5-0.4,0.6-0.6
	C86.3,16.7,86.4,16.1,86.5,15.5L86.5,15.5z"/>
<path class="st1" d="M92.9,13.5c-0.2,0-0.3,0-0.5,0c-0.5,0-0.9,0.2-1.2,0.6c-0.3,0.4-0.4,0.9-0.4,1.3v3.5h-1.5v-4.6
	c0-0.8,0-1.5-0.1-2.1h1.3l0.1,1.3l0,0c0.1-0.4,0.4-0.8,0.7-1.1c0.3-0.2,0.7-0.4,1.1-0.4c0.1,0,0.2,0,0.4,0L92.9,13.5z"/>
<path class="st1" d="M99.4,15.2c0,0.2,0,0.4-0.1,0.7h-4.4c0,0.6,0.2,1.1,0.6,1.5c0.4,0.3,0.9,0.5,1.4,0.5c0.6,0,1.2-0.1,1.8-0.3
	l0.2,1c-0.7,0.3-1.5,0.4-2.2,0.4c-0.9,0-1.8-0.3-2.4-0.9c-0.6-0.7-0.9-1.5-0.9-2.4s0.3-1.8,0.8-2.5c0.6-0.7,1.4-1.1,2.3-1.1
	s1.7,0.4,2.2,1.1C99.2,13.8,99.4,14.5,99.4,15.2z M98,14.9c0-0.4-0.1-0.8-0.3-1.1c-0.2-0.4-0.7-0.6-1.2-0.6s-0.9,0.2-1.2,0.6
	c-0.3,0.3-0.4,0.7-0.4,1.1H98z"/>
<path class="st1" d="M102.3,9.4c-0.3,1.2-0.8,2.3-1.4,3.4l-0.9,0.1c0.4-1.1,0.7-2.2,0.9-3.4L102.3,9.4z"/>
<path class="st1" d="M108.3,18.9H107v-1.1l0,0c-0.4,0.8-1.3,1.3-2.2,1.2c-0.8,0-1.5-0.3-2-0.9c-0.5-0.7-0.8-1.6-0.8-2.4
	c0-0.9,0.3-1.9,0.9-2.6c0.5-0.6,1.3-0.9,2.1-0.9c0.7-0.1,1.5,0.3,1.9,0.9l0,0V9.2h1.5v7.9C108.3,17.7,108.3,18.3,108.3,18.9z
	 M106.8,16.1V15c0-0.2,0-0.3,0-0.5c-0.1-0.3-0.3-0.7-0.5-0.9c-0.3-0.2-0.6-0.4-1-0.4c-0.5,0-1,0.2-1.3,0.7s-0.5,1.1-0.5,1.7
	c0,0.6,0.1,1.1,0.4,1.6c0.3,0.4,0.8,0.7,1.3,0.7s0.9-0.2,1.2-0.5C106.7,17,106.8,16.5,106.8,16.1z"/>
<path class="st1" d="M115.1,18.9h-1.3l-0.1-0.8l0,0c-0.5,0.6-1.2,1-1.9,0.9c-0.6,0-1.1-0.2-1.5-0.6c-0.3-0.4-0.5-0.9-0.5-1.4
	c0-0.8,0.4-1.5,1-1.9c0.9-0.5,1.9-0.7,2.9-0.6v-0.1c0-0.9-0.5-1.3-1.4-1.3c-0.6,0-1.2,0.2-1.7,0.5l-0.3-1c0.7-0.4,1.5-0.6,2.3-0.6
	c1.7,0,2.6,0.9,2.6,2.8v2.5C115.1,17.8,115.1,18.4,115.1,18.9z M113.6,16.6v-1c-1.6,0-2.4,0.4-2.4,1.3c0,0.3,0.1,0.6,0.3,0.8
	c0.2,0.2,0.5,0.3,0.7,0.3c0.3,0,0.6-0.1,0.9-0.3c0.3-0.2,0.4-0.5,0.5-0.8C113.6,16.8,113.6,16.7,113.6,16.6z"/>
<path class="st1" d="M122.7,18.9h-1.5v-3.8c0-1.2-0.4-1.8-1.3-1.8c-0.4,0-0.8,0.2-1.1,0.5c-0.3,0.3-0.4,0.7-0.4,1.1v3.9h-1.5v-4.7
	c0-0.6,0-1.2-0.1-1.9h1.3l0.1,1l0,0c0.2-0.3,0.4-0.6,0.8-0.8s0.9-0.4,1.3-0.4c0.6,0,1.1,0.2,1.6,0.6c0.6,0.6,0.8,1.4,0.8,2.2
	L122.7,18.9L122.7,18.9z"/>
<g>
	<path class="st1" d="M42.8,24.6c0-0.2,0-0.3,0.2-0.4c0.1-0.1,0.2-0.2,0.4-0.2s0.3,0.1,0.4,0.2c0.1,0.1,0.2,0.2,0.2,0.4
		c0,0.2-0.1,0.3-0.2,0.4s-0.2,0.2-0.4,0.2S43.1,25.1,43,25C42.8,24.9,42.8,24.8,42.8,24.6z M43.9,32.1h-1.1v-6.4h1.1V32.1z"/>
	<path class="st1" d="M46.2,27.3l0,0.6c0.4-0.4,0.8-0.6,1.4-0.6c1,0,1.5,0.6,1.5,1.7v3.2h-1.1V29c0-0.3-0.1-0.5-0.2-0.7
		c-0.1-0.1-0.3-0.2-0.6-0.2c-0.4,0-0.8,0.2-1,0.6v3.4h-1.1v-4.8H46.2z"/>
	<path class="st1" d="M50.1,29.7c0-0.7,0.2-1.3,0.5-1.8s0.8-0.7,1.4-0.7c0.5,0,0.9,0.2,1.2,0.5v-2.5h1.1v6.8h-1l-0.1-0.5
		c-0.3,0.4-0.8,0.6-1.3,0.6c-0.6,0-1-0.2-1.4-0.7C50.2,31.1,50.1,30.4,50.1,29.7z M51.1,29.8c0,0.5,0.1,0.9,0.3,1.1
		c0.2,0.3,0.5,0.4,0.8,0.4c0.4,0,0.8-0.2,1-0.6v-2c-0.2-0.4-0.5-0.6-1-0.6c-0.3,0-0.6,0.1-0.8,0.4S51.1,29.2,51.1,29.8z"/>
	<path class="st1" d="M55.4,26.1c0-0.2,0.1-0.3,0.2-0.4c0.1-0.1,0.3-0.2,0.4-0.2c0.2,0,0.3,0.1,0.5,0.2c0.1,0.1,0.2,0.2,0.2,0.4
		c0,0.2-0.1,0.3-0.2,0.4c-0.1,0.1-0.3,0.2-0.5,0.2c-0.2,0-0.3-0.1-0.4-0.2C55.4,26.4,55.4,26.2,55.4,26.1z M56.5,32.1h-1.1v-4.8h1.1
		V32.1z"/>
	<path class="st1" d="M60.2,28.3c-0.1,0-0.3,0-0.4,0c-0.5,0-0.8,0.2-1,0.6v3.3h-1.1v-4.8h1l0,0.5c0.3-0.4,0.6-0.6,1.1-0.6
		c0.2,0,0.3,0,0.4,0.1L60.2,28.3z"/>
	<path class="st1" d="M60.9,26.1c0-0.2,0.1-0.3,0.2-0.4c0.1-0.1,0.3-0.2,0.4-0.2c0.2,0,0.3,0.1,0.5,0.2c0.1,0.1,0.2,0.2,0.2,0.4
		c0,0.2-0.1,0.3-0.2,0.4c-0.1,0.1-0.3,0.2-0.5,0.2c-0.2,0-0.3-0.1-0.4-0.2C60.9,26.4,60.9,26.2,60.9,26.1z M62,32.1h-1.1v-4.8H62
		V32.1z"/>
	<path class="st1" d="M64.2,27.3l0,0.6c0.4-0.4,0.8-0.6,1.4-0.6c1,0,1.5,0.6,1.5,1.7v3.2h-1.1V29c0-0.3-0.1-0.5-0.2-0.7
		c-0.1-0.1-0.3-0.2-0.6-0.2c-0.4,0-0.8,0.2-1,0.6v3.4h-1.1v-4.8H64.2z"/>
	<path class="st1" d="M68.3,31.6c0-0.2,0.1-0.3,0.2-0.4c0.1-0.1,0.3-0.2,0.4-0.2c0.2,0,0.3,0.1,0.4,0.2c0.1,0.1,0.2,0.2,0.2,0.4
		c0,0.2-0.1,0.3-0.2,0.4c-0.1,0.1-0.3,0.2-0.5,0.2c-0.2,0-0.3-0.1-0.5-0.2C68.4,31.9,68.3,31.8,68.3,31.6z M69.4,30.2h-0.9l-0.1-4.5
		h1.1L69.4,30.2z"/>
</g>
</svg>
