<?xml version="1.0" encoding="utf-8"?>
<!-- Generator: Adobe Illustrator 16.0.0, SVG Export Plug-In . SVG Version: 6.00 Build 0)  -->
<!DOCTYPE svg PUBLIC "-//W3C//DTD SVG 1.1//EN" "http://www.w3.org/Graphics/SVG/1.1/DTD/svg11.dtd">
<svg version="1.1" id="Layer_1" xmlns="http://www.w3.org/2000/svg" xmlns:xlink="http://www.w3.org/1999/xlink" x="0px" y="0px"
	 width="815px" height="211.338px" viewBox="0 0 815 211.338" enable-background="new 0 0 815 211.338" xml:space="preserve">
<g>
	<g>
		<path fill="#C92F2D" d="M156.74,180.622H41.729l12.78-46.851c0,0-35.854,0-48.277-37.982
			C-6.189,57.812,32.854,16.273,78.291,32.602c0,0,34.789-52.176,85.905-16.682c51.117,35.496,10.997,95.124-4.263,103.645
			c-15.265,8.52-10.646,5.325-10.646,5.325L156.74,180.622z"/>
		<path fill="#C92F2D" d="M191.239,66.237c0,35.092-28.447,63.538-63.54,63.538c-35.096,0-63.542-28.446-63.542-63.538
			c0-35.093,28.445-63.542,63.542-63.542C162.792,2.695,191.239,31.144,191.239,66.237z"/>
	</g>
	<g>
		<path display="none" fill="#FFFFFF" d="M95.063,164.725c0,0,3.914,1.262,2.347-8.132c-1.565-9.405-9.084-63.591-9.084-63.591
			s7.047-2.669,6.265-13.167c-0.779-10.49-2.352-24.749-2.352-24.749h-1.566l0.785,23.969c0,0-0.939,1.566-1.565-1.722
			c-0.626-3.281-2.35-22.247-2.35-22.247h-1.563l0.78,22.564c0,0-0.629,3.602-1.722-0.165L83,55.087h-1.722
			c0,0,1.412,23.186,0,23.969c0,0-1.409,2.197-1.878-5.325c-0.47-7.521-1.098-18.644-1.098-18.644h-1.564
			c0,0,0.153,26.009,1.88,30.238c1.719,4.227,4.488,6.468,7.204,7.829c0,0,1.254,65.156,2.192,67.97
			C88.954,163.95,91.3,167.084,95.063,164.725z"/>
		<path fill="#FFFFFF" d="M132.457,59.037c-0.893,11.985-7.421,21.274-14.58,20.751c-7.156-0.535-12.234-10.688-11.348-22.671
			c0.891-11.995,7.414-21.286,14.579-20.751C128.265,36.891,133.348,47.046,132.457,59.037z"/>
		<path fill="#FFFFFF" d="M118.708,79.78l-1.719,50.66v14.875c0,0,0.623,10.188-5.955,9.558c-6.578-0.625-4.701-9.246-4.542-10.5
			c0.159-1.24,9.789-64.885,9.789-64.885L118.708,79.78z"/>
		<path display="none" fill="#FFFFFF" d="M97.776,160.824c0,3.271-2.186,5.92-4.889,5.92c-2.695,0-4.882-2.649-4.882-5.92
			c0-3.268,2.187-5.921,4.882-5.921C95.59,154.903,97.776,157.556,97.776,160.824z"/>
	</g>
	<path fill="#FFFFFF" d="M85.871,53.534c-0.791,0.099-1.331,1.021-1.202,2.063l2.86,23.194c0.129,1.043-0.415,1.966-1.215,2.066
		c-0.796,0.097-1.548-0.666-1.678-1.71l-2.859-23.193c-0.127-1.042-0.876-1.807-1.668-1.709l-0.019,0.001
		c-0.793,0.1-1.33,1.021-1.202,2.063l2.861,23.195c0.127,1.044-0.417,1.967-1.216,2.066c-0.798,0.098-1.548-0.665-1.676-1.709
		l-2.861-23.195c-0.127-1.041-0.877-1.806-1.67-1.708h-0.016c-0.793,0.099-1.333,1.022-1.203,2.064l2.859,23.195
		c0.129,1.044-0.414,1.969-1.212,2.066c-0.799,0.1-1.55-0.665-1.679-1.711l-2.859-23.193c-0.129-1.044-0.879-1.807-1.671-1.708
		c-0.751,0.093-1.265,0.965-1.144,1.949c0.724,5.872,2.99,24.242,3.085,25.02c0.942,7.65,3.412,11.561,6.573,13.145
		c2.554,1.28,4.337,4.413,4.505,7.888l2.729,56.735c0.107,2.192,0.919,4.279,2.234,5.749c1.318,1.482,3.02,2.204,4.682,2.004
		c1.667-0.208,3.138-1.326,4.058-3.072c0.918-1.758,1.199-3.974,0.768-6.133l-11.134-55.693c-0.681-3.412,0.295-6.885,2.456-8.747
		c2.682-2.302,4.125-6.697,3.182-14.347c-0.096-0.778-2.36-19.148-3.084-25.02C87.332,54.164,86.627,53.44,85.871,53.534z"/>
</g>
<path fill="#363736" d="M314.137,112.014c0,0,1.574-29.432-17.656-40.158c-19.229-10.726-43.955-2.617-48.665-0.788
	c-4.709,1.839-11.639,4.979-14.388,11.514c-2.747,6.537,2.356,16.094,10.464,14.916c8.107-1.178,14.513-9.291,26.161-8.505
	c11.647,0.785,15.174,5.755,15.698,15.307c0,0-21.847-0.394-34.143,3.4c-12.296,3.792-27.734,10.207-27.078,31.398
	c0.656,21.187,26.64,30.078,44.911,25.501c15.622-3.904,16.746-9.345,16.742-10.844c0.215,1.931,1.767,10.339,12.521,11.38
	c12.166,1.177,14.911-9.822,15.433-12.428C314.665,150.09,314.137,112.014,314.137,112.014z M268.479,144.975
	c-11.119,1.696-18.71-5.224-14.128-14.389c4.58-9.164,31.523-8.104,31.523-8.104C286.267,139.228,279.594,143.285,268.479,144.975z"
	/>
<path fill="#363736" d="M494.537,39.88c0,9.639-7.823,17.458-17.467,17.458c-9.646,0-17.461-7.819-17.461-17.458
	c0-9.651,7.814-17.465,17.461-17.465C486.713,22.415,494.537,30.229,494.537,39.88z"/>
<path fill="#363736" d="M492.763,83.244c0,0.796-0.056,1.585-0.167,2.354c-1.126,7.556-7.51,13.342-15.23,13.342
	c-8.51,0-15.411-7.029-15.411-15.696c0-0.795,0.066-1.571,0.17-2.33c0.044-0.266,0.082-0.527,0.136-0.794
	c1.419-7.171,7.646-12.579,15.105-12.579C485.868,67.541,492.763,74.573,492.763,83.244z"/>
<path fill="#363736" d="M492.763,149.561c0,8.667-6.896,15.694-15.397,15.694c-8.51,0-15.411-7.027-15.411-15.694
	c0-8.668,6.901-15.695,15.411-15.695C485.868,133.866,492.763,140.893,492.763,149.561z"/>
<polygon fill="#363736" points="461.955,82.067 461.955,149.561 469.026,152.904 492.763,149.561 492.763,83.244 "/>
<path fill="#363736" d="M516.123,158.001c0,0-12.938-10.617-1.164-19.632c0,0,6.841-4.504,13.912-0.978
	c7.072,3.542,15.307,10.415,26.094,4.522c0,0,5.497-3.337,2.553-9.417c0,0-2.553-4.325-15.888-6.087
	c-13.352-1.767-31.197-11.775-29.046-30.61c2.16-18.84,17.852-30.669,43.173-28.515c25.308,2.16,31.004,11.247,28.254,19.878
	c-2.744,8.637-10.796,10.597-23.939,3.143c-13.256-7.52-24.337,5.884-17.076,10.597c7.268,4.704,39.252,4.506,43.956,27.077
	c4.711,22.566-14.32,37.678-32.374,38.454C536.523,167.227,529.263,166.435,516.123,158.001z"/>
<path fill="#363736" d="M603.828,98.744c0,0-13.54-18.838,1.958-29.63c0,0,15.509-9.812,25.712,15.896
	c10.2,25.696,16.874,44.93,16.874,44.93l19.032-51.603c0,0,5.109-15.7,21.778-9.025c16.683,6.665-1.958,37.791-5.688,47.545
	c-3.721,9.749-27.08,65.866-27.08,65.866s-7.841,21-28.838,24.727c-21.002,3.729-28.456-4.906-27.67-13.939
	c0.786-9.015,5.879-10.787,13.537-11.374c7.659-0.593,12.956-0.778,19.031-19.422L603.828,98.744z"/>
<path fill="#363736" d="M760.208,66.367c-29.136,0-52.776,22.443-52.776,50.139c0,27.691,23.641,50.128,52.776,50.128
	c29.153,0,52.792-22.437,52.792-50.128C813,88.811,789.361,66.367,760.208,66.367z M759.998,141.127
	c-12.557,0-22.745-11.142-22.745-24.905c0-13.754,10.188-24.904,22.745-24.904c12.549,0,22.743,11.15,22.743,24.904
	C782.741,129.986,772.546,141.127,759.998,141.127z"/>
<rect x="427.541" y="104.161" fill="#D12B2C" stroke="#363736" stroke-miterlimit="10" width="0.514" height="0.258"/>
<path fill="#363736" d="M436.722,35.962c0,0,0.649-15.776-14.66-16.707c-15.305-0.929-16.343,14.242-16.338,18.825
	c0.002,4.578,0.148,41.332,0.148,41.332s-13.346-15.946-34.411-12.408c-21.058,3.547-34.918,17.42-38.828,43.851
	c-3.913,26.423,15.2,47.871,26.843,51.921c11.645,4.05,33.748,8.736,48.529-11.282c0,0,0.399,10.982,11.521,13.196
	c11.116,2.215,16.874-5.636,17.259-13.867C437.169,142.572,436.722,35.962,436.722,35.962z M384.966,141.937
	c-12.709,0.007-23.021-11.08-23.027-24.775c-0.01-13.688,10.293-24.786,23.001-24.793c12.726-0.007,23.04,11.08,23.049,24.769
	C407.996,130.832,397.692,141.931,384.966,141.937z"/>
</svg>
